<?xml version="1.0" encoding="UTF-8"?>
<svg id="_2" data-name=" 2" xmlns="http://www.w3.org/2000/svg" viewBox="0 0 200 63.26">
  <defs>
    <style>
      .cls-1 {
        fill: #262626;
      }
    </style>
  </defs>
  <path class="cls-1" d="M12.15,10.95c.08.05.14.09.21.14h0c1.73,0,3.34.85,4.34,2.27,10.61,15.08,29.68,22.03,31.8,22.77,35.97,12.19,82.21,1.74,122.14-18.24-1.53.08-18.81,1.58-23.52-2.62-1.74-2.63-1.09-2.49,4.98-1.77,2.51.12.76-.98,5.01-.99-.93.18,6.51.6,11.52.07,16.15-1.73,19.61-5.94,22.36-3.9,8.49,6.3-44.86,49.72-48.88,43.47-1.93-2.99,3.07-3.34,15.66-13.61,2.46-2.01,4.91-4.73,8.04-7.55,30.88-28.57-63.02,51.28-139.54-1.27-3.8-2.61-13.93-11.64-17.74-16.82-1.72-2.34,2.09-4.97,3.61-1.94Z"/>
</svg>