<?xml version="1.0" encoding="UTF-8"?>
<svg id="_2" data-name=" 2" xmlns="http://www.w3.org/2000/svg" viewBox="0 0 200 124.38">
  <defs>
    <style>
      .cls-1 {
        fill: #262626;
      }
    </style>
  </defs>
  <path class="cls-1" d="M187.03,106.57c-29.02-15.98-32.57-28.48-35.95-25.66-2.2,1.82,9.04,12.87,10.44,14.16,9.75,8.9,12.5,8,2.41,5.14-12.94-3.66-26.5-6.93-28.38-7.48-3.46-1.01-6.67-2.57-9.96-3.55-60.79-18.11-36.69-11.38-50.22-16.17-3.47-1.23-6.99-1.84-10.14-3.02-3.48-1.3-6.57-3.07-9.66-4.3C-33.18,30.22,37.96,21.64,90.87,17.98c.14,0,19.57-.97,32.17-.19,3.5.22,6.96-.82,9.77-2.91h0s0,0,0,0c1.4-.26,2.17-.55,2.18-.87.13-4.45-108.39-1.61-126.15,16.65-25.38,26.1,108.2,63.45,143.21,72.68,8.25,2.17,20.38,3.11,7.51,3.09-.07,0-31.34,1.99-32.64,2.18-2.77.28-1.68.98-3.32,1.48-7.91,1.82-7.6,2.38-4.06,3.51,17.95-.61,11.57-1.92,35.46-1.59,36.97.6,37.75,3.96,39.09.76,1.25-3.02-2.52-3.76-7.06-6.2Z"/>
</svg>