<?xml version="1.0" encoding="UTF-8"?>
<svg id="_2" data-name=" 2" xmlns="http://www.w3.org/2000/svg" viewBox="0 0 200 124.38">
  <defs>
    <style>
      .cls-1 {
        fill: #262626;
      }
    </style>
  </defs>
  <path class="cls-1" d="M186.27,90.96c.67.67-.08,1.93-1.46,3.66.09.91-.2,1.84-.85,2.54-6.03,6.47-9.47,13.5-10.9,16.87-.3.77-.56,1.46-.8,2.04h0s0,0,0,0c-.76,1.83-1.35,2.73-2.49,2.76-3.3.08-1.81-5.66-4.3-16.76-3.67-16.37-7.2-16.56-5.24-17.91,2.67-1.84,7.57,12.71,8.53,16.02,2.42,7.43-.24,15.74,12.25-87.77-2.88,0-5.52-.26-8.3-.25-2.88,0-5.71.38-8.48.39-140.48.52-144.77.61-143.04-1.49-10.11.81-7.34-3.39-7.41-3.39,6.72-1.71,21.72-.64,170.13-.21,3.92-.01,3.65-6.09-9.99,96.75,1.71-2.86,10.01-15.58,12.37-13.24Z"/>
</svg>