<?xml version="1.0" encoding="UTF-8"?>
<svg id="_2" data-name=" 2" xmlns="http://www.w3.org/2000/svg" viewBox="0 0 200 200">
  <defs>
    <style>
      .cls-1 {
        fill: #404040;
      }

      .cls-2 {
        fill: #3f3f3f;
      }

      .cls-3 {
        fill: #2b2b2b;
      }

      .cls-4 {
        fill: #444;
      }

      .cls-5 {
        fill: #2f2f2f;
      }

      .cls-6 {
        fill: #292929;
      }

      .cls-7 {
        fill: #414141;
      }

      .cls-8 {
        fill: #393939;
      }

      .cls-9 {
        fill: #363636;
      }

      .cls-10 {
        fill: #454545;
      }

      .cls-11 {
        fill: #2c2c2c;
      }

      .cls-12 {
        fill: #3b3b3b;
      }

      .cls-13 {
        fill: #3e3e3e;
      }

      .cls-14 {
        fill: #212121;
      }

      .cls-15 {
        fill: #4d4d4d;
      }

      .cls-16 {
        fill: #3a3a3a;
      }

      .cls-17 {
        fill: #373737;
      }

      .cls-18 {
        fill: #3d3d3d;
      }

      .cls-19 {
        fill: #272727;
      }

      .cls-20 {
        fill: #303030;
      }

      .cls-21 {
        fill: #464646;
      }

      .cls-22 {
        fill: #262626;
      }

      .cls-23 {
        fill: #242424;
      }

      .cls-24 {
        fill: #2e2e2e;
      }

      .cls-25 {
        fill: #4a4a4a;
      }

      .cls-26 {
        fill: #383838;
      }

      .cls-27 {
        fill: #313131;
      }

      .cls-28 {
        fill: #484848;
      }

      .cls-29 {
        fill: #222;
      }
    </style>
  </defs>
  <path class="cls-29" d="M32.65,146.85c1.49,3.18,4.14,5.37,6.54,7.78.45-.07.83.06,1.15.38,3.67,2.05,7.26,4.22,10.92,6.28.83.7,1.75,1.25,2.76,1.67,6.32,2.65,12.85,4.88,19.48,6.26,15.14,3.15,30.35,3.06,45.35-1.37,4.63-1.06,9.14-2.5,13.43-4.56,3.51-1.28,6.81-3,9.98-4.98,3.92-1.71,6.45-5.19,9.78-7.66,2.86-1.87,4.6-4.7,6.48-7.42,3.45-5.82,7.94-11.07,9.61-17.86.35-1.43.88-2.8.91-4.29.22-2.62-.08-5.25.28-7.86.72-1.4.04-4.31,2.36-3.91,2.47.43,1.55,3.23,1.81,5.06.22-1.81-.07-3.66-.32-5.5-.62-4.62-.91-9.32-3.21-13.54-.72-2.51-2.69-4.63-2.27-7.48,2.12-3.34-1.24-4.36-2.65-6.2-.52-.29-1.01-.61-1.48-.97-1.28-1.16-2.41-2.38-1.97-4.32.46-1.12,1.3-1.55,2.48-1.36.79.18,1.47.57,2.23,1.03-1.08-1.69-2.12-3.4-2.69-5.34-.27-.91-.68-1.83.44-2.43.88-.48,1.43.14,2.06.67,1.1.92,2.31,1.7,3.1,2.94l-.06-.08c1.23.79,2.06,2.1,3.48,2.66,1.48.98,2.48,2.37,3.36,3.86.59,1.89,1.3,3.75,1.67,5.71.94,3.23,2.2,6.36,2.94,9.65.79,3.55,1.73,7.03-.23,10.61-.93,1.69-.09,3.72.04,5.58.91,12.24-1.72,23.77-6.62,34.91-3.53,8-9.8,13.7-16.06,19.43-4.35,1.16-8.19,3.12-11.45,6.36-1.7,1.69-4.12,2.62-6.46,3.28-4.95,1.39-9.91,2.86-14.43,5.27-4.21,2.24-8.45-.09-12.61.89-10.34,2.46-20.9,2.22-31.4,1.92-5.08-.14-10.23-.23-15.27-1.32-7.92-.98-14.35-5.32-20.98-9.22-.79-.33-1.57-.67-2.36-1.02-1.34-.59-2.46-1.53-3.66-2.33-.99-.65-1.85-1.47-2.86-2.09-1.94-1.52-3.66-3.28-5.43-4.99-.88-1.13-1.9-2.13-2.96-3.08-.24-.26-.44-.55-.61-.86-.46-1.13-1.21-2.07-1.97-3.01-.5-.72-.85-1.53-1.33-2.25-1.29-1.93-2.93-3.54-4.64-5.09-1.44-1.56-2.12-3.48-2.61-5.49-.3-1.82-1.22-3.45-1.58-5.25-.33-1.65-.67-3.3-.83-4.98-.51-5.57-1.08-11.14-.7-16.73.08-1.09.17-2.19.01-4.2.09,2.2-.1,3.48-.09,4.78,0,.4-.03.79-.11,1.17-.28,1.04-.76,2.39-1.86,2.19-1.79-.33-1.3-2.28-1.75-3.56-.23-1.22-.16-2.43.2-3.62.61-1.49.48-3.06.46-4.61.03-.61.15-1.2.33-1.78,2.1-5.71,4.52-11.48,5.43-17.36,2.54-16.5,14.05-27.11,23.98-38.83,3.33-3.93,7.83-6.64,11.12-10.62.6-.73,1.47-1.29,2.33-1.6,5.33-1.91,8.59-6.74,13.51-9.38,3.81-2.05,7.84-3.54,11.74-5.21,8.32-3.57,17.17-5.87,26.21-6.81,5.19-.54,10.16.83,14.36,4.27,1.56,1.28,2.83,2.92,4.74,3.77,2.94,1.31,5.22,3.52,7.48,5.74.85,1.41,2.99,3.19,1.5,4.36-1.24.96-3.96,1.09-5.84-.3-1.83-1.35-3.42-2.96-4.85-4.71-.93-1.65-3.07-1.73-4.15-3.14-3.49-4.51-3.46-4.43-9.33-3.78-3.93.44-7.74,1.25-11.48,2.5-1.16.39-2.52.6-3.31,1.48-3.81,4.2-8.97,5.67-14.09,7.3-.49.15-.8.71-1.26,1.01-12.16,4.55-21.7,12.59-29.9,22.43-1.99,2.69-4.22,5.17-6.69,7.43-3.77,2.87-5.81,7.12-8.06,11.02-5.2,9.01-9.16,18.58-11.82,28.7-2.3,8.74-.58,17.06,1.79,25.39.48,1.69.76,3.43,1.42,5.06,1.97,3.23,3.11,6.85,4.75,10.24l-.05-.09c1.21.83,1.45,2.35,2.37,3.38Z"/>
  <path class="cls-14" d="M192.81,10.88c-2.09-.84-4.24-3.99-6.38-1.27-3.31,4.22-8.46,6.21-11.61,10.49-3.63,5.25-8.67,9.27-12.48,14.36-1.1,2.06-2.49,3.82-4.61,4.95-.71.38-1.22.97-1.64,1.64-1.38,2.84-3.77,4.82-5.93,6.99-.29.27-.56.57-.82.88l-27.69,32.9c-2.31,3.27-4.8,6.42-6.91,9.84-.7,1.64-1.8,3.02-2.87,4.41-.62.8-1.33,1.95-2.64,1.24-1.02-.55-.71-1.64-.66-2.57.6-10.11,1.59-20.22,1.02-30.34-.18-3.25,1.94-5.53,2.08-8.46l-.44-3.48c-1.22-3.38-4.33-5.03-6.74-7.3-1.3-1.23-2.28-.42-2.62,1.01-.37,1.59-.45,3.22.79,4.52-3.67-.94-3.96-.64-3.61,3.83.2.36.43.7.71,1,.36.64,1.53.94,1.03,1.82-.14.24-.99-.66-1.53-1.01-.75-.58-1.46-1.21-2.42-1.43-2.64,1.22-1.45,3.4-.63,4.69,1.63,2.57,1.74,5.23,1.63,8.03.46,2.4.39,4.82.33,7.26-.29,11.36-1.25,22.69-1.6,34.05-.13,4.3.19,8.65-2.08,12.65-.71,1.26-.73,2.87-.36,4.37.28.73.75,1.32,1.31,1.86.5.46,1.03.9,1.38,1.5.29.63.4,1.32.71,1.94.19.31.41.61.66.87.7.72,1.51,1.26,2.52,1.43,3.77-.17,5.88-2.5,7.78-5.49,3.81-6,6.39-12.66,10.28-18.59,3.58-5.44,6.74-11.16,11.07-16.09,5.2-6.99,10.34-14.03,16.2-20.5,2.13-2.43,4.25-4.86,6.4-7.26,6.36-7.11,12.67-14.26,19.6-20.84,1.74-1.06,2.86-2.76,4.23-4.2,1.87-2.57,5.13-2.9,7.5-4.67,2.19-1.68,4.46-3.06,6.15-5.54,2.84-4.17,4.56-8.73,6.33-13.34.39-2.92-1.36-4.63-3.46-6.15Z"/>
  <path class="cls-22" d="M123.72,23.81c-1.25-.31-2.08-1.18-2.93-2.07-5.37-5.65-12.03-6.83-19.38-5.46-6.97,1.3-13.72,3.36-20.47,5.51-3.94,1.25-7.8,3.09-11.3,4.85-3.09,1.55-7.7,2.55-9.26,6.87-.84,2.32-3.65,1.39-5.18,2.71-10.44,8.95-20.54,18.19-28.14,29.86-2.68,4.12-5.79,7.93-7.78,12.52-.76,1.75-2.08,2.9-.84,5.05,1.06,1.84-.81,3.58-1.42,5.11-2.17,5.4-3.04,11.2-5.46,16.49-1.48-.54-.95-1.71-.86-2.73.79-2.25.87-4.61.96-6.96-.02,1.63-.59,3.11-1.35,4.51-.49.9-.94,2.27-2.26,1.86-1.2-.37-1.08-1.7-1.04-2.8,4.83-14.86,12.88-28.05,21.17-41.11,3.32-3.22,5.84-7.11,8.88-10.57.35-.49.61-1.03.99-1.5,1.33-1.07,2.79-2,3.7-3.52,5.25-6.28,12.45-9.95,19.15-14.28,11.15-6.2,22.59-11.74,34.99-14.98,3.92-1.02,7.83-2.2,11.91-2.51,5.31-.97,10.76-.34,16.05-1.47.48-.1,1.01.29,1.5.5,2.26,1.51,4.51,3.01,6.11,5.26l5.42,5.52c.7.47,1.13,1.15,1.36,1.92.27.9.55,1.93-.28,2.61-.82.68-1.8.31-2.62-.17-2.4-1.4-4.24-3.47-6.29-5.32,2.5,2.6,5.74,4.73,5.74,8.92l-.14-.03c-2.23.92-2.12.77-4.44-.94-1.99-1.47-3.2-4.49-6.51-3.65Z"/>
  <path class="cls-20" d="M115.6,92.36c-1.21,1.76-2.51,3.46-3.62,5.28-.92,1.51-2.27,1.35-3.55,1.07-1.7-.37-1.2-1.87-1.09-2.98,1.17-11.86,1.52-23.75,1.36-35.65-.03-2.5,3.52-1.72,2.98-4.15.15.05.3.1.45.17.77,9.75.1,19.49-.39,29.22-.11,2.15-.22,4.3-.21,6.45-.2,1.28-.79,2.51-.39,3.92,1.08-1.37,1.48-3.42,3.55-3.87.41,0,.72.18.92.54Z"/>
  <path class="cls-20" d="M25.65,134.33c-2.24-1.62-1.98-4.32-2.74-6.55-3.76-11.04-3.63-21.97.63-32.96,4.1-10.58,8.67-20.85,15.45-30.03.81-1.1,1.48-2.25,2.89-2.65.16.37.22.76.18,1.16-.91,2.67-3.31,4.4-4.39,6.97-.2.35-.46.67-.77.93-1.21,1.05-1.06,2.67-1.73,3.95-3.32,5.46-6.03,11.13-7.97,17.28-1.17,3.72-1.65,7.52-2.74,11.19-.83,2.79-1.05,5.5-.59,8.31.03.41.03.83.02,1.24-.65,2.06-.67,4.12.04,6.18.07.73.11,1.47-.08,2.19-.28,1.6.41,3.17.21,4.77l.52.91c.58.51.73,1.22.88,1.92.27,1.24.3,2.5.33,3.77l-.03-.09c.5.54.28,1.02-.13,1.49Z"/>
  <path class="cls-12" d="M125.51,76.03l14.5-18.59c1.39-.99,2.04-2.72,3.55-3.59,1.44-1.13,2.62-2.51,3.86-3.85.82-.89,1.48-2.3,3.14-1.49-3.68,5.99-9.08,10.56-13.25,16.16-4.08,5.49-9.07,10.25-12.98,15.9-.43.62-1.26.97-1.9,1.45-.08-.2-.16-.4-.25-.6.34-2.27,2.41-3.48,3.32-5.4Z"/>
  <path class="cls-7" d="M94.54,55.1c.66-1.67,1.64-1.81,2.9-.61.1.27.08.47-.08.6-.15.13-.26.18-.33.15-1.94,1.44-.53,3.28.17,4.16,1.93,2.45,1.98,4.95,1.39,7.71.09.27.07.5-.05.7-.12.2-.21.3-.26.28-2.45-.06-2.46-3.14-4.54-3.66-.64.15-1.24.5-1.93.3-.43-.38-.56-.81-.24-1.33l.35-1.47c-.45-1.2.22-1.7,1.24-1.75,1.28-.07,1.03-.73.72-1.5-.3-1.3-.82-2.63.66-3.58Z"/>
  <path class="cls-25" d="M141.24,80.46c-3.16.92-4.06,4.05-5.99,6.17-2.25,2.47-4.24,5.17-6.34,7.77-.36-.8-.03-1.4.53-1.94,4.78-7.05,9.98-13.76,15.84-19.96.23.39.3.81.21,1.25-.82,1.76-2.18,3.14-3.39,4.62l-.86,2.08Z"/>
  <path class="cls-19" d="M66.83,179.72c13.04,1.56,26.11,1.91,39.17.5,2.74-.29,5.46-1.07,8.25-1.4,1.73-.21,3.15-1.03,4.78.53,1.4,1.35,2.83-.3,4.05-.82,7.27-3.09,15.2-4.47,22.12-8.44.12-.07.28-.09.36-.18,3.18-3.58,7.22-5.63,11.84-6.65.73,1.93-.92,2.63-1.93,3.6-4.55,4.35-10.21,6.89-15.66,9.86-5.92,3.24-12.66,3.85-18.65,6.68-3.65,1.26-7.42,2.05-11.16,2.99-6.24,1.56-12.52,2.61-19.02,2.26-6.46-.35-12.98.23-19.28-1.8-1.42-.46-2.89-.72-4.06-1.73-.79-.78-1.23-1.72-1.2-2.85,1.02-1.72,2.44-.55,3.6-.36,5.31.86,10.64,1.59,15.96,2.39.86.13,1.61.06,2.27-.62-.61.16-1.12.7-1.7.57-5.95-1.26-12.07-1.34-17.99-2.72-.9-.21-2.39-.04-1.75-1.82Z"/>
  <path class="cls-23" d="M66.68,182.28c.61.58.91,1.28.91,2.12-.36.19-.75.29-1.16.29-1.59-.14-3.06-1.12-4.73-.71-.66.08-1.32.09-1.98,0-4.97-1.47-9.64-3.7-14.47-5.52-7.7-3.87-14.61-8.79-20.38-15.24-1.1-1.37-2.3-2.68-3.27-4.16-.6-.91-1.22-1.81-1.83-2.71-.79-1.17-1.54-2.36-2.26-3.57-1.08-1.82-2.3-3.54-3.96-4.91-1.83-1.82-2-4.34-2.83-6.58-.52-1.42-1.2-2.8-1.22-4.35-.02-1.36-.35-2.71-.23-4.08.42-4.72-.36-9.42-.09-14.13.09-1.57-.45-3.31,1.41-4.29l.88,3.11c1.11-.37.9-1.51,1.38-2.2,1.83,1.08.89,2.85.83,4.22-.16,3.75-.13,7.45.46,11.16.29,1.82.53,3.65,1.21,5.38.54,1.71,1.17,3.4,1.57,5.15,1.07,3.48,2.87,6.6,4.89,9.59,1.96,2.9,2.81,6.78,6.86,7.87.56.48,1.08,1.02,1.63,1.52,1.53,1.64,3.15,3.17,4.82,4.67.73.93,2.01,1.1,2.76,2,.99,1,2.4,1.39,3.43,2.35.96.9,2.31,1.11,3.33,1.9,6.12,3.65,12.14,7.52,19.25,9.07,1.26.27,2.26.86,2.81,2.07Z"/>
  <path class="cls-19" d="M123.18,27.16c-2.29-.66-4.55-2.21-6.91-.2.51,1.08,1.71,1.02,2.56,1.53,1.5.89,1.31,1.71-.08,2.5-.43.09-.86.11-1.29.03-1.05-.18-1.97-.69-2.87-1.23-4.23-2.55-8.88-1.42-13.41-1.23-4.31.18-8.32,1.64-12.42,2.73-1.43.24-2.81.67-4.18,1.14-1.77.41-3.42,1.49-5.36,1.05-.14-.13-.27-.26-.41-.38.55-.62-.21-1.77,1.27-2.16,4.65-1.2,8.79-3.02,12.85-6.11,6.21-4.73,14.3-4.95,21.99-5.2,1.47-.05,3.28,1.76,3.23,2.03-.77,4.2,4.24,2.94,5.02,5.52Z"/>
  <path class="cls-8" d="M120.73,182.79c2.66-2.08,6.01-2.28,9.06-3.31,9.05-3.06,17.81-6.68,25.14-13.06,1.02-.89,2.08-1.76,2.46-3.15,5.72-5.61,11.95-10.81,15.22-18.44,4.62-7.84,6.38-16.58,8.01-25.36.22-1.18.15-2.43.95-3.43.29-.37.68-.59,1.14-.69.41,10.1-3.46,19.02-7.65,27.85-6.73,14.17-17.47,24.59-30.7,32.67-1.26.77-2.44,1.65-3.66,2.48l-2.68.92c-4.74,2.32-9.58,4.4-14.67,5.87-2.11.6-3.14,0-2.63-2.34Z"/>
  <path class="cls-19" d="M157.53,79.94l-1.22-1.97c.3-1.43,1.2-.72,1.95-.55,1.43.51,2.37,1.61,3.28,2.75l-.05-.07c1.26.53,2.18,2.93,3.95.72,2.2.91,2.84,3.08,3.96,4.87.98,1.57-.47,1.69-1.26,2.22-.29.06-.53,0-.74-.17-.18-.13-.74-.95-.25.15,1.09,2.44,2.32,4.82,3.03,7.42,2.4,4.09,2.14,8.94,3.75,13.26,1.06,2.32.15,4.77.47,7.14.09.63-.24,1.58-.96,1.55-.84-.03-1.5-.9-1.24-1.73.64-2.01.71-3.87-.58-5.85-1.31.99-.5,2.63-1.35,3.6-2.36-1.28-1.68-3.88-2.5-5.83-.66-1.56-.89-3.28-1.56-4.86-.44-1.05-.73-2.14-.82-3.28-.39-4.86-.91-9.72-4.56-13.5-.47-.79-1.13-1.48-1.2-2.46-.42-1.31-.84-2.63-2.1-3.42Z"/>
  <path class="cls-3" d="M182.11,116.25c-1.28,8.78-3.75,17.23-7.38,25.32-.53,1.18-.64,2.67-2.12,3.25,3.8-7.7,5.8-15.97,6.81-24.39.57-4.73-.21-9.63-.43-14.45-.03-.64-.69-1.57-.45-1.87,4.87-5.99-.11-11.34-1.06-16.93-.22-1.29-1.25-2.45-.43-3.85,1.71,1.98,1.67,4.75,3.11,6.86v-.03c.56,1.28,1.11,2.57,1.1,4.01l-.03-.09c.88,1.85,1.18,3.82,1.18,5.85,0,1.63.04,3.25.06,4.88-.29,3.8.6,7.64-.36,11.42Z"/>
  <path class="cls-13" d="M163.74,129.88l1.06-2.94c-.09-5.58.61-11.13.71-16.71.17-.36.41-.68.71-.95,2.83-.15,2.49,2.21,2.89,3.83.64,2.56-.05,5.28.77,7.84.24,6.5-3.11,11.76-6.53,16.71-1.42,2.05-2.14,4.66-4.22,6.26.2-3.59,2.32-6.52,3.33-9.83.43-1.4,1.41-2.64,1.29-4.21Z"/>
  <path class="cls-11" d="M66.68,182.28c-7.37-2.31-14.59-4.97-21.1-9.25-.67-.44-1.47-.66-1.76-1.52.99-.38,1.73-.15,2.17.83.26-.86-1.79-.91-.85-2.08,5.38,2.51,9.94,6.66,15.9,8.03,1.93.44,3.85.95,5.78,1.43,1.15,2.34,3.69,1.7,5.34,1.81,5.35.37,10.64,1.8,16.06,1.14.65-.08,1.39-.19,1.07.96-.35,1.24-1.07,1.41-2.34,1.53-4.88.46-9.32-1.65-14.03-2.12-2.09-.21-4.08-1.25-6.26-.75Z"/>
  <path class="cls-6" d="M50.04,166.91c5.28,2.64,11.05,4.09,16.2,7.18,5.31,3.19,11.69,2.3,17.62,3.09,1.03.14,2.08.21,3.45.35-9.58,3.26-31.45-2.25-40.16-9.97,2.11-1.02,2.94,1.52,4.64,1.16-.13-.62-2.74.14-1.74-1.82Z"/>
  <path class="cls-19" d="M51.98,52.43l-.65,1.21c-1.11.38-1.55,2.08-3.11,1.55,2.34-3.98,5.73-7,9.26-9.84,3.51-2.83,7.14-5.5,10.78-8.16,3.14-2.3,6.44-4.25,10.55-4.11v.02c.39,1.54-2.51,1.99-1.27,3.84-2.22,1.84-5.04,2.45-7.54,3.7-6.47,3.25-12.14,7.68-18.03,11.79Z"/>
  <path class="cls-26" d="M10.56,114.43c-.79,4.36-.41,8.75-.18,13.11.11,2.02.29,3.97-.38,5.9-2.91-1.04-2.82-3.76-3.33-6.1-.31-1.4-.61-2.83-.44-4.29.49-2,.54-4.09,1.29-6.03.44-1.14.83-2.29.91-3.52.2-1.06.55-2.04,1.48-2.7.45-.21.81-.11,1.07.31-.55,1.05-.59,2.16-.42,3.31Z"/>
  <path class="cls-21" d="M169.88,120.96c-1.66-1.49-.92-3.55-1.16-5.34-.31-2.29-.49-4.56-2.05-6.42-1.85-1.53-2.2-3.49-1.62-5.71.44-.68,1-1.18,1.85-1.23,1.97,3.42,2.03,7.43,3.36,11.04l-.39,7.67Z"/>
  <path class="cls-6" d="M13.44,131.34c-2.33-5.25.3-10.7-.62-16l.3-.76c.02-.92.45-.89,1.06-.45l1.08,17.06c-.58.35-1.18.42-1.81.15Z"/>
  <path class="cls-26" d="M28.31,159.16c-4.93-.3-5.06-4.91-7.02-7.86-.43-1.74-2.49-3.03-1.46-5.18,2.02,1.45,3.66,3.23,4.84,5.42-.02,1.03.32,1.92,1.04,2.67.84.86,1.44,1.88,2.01,2.93l-.04-.05c-.15.8,2.17.85.63,2.08Z"/>
  <path class="cls-27" d="M173.91,108.58c-.69.35-1.04-.07-1.09-.63-.42-4.36-1.92-8.43-3.26-12.55.28-.26.61-.4,1-.4,2.91,4.08,2.9,8.89,3.35,13.58Z"/>
  <path class="cls-2" d="M10.25,110.81l-1.2,3.03c.12,1.27-.41,2.04-1.42.89-1.25-1.43.88-11.86,2.55-13.06,1.03-.74,1.33.19,1.55.99-.27.85-.77,1.68-.16,2.59l-.55,1.52c-.29,1.35.58,2.91-.78,4.05Z"/>
  <path class="cls-21" d="M50.04,166.91c.22,1.42,1.94,1.2,2.87,2.95l-5.77-2.3c-.77-.41-1.68-.65-2.04-1.58.86-.77,1.69.53,2.55.04l2.39.88Z"/>
  <path class="cls-23" d="M14.18,114.13l-1.06.45c-.56-2.1-.25-4.1.63-7,1.21,2.74.6,4.66.43,6.54Z"/>
  <path class="cls-17" d="M13.44,131.34c.57-.47,1.19-.39,1.82-.15l.72,4.71c-.34.2-.6.61-1.09.43-1.23-1.45-1.32-3.22-1.44-4.99Z"/>
  <path class="cls-23" d="M10.25,110.81l.78-4.05c.77,1.47.62,2.92-.04,4.37-.24-.11-.49-.21-.73-.32Z"/>
  <path class="cls-1" d="M93,67.68c-.18-.77.15-1.73-.81-2.21-.08-.39-.24-.81.3-1.01l.7-1.2c4.73,4.79,4.18,10.6,3.07,16.46-.17.9-.43,1.82-.7,2.72,0,0,.17.06,0,0,1.74-3.57,1.26-7.47,1.57-11.27.09-1.12-.39-2.5,1.04-3.21l.4-.84c1.78,5.73.31,11.53.23,17.28-.12,9.18-.74,18.35-1.25,27.51-.19,3.28.36,6.67-2.05,9.67-.78.96-1.02,3.02-.41,4.65.25,2.2-1.04,3.61-2.49,4.95-3.08-1.47-1.15-4.38-1.88-6.53.4-4.68.2-9.38.58-14.07.41-5.09.4-10.21.81-15.3.51-6.44.4-12.89.72-19.33-.16-1.31.61-2.64-.04-3.95-.38-1.46.55-2.86.2-4.31Z"/>
  <path class="cls-15" d="M154.96,63.21c-1.77,1.58-3.55,3.15-4.53,5.39l-3.34,3.85-2.1,1.37.28-1.31c7.91-9.89,16.83-18.88,25.37-28.19.23-.25.73-.26,1.11-.38.16.65-.1,1.13-.6,1.51l-.71,1.3c-2.28,2.67-4.73,5.19-7.13,7.75-1.51.96-2.06,2.83-3.58,3.78-2.17,1.09-3.36,3.12-4.78,4.94Z"/>
  <path class="cls-4" d="M118.59,109.36l-.81-.34c3.89-5.52,6.8-11.72,11.66-16.55l-.53,1.94-10.32,14.95Z"/>
  <path class="cls-24" d="M92.06,131.36l3.04-5.13,1.23,1.35c.3,2.73.54,5.43-2.7,6.75l-1.52-.55c-.82-.78-.99-1.59-.06-2.41Z"/>
  <path class="cls-12" d="M115.6,92.36c-.25-.1-.49-.19-.74-.29,1.4-4.2,3.7-7.75,7.44-10.26l.14.22-6.83,10.33Z"/>
  <path class="cls-18" d="M96.52,131.17l-.63,4.11c-.25.39-.61.54-1.07.47l-.37-.15-.33-.22-.5-1.06c1.96-1.83,1.46-4.64,2.7-6.75.62.25,1.13.61,1.22,1.35-.2.82-1.1,1.31-1.04,2.24Z"/>
  <path class="cls-7" d="M100.65,54.96c.1.08.23.14.31.25.89,1.19,2.93,2.49,1.22,3.88-1.03.84-2.35-.95-3.09-2.17.24-.88.87-1.44,1.56-1.95Z"/>
  <path class="cls-28" d="M100.17,135.23c-.88,1.76-1.87,1.65-2.24-.15-.25-1.25.23-2.65.39-3.99l2.1,1.65c-.32.81-.78,1.6-.25,2.49Z"/>
  <path class="cls-12" d="M150.56,48.52c1.51-2.9,3.83-5.08,6.34-7.09-1.31,3.08-3.6,5.29-6.34,7.09Z"/>
  <path class="cls-12" d="M158.23,40.18c1.17-2.07,2.43-4.04,4.69-5.1-.8,2.4-2.39,4.08-4.69,5.1Z"/>
  <path class="cls-16" d="M5.35,105.42l2.33-5.28c.39.54.55,2.4,1.44.3.98-2.34,1.89-4.71,3.18-7.95.04,4.01,1,7.13-.56,10.16-.39-.28-1.13-.91-1.22-.46-.82,3.97-2.25,7.83-2.41,11.93,0,.1.09.2.13.29l.81-.58c.78,1.24-.14,2.24-.46,3.33-.81.38-1.12,1.8-2.42,1.15-2.15-3.29-.34-6.93-.92-10.36.14-.62.31-1.25-.19-1.81.02-.27.12-.51.29-.72Z"/>
  <path class="cls-25" d="M120.73,182.79c.52,1.11.77,2.59,2.6,1.86.32.41.27.76-.14,1.07-3.51,1.56-7.1,2.87-10.92,3.42-2.34.34-4.62.94-6.91,1.51l-2.7.83c-1.26.06-1.95-.45-1.85-1.79.68-2.15,2.7-1.75,4.25-2.25,1.68-.54,3.83.08,4.95-1.92l10.72-2.73Z"/>
  <path class="cls-9" d="M182.11,116.25c.17-3.81-.79-7.65.36-11.42l.86,5.93-.62,4.58-.61.91Z"/>
  <path class="cls-21" d="M166.36,109.95c-.25,5.69.55,11.47-1.56,16.98-.18-.15-.36-.3-.55-.43-.76-1.38-.38-2.9-.51-4.35.04-1.44.06-2.88-.18-4.32-.04-1.24-.09-2.49-.34-3.71-.42-2.07-.45-4.21-1.31-6.19-1.27-2.95-1.13-6.14-1.4-9.26l.03.09c-.55-.56-.31-1.05.14-1.51,2.31.19,2.6,2.2,3.01,3.76.78,3.01,1.75,5.96,2.67,8.93Z"/>
  <path class="cls-1" d="M166.36,109.95c-1.79-2.73-2.78-5.76-3.59-8.9-.36-1.37-.79-2.86-2.13-3.78-1.74-1.19-1.95-3.3-2.86-4.99l.05.09c-1.53-1.09-1.58-3.13-2.84-4.39-.38-.46-.78-.92-1.15-1.39-.59-.75-1.08-1.7-.15-2.35.93-.65,1.92-.4,2.36.85l-.08-.1c.54.49,1.24.75,1.8,1.21,2.93,3.12,5.22,6.62,6.51,10.73.17.87.39,1.73.59,2.6.12,1.37.92,2.66.49,4.1l1.3,5.57-.31.76Z"/>
  <path class="cls-21" d="M69.92,40.04c2.28-1.47,4.74-2.51,7.32-3.26,2.6-2.59,6.27-2.55,9.43-3.74-1.22.5-2.33.94-2.13-1.19,1.16-.89,2.38-1.56,3.92-1.09,1.49.35,2.9-.43,4.35-.32,1.38.1,3.05,0,2.78,2.24-9.1,1.98-17.73,5.34-26.27,8.98-.3-.73-.02-1.23.6-1.62Z"/>
  <path class="cls-12" d="M69.92,40.04l-.6,1.62-6.3,4.21c-2.92,1.07-5.12,3.24-7.64,4.94-1.04.7-1.78,2.1-3.4,1.62,5.33-5.08,11.12-9.48,17.94-12.39Z"/>
  <path class="cls-13" d="M120.46,33.94l-2.18-3.42c1.01-.38,1.25-.92.28-1.61-.82-.59-2.06-.68-2.3-1.95,4.45,1.48,8.15,3.98,10.83,7.89-.49,1.44-1.17.85-1.85.17-.21-.13-.39-.28-.54-.47-.62-1.65-1.96-2.58-3.59-3.83q1.36,3.41-.66,3.23Z"/>
  <path class="cls-27" d="M98.18,67.96c-.56,5.55.57,11.36-3.15,17.25.62-7.91,2.59-15.29-1.84-21.95,3.73-.63,2.65,3.86,4.99,4.7Z"/>
  <path class="cls-10" d="M66.86,184.12c.24.11.48.19.73.28,6.52,2.24,13.15,3.48,20.06,3.02,1.34-.09,2.68-.27,3.95.37-1.22,2.43-3.57,2.01-5.6,2.06-3.52.09-7,.35-10.46,1.02-2.94.26-5.76-.72-8.67-.81-2.09-.98-4.64-.47-6.54-2.03q1.21-1.37,4.5-.7c-1.85-.74-4.5.11-5.39-2.57.19-1.15,1.07-.89,1.82-.89,1.72.14,3.35.67,4.96,1.25.51.18-.17.05.36.14.08.01-.22-.3-.26-.51.03-.34.21-.55.54-.62Z"/>
  <path class="cls-19" d="M66.51,184.71l-4.57-1.61c1.91-.95,3.29.64,4.92,1.02-.11.2-.23.39-.35.59Z"/>
  <path class="cls-12" d="M84.54,31.85c.04,1.63,1.94.42,2.49,1.86l-9.79,3.06c-3.13-2.8,1.5-2.26,1.58-3.68l5.72-1.25Z"/>
  <path class="cls-27" d="M161.19,85.86c0-.23.04-.45.12-.66,4.24,3.84,4.69,8.98,4.85,14.21-.37.11-.71.06-1.01-.18-.62-.71-.86-1.6-1.08-2.49-.69-1.92-1.39-3.89-2.74-5.4-1.7-1.9-1.75-3.61-.14-5.48Z"/>
  <path class="cls-2" d="M6.95,123.49c-.8-1.74-.79-3.57-.52-5.41l2.16-.92-1.64,6.33Z"/>
  <path class="cls-5" d="M56.66,186.85l-4.35-1.45c-4.3-.37-8.01-2.32-11.7-4.33-3.07-2.15-7.05-2.87-9.49-6.02-.74-1.36-2.22-1.67-3.42-2.39-3.04-.68-4.57-3.39-6.86-5.08-3.81-4.02-6.21-9.02-9.42-13.45-1.57-2.7-3.11-5.41-3.5-8.59.23-.79.59-1.55,1.45-1.71.84-.15,1.07.53,1.16,1.22,1.41,4.22,3.24,8.24,5.73,11.95,1.53,1.25,2.44,3,3.65,4.51.87.89,1.38,2.08,2.36,2.87.65,1.07,1.79,1.79,2.18,3.04.09.69.61.97,1.16,1.23,2.98,1.04,5.26,3.23,7.95,4.75,6.63,4.36,13.67,7.8,21.46,9.57l4.42,1.58c1.49,2.07,4.24,1.35,6.23,2.77-1.92.98-3.71-.47-5.44.13l-3.59-.6Z"/>
  <path class="cls-25" d="M5.86,139.46c1.22-.4-.93-3.29,1.87-2.53.08.74.6,1.09,1.21,1.36-.34,1.36.05,2.44,1.22,3.22,0,1.2,1.03,2.28.39,3.55-1.73-1.66-1.61.5-2.26,1.09-1.28-.42-1.09-1.65-1.45-2.59-.28-1.38.07-2.91-.98-4.11Z"/>
</svg>