<?xml version="1.0" encoding="UTF-8"?>
<svg id="_2" data-name=" 2" xmlns="http://www.w3.org/2000/svg" viewBox="0 0 400 200">
  <path d="M11.14,100.44c2.5,4.6,5.68,9.11,6.59,13.92.17.93.91,1.91,2.07,2.68,2.72,2.66,5.83,5.26,9.57,7.14,10.45,5.26,21.79,9.29,33.95,11.83,3.96.5,7.75,1.88,11.76,2.14,1.13,1.27,2.6.72,3.97.68h0c1.71,1.59,3.81.95,5.8.99.2.16.42.2.66.1,6.55,1.67,13.3,2.01,19.92,3.19,6.45,1.14,12.92,1.02,19.41,1.81,3.56.43,7.59,1.48,11.06.32,2.29.85,4.57,1.44,6.85.67,1.49.32,3.01.25,4.53.75,1.33.43,2.88.64,3.44-.58.22-.1.35-.23.4-.41.64.11,1.28.22,1.93.33,1.21,1.67,2.68,1.4,4.21.65.27.05.55.09.82.14,2.57,1.31,4.96.27,7.41.37,6.36.27,18.12.15,17.86.2,1.78.32,3.47.34,5.02-.16,2.14-.03,4.3.86,6.43.54-.09.09,3.67-.61,7.2-.02,1.38.23,2.61.43,3.51-.35,1.98.17,4.09.64,5.91.45,11.69-1.19,23.95-.39,35.73-1.51,6.21-.59,12.8-.83,19.22-1.19,2.52-.14,5.47.19,7.63-.9,7.55-.64,15.09-1.32,22.31-2.65,5.35-.98,10.93-1.64,15.78-3.39.53.03,1.18.2,1.57.07,4.88-1.65,10.73-1.92,15.5-3.71,1.12-.42,2.16-.83,3.62-.45,1.3-.13,2.56-.29,2.3-1.35,1.2,0,2.22-.31,3.25-.63.17-.12.35-.22.54-.31,1.18.02,2.01-.86,3.34-.43.16-.13.06-.18.25-.2,1.17-.39,1.39-1.09,2.45-1.47,1.88-.42,2.16-.05,3.28-.66.17-.09.28-.12.26-.14-.3-.32.36-.07.02.05-6.56,3.46-11.78,4.11-14.92,6.43-18.13,7.65-41.07,10.03-48.05,12.62-55.27,7.27-15.12,3.16-69.28,8.13-.62-.23-1.32-.4-1.67.04-.36.46.1.89.85.92,25.5,1.03,92.53-8.22,121.24-19.04,6.45-2.43,12.56-5.25,18.4-8.26,5.65-2.91,11.79-5.58,14.8-10.26,1.16-.21,1.78-.73,2.38-1.42,2.21-2.55,4.43-5.08,5.66-8.01,3.05-.97,4.54-2.86,6.01-4.77,8.63-3.05,11.01-12.92,7.68-17.58-.45-2.39-3.28-3.88-5.67-5.36-5.81-3.61-11.93-6.95-19.68-8.05-.66-.68-1.66-1.18-2.68-1.29-3.56-.36-6.98-1.43-8.32-1.77-8.99-2.25-39.5-6.96-39.11-6.03-6.1-1.92-11.57-1.36-19.46-2.05-1.45-.31-2.9-.81-4.34-.38-1.07-.39-2-.72-3.33-.8-8.11-.46-16.29-1.84-24.34-1.7-5.29.09-10.8-1.79-15.92-.61-2.2-.86-4.41-.36-6.56-.64-8.08-1.06-16.03-.95-24.03-1.35-6.53-.33-13.07-.76-19.59-.69-8.68.09-17.57-.75-26.24-.61-13.23.21-26.52.23-39.57,1.14-7.55.52-15.44.2-22.85,1.01-21,2.3-12.87-.33-55.66,6.97-6.46,1.1-12.57,2.72-18.23,4.9-2.68,0-3.65,1.22-6.09,2.05-6.31,1.53-10.66,4.69-15.2,7.69-1.4.16-1.63.95-1.93,1.71-1.19.95-2,2.04-2.28,3.33-2.22.13-1.88,1.65-2.46,2.53-2.36,3.51-.55,10.23,3.08,12.71ZM23.11,106.9c-.07.08-.1.16-.09.24-.11-.08-.22-.12-.32-.11-.19-.27.14-.18.42-.13ZM87.87,132.18s-.21-.06-.29-.08c.03-.03.04-.06.06-.09.2.16.59.13.23.17ZM81.97,130.49c.54.11,1.15-.12,1.69,0-.62.22-1.22.35-1.69,0ZM50.27,121.15c.54.77,3.89,1.9,4.61,2.17,1.58.57,3.38.76,4.79,1.63,1.55.82,3.34.64,5.54,1.38-.33-.01-.2.07-.16.09-1.52-.78-4.3-.71-5.65-1.52-2.11-1.1-4.72-1.36-6.88-2.38-1.31-.35-2.27-1.13-3.46-1.62,1.2.24.67.12,1.21.25ZM33.04,114.4c-.89-.84-1.06-.6-2.17-1.39-1.17-.95-2.16-1.81-3.59-2.37.87-.12.06-.06,2.32,1.25,2.07,1.16,1.38,1.19,5.93,3.39-.99-.38-1.32-.3-2.48-.89ZM128.6,141.78c-8.25-1.41-10.12.09-24.14-2.84-3.91.09-12.24-1.39-13.56-.39-.18-.1-.04-.02-.51-.32-3.29-.51-1.82-.84-11.46-1.78-.06-.17-.11-.35-.13-.52-5.41-1.6-11.05-2.53-16.49-4.05-7.11-1.99-14.59-3.19-21.16-6.36-1.35-.65-2.81-1.42-4.5-1.34-4.05-2.99-9.71-4.98-12.41-8.81-1.14-1.14-2.68-2.04-1.14-3.79,1.29.72,1.04,2.3,3.07,2.6,1.96,1.04,2.93,3.03,5.94,3.07,16.33,8.15,10.12,5.29,30.69,12,9.53,3.11,15.95,4.38,23.63,5.45,6.88,1.6,9.11,1.31,13.47,2.78,6.14,1.67,12.48,1.96,18.71,2.95.89.14,1.98.21,2.66-.23,1.79.22,3.49.77,5.26,1.11.08,0,4.25.27,4.99.23,1.75-.11,3.26.41,5.25.31,1.13-.06,2.38.32,3.46.1,2.14,1,4.21.65,6.03.85,2.42.16,4.84.36,7.25.47-.3.12-.57.32-.81.61-.16,0-.32.01-.48.02-.96-.56-1.98-.7-3.07-.43-1.75-.86-2.66-.08-4.23.05-.51-.07-1.02-.14-1.54-.22-1.42.19-2.86-.49-4.29-.37-.28.06-.08.01-.95-.02-1.4.01-1.1.22-2.05.26-1.06-.35-2.05-1.09-3.23-.68-1.29-.38-2.82-.54-4.26-.7ZM71.38,128.2c.14.04.27.08.41.13-.14-.04-.27-.08-.41-.13ZM191.14,143.9c.44-.08,1.54-.2,1.85-.15,1.43.48,4.26.84,4.88.05.15,0,0,0,.53-.02.51.26,1.35.34,1.92,0,.71-.13,1.93-.02,2.7.08-1.44.03-4.76.34-5.76.6-.28.1-.46.25-.58.44-.12,0-.25.01-.37.01-1.36-1.11-2.04-.77-3.59-.32-.75-.05-1.49-.04-2.62.21-1.1.39-1.74.2-3.06,0-.43-.36-.86-.53-1.25-.26-4.71-1.18-10.7.93-15.67.08-2.33-.02-2.92-1.03-6.29-.61-1.13-.07-2.24-.1-3.36-.11-1.13-.21-2.26-.38-3.42-.35-.95-.25-.99-.18-.02-.17,2.75,0,5.57.43,8.29.21,3.99-.76,5.56.99,17.04.48,2.63-.64,4.04,1,8.79-.17ZM206.23,144.6c-.1,0-.17-.16-.76-.41,1.23.09,1.15.03,3.54-.09-.98.11-2.01.3-2.78.49ZM242.63,142.91c-1.34-.07-2.49.3-3.73.45.98-.82,2.22-.97,3.73-.45ZM212.09,143.99c.55-.06,1.11-.05,1.68-.02-.56.02-1.12.03-1.68.02ZM218.11,143.8c.37-.04.75-.04,1.13-.02-.38,0-.75.01-1.13.02ZM221.17,143.9c.71,0,.94.02,1.9-.06-.61.14-1.25.12-1.9.06ZM235.45,143.44c-3.81.05-3.02.04-2.6-.1.82-.36,1.2-.22,1.93-.12.92-.3.24-.05,1.5-.2.82.09,1.68-.06,2.44.37-1.46.15-1.97.04-3.27.06ZM247.63,142.89c-1.38.27-2.84.25-4.32.09,4.49-1.38,4.55-.42,7.94-.5-1.19.17-2.42.25-3.62.41ZM257.77,141.96c-1.8.24-1.14.14-.83-.03.39-.26.28-.21.98-.05.77-.2,1.45-.63,2.47-.26.56-.53,1.47-.53,2.37-.56-.73.22-1.3.6-2.08.77-.92.2-1.95.06-2.9.13ZM345.57,124.71c-2.78,1.1-2.98,1.74-3.68,2.11-1.05.06-2.04.19-2.64.76-1.36.35-3.34,1.38-3.78,1.54-1.47.23-2.79.66-4.15,1.05-.27-.07-.55-.13-.85-.15-9.07,2.17-17.9,4.69-27.35,6.32-5.04.87-6.11.33-10.63,2.57-2.49-.15-4.66.61-7.03.78-2.68.02-1.7-.57-9.77.89-1.95.34-1.68-.51-8.13.48-1.42.26-2.93-.03-4.4-.12.49-.22.28-.14,2.66-.26.71.06,1.43.14,2.11.11,1.44.01,2.51-.88,4.15-.38.56-.08,1.11-.17,1.67-.25.18-.34.48-.52.84-.62,1.72,0,5.46.86,7.5-.75.46-.27.83-.73,1.38-.78,9-.88,16.89-3.52,25.48-5.07,4.01-.72,8.33-1.22,11.53-3.08,3.02-.92,6.69-.85,9.49-2.1-.04,0-.04-.1-.05-.12.04.05.08.1.14.15,9.73-.49,18.53-5.4,23.14-5.28-.99.59-1.74,1.13-3.48,1.07-1.61.08-2.79.72-4.16,1.11ZM358.51,120.22c-1.86-.81.76-1.02,2.23-1.65-.75.98-1.18.85-2.23,1.65ZM370.57,108.37c-1.4.85-3.27,2.58-3.4,3.11-2.29-.16-2.83.82-3.45,1.42-.42.16-.73.43-.94.76-1.01.69-2.25,1.19-3.66,1.55-8.04,2.07-15.08,5.35-23.41,7.05-.57.05-1.12.15-1.65.26.94-.66.88-1.06,1.23-2.45-4.36-.1-5.49,2.93-8.92,3.74.44.29-3.47.61-4.54,1.89-1.35.56-3.29.48-4.16,1.54-7.28.29-7.57,2.88-33.89,6.5-47.58,6.54-47.91,4.71-62.65,5.79-9.12.67-18.53-.13-27.57.59-6.16.49-12.59-.39-18.79-.1-40.79-2.27-35.51-3.1-49.24-4-6.64-.44-13.03-2.6-19.72-3.21-6.22-.57-17.53-3.81-28.51-6.3-14.05-3.18-39.49-12.61-50.44-19.81-.07.01-.15.02-.23.02.05-.02.1-.04.15-.07-.43-1.86-3.14-2.58-4.65-4.26,4.37-7.71,19.95-13.37,31.67-16.22,3.44-.26,7.34-2.19,8.08-1.87.47.07.77-.05.89-.34,1.32.21,1.94-.49,2.76-.92.4.09.76.07,1.02-.23,3.09-1.43,7.58-.7,10.59-2.25,1.05-.37,2.1-.74,3.15-1.1,2.73.52,5.03.17,6.94-.96,24.57-3.7,24.16-3.75,28.53-4.22,40.16-4.32,35.56-3.26,66.14-5.16,5.48-.34,11.18.14,16.55-.56,2.4-.37,5.21.44,7.44-.44,2.18.08,4.51.81,6.48-.05,6.65.72,13.08.09,19.59.13,3.51.02,7.45.77,10.73-.32.07-.07.55-.24,0,0,1.94.3,3.91.8,5.8.67,1.68.04,1.73.26,4.62-.03,1.27-.22,1.33.21,2.42.27,2.25.63,2.81.41,5.26-.02,3.27-.44,1.44.24,9.37.42,1.07.14,2.13.26,3.16.15.77.06,1.26.12,2.08.07,9.3.32,5.65.51,12.93.83,2.02.22,4.05.5,6.08.86,12.88,1.97,25.88,2.84,38.71,5.38,1.24.25,1.62.07,2.1.18,3.53,1.83,16.4,3.91,31.45,13.42,6.73,4.25,10.41,14.32,3.89,18.29ZM292.72,67.95c-.07-.04-.14-.07-.22-.11,1.07.1,2.19.16,3.51.45-1.33-.17-2.32-.37-3.29-.35ZM306.55,67.18c-.67-.35-1.55-.38,1.8.04-.46.03-.92.14-1.39.32-.12-.12-.25-.25-.41-.37ZM301.91,66.57c-.08-.03-.19-.05.73,0-.24,0-.49,0-.73,0ZM383.81,100.45c-1.41.51-2.15,2.53-2.45,2.31-.8-.57,2.01-7.71-11.79-16.8-10.31-6.79-22.56-10.72-35.8-13.03-8.53-1.5-11.27-2.67-19.02-3.74-.85-.16-1.7-.32-2.55-.48-.04-.09-.09-.18-.16-.26-1.77-1.29-3.04-1.1-.86-.94,1.47.05,3.83.41,4.52-.04.23-.12.04-.18.35.27,4.32,1.99,11.35,1.61,13.75,2.37,5.53,1.74,11.37,1.63,16.99,2.95,10.69,2.5,29.28,5.54,37.07,12.69.18.16.41.28.67.34,2.16,2.81,3.33,5.65,2.44,8.56-.15,4.71-2.08,3.58-3.15,5.8ZM34.1,75.27c.83-.29,1.73-.63,1.74-1.37,1.11-.28.56-.3,5.04-1.62,23.54-5.1,21.9-4.97,24.1-4.56,3.74.17,16.45-2.63,37.28-4.22,12.75-.98,25.79-1.1,38.54-1.97,19.73-1.34,39.88-.48,59.87-.45,18.81.02,42.94,1.95,46.05,1.67,2.58-.41,1.75-.44,32.39,2.75,1.23.41,2.44.86,3.69,1.21-.51-.02-1.01.03-1.49.21-5.32.4-10.89-1.1-16.19-.58-14.93-.32-17.79-1.15-23.18-.25-23.85-1.15-29.04.14-28.47-.09-2.12-.34-4.24-.63-6.1.09-1.05-.28-2-.22-2.87.11-3.67.05-7.51-.54-10.99.23-.79-.05-1.64-.23-2.35-.13-7.63,1.06-15.77.5-23.58,1.16-8.86.75-36.78,2.18-45.41,3.45-12,1.77-24.31,2.93-36.01,5.26-1.6.32-3.92-.33-4.77,1.1-1.67.29-3.34.58-5.01.87-1.5-.45-2.51.08-3.61.46-2.83,1.51-6.68,1.68-9.95,2.61-.07.1-.2.15-.36.17.12-.06.24-.11.36-.17-2.64-.49-4.05.85-6.01,1.38-.3.05-.6.1-.89.17-14.8,3.47-27.8,8.53-36.8,17.23-.72-.63-1.42-1.24-2.1-1.85-2.26-3.78-1.55-1.04-2.65-5.1-.09-1.4.13-1.52-.14-2.4,1.97-2.13,2.53-4.66,3.08-7.19,2.18-.26,4.97-3.99,16.78-8.18Z"/>
  <path d="M335.35,120.04c-.07-.02-.06-.01-.07.05.11,0,.09,0,.07-.05Z"/>
  <path d="M338.18,119.03c.76-.56,1.52-1.12,2.43-1.79-2.03-.47-2.46.55-3.4.96-1.02.42-2.33.69-1.86,1.84,1.61.4,2.17-.36,2.83-1.01Z"/>
</svg>