<?xml version="1.0" encoding="UTF-8"?>
<svg id="_2" data-name=" 2" xmlns="http://www.w3.org/2000/svg" viewBox="0 0 400 200">
  <path d="M394.42,109.4c-1.32-6.94-3.37-13.76-3.01-20.96.07-1.39-.42-2.88-1.39-4.07-2.06-4.06-4.54-8.03-7.85-10.97-9.24-8.2-19.71-14.59-31.42-18.79-3.9-.88-7.39-3.07-11.4-3.58-.81-1.93-2.45-1.16-3.86-1.16h0c-1.32-2.42-3.63-1.54-5.64-1.67-.16-.25-.38-.31-.65-.18-6.23-2.71-13-3.46-19.43-5.43-6.26-1.92-12.88-1.96-19.28-3.35-3.51-.76-7.33-2.46-11.17-.85-2.1-1.35-4.27-2.31-6.8-1.23-1.43-.53-3-.48-4.42-1.27-1.24-.69-2.76-1.05-3.65.75-.24.14-.42.33-.52.59-.62-.19-1.25-.37-1.87-.56-.79-2.53-2.35-2.18-4.11-1.12-.27-.08-.53-.16-.8-.23-2.27-2.03-4.98-.56-7.45-.8-6.4-.62-18.4-.84-18.12-.9-1.72-.54-3.44-.62-5.15.07-2.18-.03-4.15-1.43-6.4-1.02.11-.13-3.9.78-7.34-.21-1.35-.39-2.55-.73-3.66.4-1.97-.32-3.99-1.09-5.9-.87-12.22,1.37-24.48-.24-36.77,1.03-6.47.67-13.25.8-19.88,1.12-2.61.13-5.52-.47-8.01,1.08-7.85.7-15.71,1.46-23.41,3.19-5.71,1.28-11.56,2.07-16.97,4.51-.53-.06-1.15-.33-1.58-.15-5.41,2.29-11.43,2.5-16.76,5.01-1.25.59-2.42,1.16-3.8.55-1.35.15-2.68.34-2.7,1.94-1.22-.05-2.35.39-3.47.82-.2.18-.41.32-.63.44-1.2-.07-2.27,1.22-3.51.53-.2.19-.11.26-.31.29-1.29.53-1.71,1.58-2.88,2.1-2.02.56-2.21,0-3.51.88-.2.13-.32.17-.3.2.22.49-.39.09,0-.07,7.6-4.94,13.08-5.73,16.9-9.07,20.48-10.79,44.46-13.55,52.26-17.16,58.19-8.95,16.23-4.19,72.68-9.76.57.36,1.24.64,1.71,0,.49-.67.13-1.33-.62-1.4-25.68-2.4-96.37,9.11-128.47,24.25-7.21,3.4-14.18,7.4-20.92,11.68-6.52,4.14-13.49,7.91-17.79,14.79-1.24.27-2,1.02-2.8,2.04-2.93,3.73-5.86,7.43-7.89,11.75-3.36,1.34-5.38,4.11-7.38,6.9-9.59,4.25-14.64,18.88-12.49,25.94-.17,3.58,2.31,5.89,4.34,8.19,4.95,5.57,10.29,10.76,17.89,12.67.49,1.03,1.38,1.82,2.38,2.01,3.53.65,6.73,2.37,8,2.91,8.56,3.65,38.36,11.71,38.22,10.31,5.7,3.06,11.41,2.41,19.26,3.72,1.39.52,2.74,1.3,4.31.71.98.62,1.85,1.14,3.18,1.3,8.13.96,16.09,3.29,24.33,3.36,5.41.05,10.52,3.03,16.05,1.45,2.01,1.36,4.39.69,6.51,1.18,7.94,1.86,16.06,1.97,24.1,2.84,6.56.71,13.1,1.58,19.76,1.7,8.86.16,17.69,1.71,26.54,1.8,13.52.14,27.05.56,40.58-.34,7.83-.52,15.77.23,23.52-.73,21.99-2.72,13.02.92,58.51-8.5,6.87-1.42,13.51-3.63,19.85-6.68,2.73.1,4.04-1.69,6.74-2.85,6.83-2.06,12.1-6.62,17.52-10.94,1.47-.18,1.91-1.37,2.42-2.49,1.46-1.37,2.57-2.97,3.2-4.89,2.29-.12,2.35-2.4,3.18-3.68,3.34-5.16,3.28-15.23.23-19.05ZM383.94,99.38c.09-.11.14-.23.16-.36.09.12.19.18.3.18.13.4-.19.27-.46.18ZM324.73,59.5s.2.1.28.13c-.03.04-.06.09-.09.14-.16-.25-.57-.21-.19-.27ZM330.3,62.22c-.52-.19-1.21.14-1.72-.07.69-.31,1.33-.48,1.72.07ZM360.08,77.21c-.34-1.16-3.46-2.96-4.12-3.39-1.46-.9-3.24-1.25-4.44-2.59-1.36-1.27-3.23-1.07-5.27-2.24.33.03.22-.1.19-.13,1.34,1.21,4.19,1.21,5.35,2.45,1.86,1.71,4.45,2.19,6.37,3.78,1.24.57,2.01,1.76,3.09,2.54-1.16-.39-.65-.19-1.17-.41ZM375.83,87.85c.69,1.28.92.93,1.84,2.14.94,1.46,1.72,2.77,3.03,3.65-.91.15-.08.08-2.03-1.95-1.8-1.8-1.09-1.82-5.13-5.25.91.61,1.26.49,2.29,1.41ZM285.82,43.8c8.02,2.38,10.32.2,23.82,5.05,4,0,12.08,2.49,13.7,1.04.16.16.03.03.43.5,3.21.88,1.63,1.32,11.19,3.05.01.26.02.52,0,.78,5.08,2.56,10.57,4.14,15.71,6.6,6.71,3.21,14,5.25,19.85,10.19,1.2,1.02,2.48,2.21,4.23,2.14,3.33,4.6,8.56,7.75,10.29,13.56.86,1.73,2.18,3.14.15,5.69-1.12-1.12-.44-3.46-2.43-3.99-1.72-1.62-2.18-4.62-5.24-4.77-14.46-12.7-8.9-8.22-28.05-18.92-8.88-4.96-15.07-7.07-22.61-8.92-6.57-2.61-8.93-2.27-12.97-4.6-5.8-2.69-12.18-3.34-18.26-5.04-.87-.24-1.96-.38-2.76.26-1.76-.4-3.35-1.27-5.05-1.83-.08-.01-4.26-.55-5.02-.51-1.8.1-3.21-.72-5.27-.64-1.17.05-2.34-.55-3.5-.26-1.91-1.57-4.12-1.11-5.91-1.47-2.42-.33-4.83-.7-7.25-.95.34-.17.67-.46.99-.88.17,0,.33,0,.5-.01.83.87,1.83,1.1,3.01.74,1.55,1.34,2.68.21,4.31.07.5.12,1.01.25,1.51.37,1.5-.23,2.78.83,4.27.69.31-.08.08-.02.96.07,1.43.03,1.18-.29,2.16-.32.98.56,1.8,1.7,3.11,1.13,1.22.61,2.73.9,4.15,1.2ZM340.46,65.99c-.13-.06-.26-.14-.38-.21.13.06.26.13.38.21ZM222.73,38.51c-.47.1-1.62.24-1.92.16-1.33-.77-4.11-1.4-4.96-.24-.16,0,0,0-.54.02-.45-.41-1.29-.55-1.95-.08-.75.17-1.97-.04-2.72-.21,1.48,0,4.94-.34,6.02-.7.31-.14.53-.36.71-.63.13,0,.25,0,.38,0,1.08,1.71,1.88,1.21,3.57.61.75.11,1.51.11,2.72-.22,1.23-.54,1.82-.24,3.12.11.35.55.73.82,1.21.43,4.48,1.93,11.14-1.02,15.97.41,2.37.11,2.7,1.63,6.24,1.12,1.13.15,2.26.23,3.39.28,1.09.36,2.2.64,3.39.64.9.41.97.3-.02.26-2.8-.08-5.55-.84-8.38-.6-4.27,1-5.4-1.67-17.21-1.3-2.85.86-3.85-1.63-9-.04ZM207.56,36.95c.1-.01.13.25.67.63-1.23-.18-1.17-.08-3.62,0,1.03-.13,2.13-.38,2.96-.64ZM170.05,38.22c1.35.15,2.62-.36,3.92-.55-1.21,1.19-2.52,1.37-3.92.55ZM201.43,37.66c-.58.07-1.15.03-1.72-.02.57-.01,1.15,0,1.72.02ZM195.25,37.74c-.39.05-.77.04-1.16,0,.39,0,.77,0,1.16,0ZM192.16,37.49c-.72-.04-.96-.06-1.95.02.66-.2,1.31-.13,1.95-.02ZM177.5,37.68c3.89.06,3.08.04,2.62.24-.93.5-1.28.29-2,.12-1.01.42-.26.06-1.58.25-.81-.16-1.72.03-2.38-.63,1.53-.18,2.01,0,3.34.03ZM164.95,38.1c1.48-.36,2.96-.28,4.42.01-4.94,1.9-4.74.47-8.22.47,1.26-.21,2.53-.29,3.79-.49ZM154.39,39.14c1.9-.29,1.19-.16.84.07-.47.37-.34.31-1.01.05-.84.27-1.64.89-2.58.3-.71.78-1.64.75-2.56.75.8-.3,1.49-.86,2.32-1.08.99-.26,2-.02,2.99-.1ZM60.44,61.85c3.12-1.54,3.5-2.49,4.31-3.02,1.08-.06,2.13-.21,2.89-1.05,1.48-.48,3.77-1.94,4.26-2.16,1.55-.29,3.02-.89,4.5-1.43.25.12.52.21.82.25,9.81-2.93,19.46-6.38,29.52-8.49,5.36-1.13,6.31-.28,11.5-3.47,2.5.31,4.9-.75,7.36-.93,2.73.07,1.58.91,10.18-1,2.08-.45,1.57.82,8.4-.45,1.52-.35,2.97.15,4.45.33-.55.31-.32.2-2.78.3-.71-.11-1.42-.26-2.12-.24-1.46-.06-2.79,1.23-4.33.43-.59.11-1.18.21-1.77.32-.27.51-.63.76-1.02.9-1.75-.06-5.33-1.47-7.83.86-.54.39-1.04,1.06-1.61,1.12-9.39,1.01-18.13,4.67-27.28,6.68-4.27.94-8.8,1.53-12.56,4.2-3.31,1.26-7.04,1.05-10.22,2.8.04,0,.02.15.01.19-.03-.08-.05-.15-.1-.23-10.03.41-20.3,7.41-24.96,7.08,1.16-.85,2.07-1.63,3.82-1.47,1.66-.06,3.03-.98,4.53-1.52ZM46.08,68.1c1.68,1.27-1.04,1.49-2.7,2.38,1.03-1.44,1.43-1.22,2.7-2.38ZM30.65,85.36c1.65-1.22,4.01-3.74,4.29-4.51,2.29.32,3.09-1.12,3.89-2.01.47-.23.86-.62,1.16-1.1,1.21-.99,2.6-1.7,4.14-2.19,8.73-2.81,16.77-7.46,25.71-9.72.6-.06,1.18-.18,1.75-.33-1.13.95-1.18,1.55-1.9,3.6,4.42.29,6.37-4.17,10.07-5.26-.37-.44,3.69-.79,5.12-2.66,1.52-.78,3.48-.6,4.64-2.15,7.49-.19,8.47-4.03,36.23-8.53,50.17-8.12,50.02-5.38,65.31-6.49,9.46-.69,18.82.82,28.22.07,6.4-.52,12.71,1.01,19.1.78,40.92,4.77,35.33,5.82,49.06,7.63,6.65.87,12.58,4.32,19.22,5.45,6.18,1.06,16.83,6.27,27.35,10.35,13.46,5.22,36.85,20.14,46.08,31.24.08-.02.16-.02.24-.02-.06.04-.12.06-.17.1-.05,2.78,2.51,3.95,3.6,6.51-6.49,11.35-23.86,19.25-36.55,23.1-3.57.27-8.05,3.01-8.73,2.52-.46-.11-.79.04-.99.48-1.29-.36-2.1.66-3.06,1.27-.38-.15-.76-.12-1.1.31-3.52,2.02-7.9.79-11.38,2.99-1.16.51-2.33,1.03-3.49,1.54-2.65-.87-5.08-.42-7.32,1.19-25.99,4.67-25.59,4.77-30.16,5.32-42.03,5.07-37.07,3.64-68.7,5.44-5.67.32-11.34-.58-17,.27-2.54.47-5.19-.84-7.69.41-2.2-.2-4.38-1.36-6.61-.15-6.58-1.3-13.29-.58-19.91-.85-3.57-.15-7.38-1.4-11,.11-.1.11-.62.35,0,0-1.9-.52-3.77-1.33-5.73-1.19-1.69-.12-1.69-.45-4.71-.12-1.35.29-1.3-.35-2.39-.48-2.12-1.02-2.76-.7-5.36-.15-3.44.54-1.4-.4-9.43-.94-1.05-.24-2.1-.45-3.18-.34-.77-.12-1.25-.23-2.1-.17-9.38-.79-5.62-.95-12.94-1.68-2-.4-3.99-.88-5.95-1.49-12.59-3.37-25.59-5.11-37.98-9.34-1.2-.41-1.63-.16-2.09-.34-3.11-2.84-15.66-6.38-28.46-21.07-5.72-6.56-6.79-21.69.9-27.39ZM99.16,148.23c.06.06.13.11.2.16-1.06-.19-2.18-.31-3.45-.79,1.31.29,2.26.64,3.26.63ZM84.89,148.91c.58.55,1.48.61-1.82-.13.47-.04.97-.18,1.5-.44.09.19.19.37.32.56ZM89.45,149.99c.08.05.18.08-.74-.04.25,0,.5,0,.74.04ZM15.07,96.7c1.57-.71,2.86-3.7,3.11-3.36.67.88-4.09,11.42,7.54,25.43,8.7,10.47,20.12,16.75,32.98,20.63,8.28,2.53,10.77,4.37,18.37,6.22.82.27,1.64.54,2.47.8.02.13.05.27.1.4,1.45,1.98,2.8,1.74.62,1.44-1.49-.12-3.79-.74-4.61-.09-.26.17-.09.26-.28-.41-3.87-3.12-11.12-2.79-13.37-4-5.17-2.78-11.14-2.82-16.51-4.98-10.22-4.1-28.34-9.26-34.36-20.18-.14-.25-.34-.43-.59-.53-1.46-4.26-1.89-8.53-.22-12.84,1.4-7.02,3.07-5.26,4.75-8.54ZM364.36,146.14c-.92.41-1.93.88-2.13,1.99-1.21.37-.65.43-5.56,2.24-25.32,6.8-23.61,6.65-25.74,5.98-3.76-.37-17.45,3.35-39.06,5.03-13.24,1.03-26.54.77-39.76,1.62-20.43,1.32-40.73-.65-61.06-1.36-19.14-.67-43.19-4.37-46.43-4.06-2.73.52-1.9.6-32.24-5.2-1.14-.65-2.25-1.36-3.44-1.93.51.04,1.03,0,1.57-.26,5.52-.42,10.79,2.01,16.32,1.42,15.11.99,17.81,2.32,23.52,1.16,23.97,2.52,29.6.79,28.96,1.1,2.07.58,4.14,1.09,6.23.08.99.45,1.98.4,2.95-.07,3.75.05,7.5,1.05,11.25.03.79.1,1.61.39,2.36.27,8.05-1.32,16.18-.21,24.31-.93,9.22-.82,38.02-1.99,47.14-3.6,12.68-2.23,25.52-3.54,38.05-6.61,1.72-.42,3.91.63,5.14-1.48,1.78-.38,3.55-.75,5.33-1.13,1.4.73,2.58-.04,3.8-.56,3.29-2.16,7.24-2.28,10.82-3.55.1-.15.25-.21.41-.24-.14.08-.28.16-.41.24,2.56.82,4.35-1.12,6.48-1.85.32-.06.64-.13.95-.23,15.98-4.67,30.57-11.77,42.04-24.43.57.97,1.11,1.9,1.65,2.82,1.3,5.71,1.31,1.6,1.35,7.69-.28,2.09-.53,2.26-.49,3.59-2.57,3.1-3.81,6.86-5.05,10.61-2.29.32-6.12,5.78-19.26,11.62Z"/>
  <path d="M69.6,69.16c.06.03.06.02.09-.06-.11,0-.09,0-.09.06Z"/>
  <path d="M66.45,70.57c-.92.81-1.85,1.61-2.95,2.58,1.94.77,2.65-.74,3.72-1.31,1.15-.58,2.55-.95,2.39-2.68-1.54-.66-2.31.46-3.15,1.41Z"/>
</svg>