<?xml version="1.0" encoding="UTF-8"?>
<svg id="_2" data-name=" 2" xmlns="http://www.w3.org/2000/svg" viewBox="0 0 90.66 90.66">
  <defs>
    <style>
      .cls-1 {
        fill: #3f3f3f;
      }

      .cls-2 {
        fill: #292929;
      }

      .cls-3 {
        fill: #393939;
      }

      .cls-4 {
        fill: #868686;
      }

      .cls-5 {
        fill: #2c2c2c;
      }

      .cls-6 {
        fill: #3e3e3e;
      }

      .cls-7 {
        fill: #212121;
      }

      .cls-8 {
        fill: #272727;
      }

      .cls-9 {
        fill: #fff;
      }

      .cls-10 {
        fill: #343434;
      }

      .cls-11 {
        fill: #bababa;
      }

      .cls-12 {
        fill: #2e2e2e;
      }

      .cls-13 {
        fill: #252525;
      }

      .cls-14 {
        fill: #333;
      }

      .cls-15 {
        fill: #898989;
      }
    </style>
  </defs>
  <path class="cls-7" d="M80.19,43.95c-.38,10.22-7,17.13-11.78,22.11-5.71,5.95-14.1,14.7-26.33,14.88-17.53.26-28.48-17.31-30.55-20.63-1.9-3.04-12.44-19.95-5.98-32.85,9.71-19.38,53.13-20.38,68.17-2.11,3.29,4,6.76,10.79,6.47,18.61Z"/>
  <g>
    <g>
      <path class="cls-7" d="M76.35,66.05s.05-.09.08-.14c-.12-.09-.26-.12-.42-.08l.34.22Z"/>
      <path class="cls-7" d="M6.28,20.45c-.23.39-.45.79-.67,1.19-2.36,3.71-3.43,8.25-4.35,12.88,0,.03,0,.05-.02.08-.05.6,0,1.16.33,1.63-.03.44-.05.88-.08,1.32-.96,6.68.87,12.53,2.89,18.32.32.57.59,1.16.54,1.93.62,1.09.91,2.37,1.06,3.72.08.28.17.55.3.8.66,1.32,1.66,2.24,2.25,3.62.33.33.81.47.82,1.22.5.94.98,1.9,1.65,2.65,2.1,2.64,4.2,5.28,6.64,7.31.52.79,1.2,1.25,1.89,1.66.86,1.31,2.27,1.48,3.14,2.81,1.13.25,1.31,1.6,1.68,2.72.36.49.8.74,1.28.88.97.07,1.9.34,2.66,1.25,1.01.51,2.06.83,3.13.96.9-.11,1.73.21,2.53.73,2.96.43,5.9,1.23,8.91,1.08.01,0,.03,0,.05,0l-.06-.02c3.46.55,6.9.08,10.34-.4,2.9-.41,5.62-1.81,8.42-2.87,4.27-1.63,8.43-3.6,12.46-6.15,5.53-3.5,9.7-9.03,12.63-16.25,2.55-6.29,3.08-13.17,2.6-20.29-.22-3.27-.56-6.47-1.32-9.57-1.3-5.3-3.17-10.15-5.89-14.39-.52-.82-1.06-1.62-1.6-2.4-.03-.05-.06-.09-.1-.13-.56-.8-1.13-1.59-1.74-2.33-.03-.03-.05-.06-.08-.1-1.44-1.78-3.01-3.35-4.79-4.56-.51-.16-1.01-.36-1.49-.6-.66-.33-1.29-.74-1.89-1.27-.18-.15-.35-.32-.52-.5-.43-.35-.87-.63-1.35-.86-1.16-.26-2.18-1.04-3.23-1.69-.28-.17-.57-.3-.88-.39-.29-.02-.58-.05-.87-.08-.71-.08-1.42-.19-2.13-.31-.02,0-.03,0-.04,0-2.87-.51-5.7-1.31-8.59-1.67-1.08-.14-2.16-.21-3.25-.23-1.33-.04-2.66,0-3.98.06-2.09.11-4.18.27-6.27.34-.59.02-1.17.03-1.76.03,0,0-.02,0-.02,0-.27,0-.54,0-.8-.01-3.41.27-6.74,1.24-10.08,2.09-3.67.94-7.1,2.42-10.24,4.58-.07.05-.13.09-.19.13-2.1,1.47-4.07,3.25-5.89,5.37-.01.01-.02.02-.03.03-1.42,1.67-2.76,3.55-3.99,5.67ZM79.15,60.31c.3.53.68.31,1.04.22-.19.89-.68,1.45-1.16,2.03l-1.32,2.01c-.35.56-.69,1.13-1.04,1.69-.92,1.05-1.35,3.09-2.95,2.78.76-1.07,1.52-2.14,2.28-3.21l1.04-1.65c.39-.72.79-1.43,1.19-2.14.22-.66.4-1.36.91-1.74ZM65.23,72.16c.84-.87,1.68-1.75,2.52-2.62.45-.5.91-.99,1.37-1.5.35-.56.69-1.12,1.04-1.68.24-.18.48-.35.72-.54l2.09-2.83c.52,1.91-.7,2.41-1.42,3.3-.59.73-1.18,1.44-1.79,2.14-.44.5-.9.97-1.33,1.48-.62.71-1.21,1.44-1.82,2.17-.17.69-.64.89-1.05,1.21-1.29,1.51-2.61,2.95-4.78,3.31.96-1.64,1.89-2.44,2.93-3.07.51-.46,1.02-.92,1.53-1.37ZM85.61,40.54c.1.66.35,1.31.08,2-.26-.39-.37-1-.85-1.06,0-.62,0-3.16.02-4.12.75,1.07.9,2.05.76,3.18ZM66.8,16.04c1.19.53,2.37,1.05,3.39,2.12l2.21,1.48c.83,1.2,1.66,2.4,2.5,3.6.11-.03.23-.08.34-.13.3.53.6,1.07.9,1.6.59.4.78,1.23,1.08,1.92.82.84,1.01,2.09,1.27,3.68-.74-.66-1.14-1.36-1.42-2.2-.28-.51-.56-1.02-.84-1.52-.54-.78-1.07-1.55-1.62-2.33-1.4-2.02-3.11-3.51-4.73-5.15l-3.73-2.68c-.38-.15-1.1-.34-.78-.9.39-.67.99.08,1.44.5ZM64.35,15.14c-1.04.17-1.52-.31-2.16-.99.86-.36,1.38.05,2.16.99ZM16.01,20.45c10.77-5.57,22-6.39,33.31-5.21,6.95.72,13.61,3.28,19.59,8.48,5.28,4.6,8.9,10.82,9.83,19.58-2.62,8.13-6.85,14.49-11.74,20.13-8.8,8.91-18.68,13.71-29.55,14.68-.13.03-.26.05-.39.07-2.09.27-4.03-.89-6.05-1.35l-2.71-1.15c-1.15-.5-2.23-1.23-3.29-2.02-10.43-10.11-16.98-23.44-18.11-41.28,1.32-6.45,4.92-9.77,9.1-11.93Z"/>
      <polygon class="cls-7" points="66.62 16.14 66.61 16.12 66.6 16.15 66.62 16.14"/>
    </g>
    <path class="cls-10" d="M28.35,86.1l-.83.15-.52-.28c-.25-.83-1-.58-1.35-1.19,1.14-.49,1.97.23,2.7,1.31Z"/>
    <path class="cls-13" d="M8.51,26.5c-1.04,1.64-2.03,3.42-1.6,5.87,1.32-6.45,4.92-9.77,9.1-11.93,10.77-5.57,22-6.39,33.31-5.21,6.95.72,13.61,3.28,19.59,8.48,5.28,4.6,8.9,10.82,9.83,19.58.88-.93.62-2.32.42-3.34-.57-2.87-1.12-5.79-2.55-8.18-2.14-3.57-4.31-7.1-6.69-10.38,4.64,2.16,6.96,7.77,9.77,13.61.22-5.56-1.94-10.78-4.45-11.89.3.53.6,1.07.9,1.6.59.4.78,1.23,1.08,1.92.82.84,1.01,2.09,1.27,3.68-.74-.66-1.14-1.36-1.42-2.2-.28-.51-.56-1.02-.84-1.52-.54-.78-1.07-1.55-1.62-2.33-1.4-2.02-3.11-3.51-4.73-5.15l-3.73-2.68c-.38-.15-1.1-.34-.78-.9.39-.67.99.08,1.44.5,1.19.53,2.37,1.05,3.39,2.12l2.21,1.48c-1.38-2.83-3.65-4.57-5.62-5.83-4.61-2.95-9.69-4.08-14.89-3.77,2.14.72,4.22,1.49,5.49,4.17-.02.02-.14.18-.26.18-.29,0-.59-.02-.86-.12-4.38-1.64-8.74-1.93-13.3-1.23-8.26,1.27-16.59,1.52-24.58,5.34-3.77,1.8-7.23,3.95-9.86,8.13ZM64.35,15.14c-1.04.17-1.52-.31-2.16-.99.86-.36,1.38.05,2.16.99Z"/>
    <path class="cls-3" d="M5.56,22.53c1.87-6.19,5.34-10.3,9.52-13.21,7.53-5.23,15.73-6.76,24.01-7.59,3.6-.36,7.2-.85,10.81-.16-.7,1.5-1.83.83-2.75.89-3.34.22-6.69.3-10.03.64-4.63.94-9.26,1.83-13.8,3.44-6.01,2.14-11.28,6.05-15.42,12.58-.75,1.18-1.57,2.27-2.36,3.41Z"/>
    <path class="cls-8" d="M75.93,60.33c-.48,6.98-14.41,20.19-22.11,20.87,1.37-2.76,3.55-3.63,5.44-5.08,3.36-2.57,6.58-5.43,9.52-8.85.37-.43.9-.61,1.36-.9-.35.56-.69,1.13-1.04,1.68-.46.5-.91,1-1.37,1.5-.84.87-1.68,1.74-2.52,2.62-.51.46-1.02.92-1.53,1.37-1.04.63-1.97,1.44-2.93,3.07,2.17-.36,3.49-1.79,4.78-3.31.4-.32.87-.53,1.05-1.21.61-.72,1.2-1.46,1.82-2.17.44-.5.9-.97,1.33-1.48.61-.7,1.21-1.41,1.79-2.14.72-.89,1.94-1.39,1.42-3.3q1.27-1.92,2.97-2.67Z"/>
    <path class="cls-6" d="M36.84,77.62c11-.91,20.85-6.48,30.16-14.19-2.61,4.14-6.05,6.65-9.61,8.77-3.24,1.93-6.57,3.65-10.07,4.6-2.88.78-5.75,1.59-8.7,1.6-.65,0-1.46.61-1.78-.79Z"/>
    <path class="cls-14" d="M85.19,49.65c.17,2.56-1.04,4.49-1.72,6.62-1.87,5.83-9.48,16.33-13.71,19.12,1.07-2.48,2.08-4.91,3.96-6.34,1.6.31,2.03-1.74,2.96-2.78.35-.57.7-1.13,1.04-1.69l1.32-2.01c.48-.58.97-1.14,1.16-2.03,2.16-3.2,3.65-6.98,5-10.88Z"/>
    <path class="cls-5" d="M37.13,3.1c3.16-1.17,6.42-.59,9.62-1.01,1.06-.14,2.16.24,3.16-.52,5.05.06,10.04.68,14.76,3.42-3.92.34-7.66-1.39-11.52-1.85-4.64-.56-9.26.04-13.89.13-.71.01-1.44.34-2.13-.16Z"/>
    <path class="cls-12" d="M36.84,77.62c3.16,1.23,6.17-.46,9.25-.85.42-.05.82-.35,1.23.03-5.44,2.18-10.87,3.6-16.31.02l5.83.79Z"/>
    <path class="cls-2" d="M81.97,32.43c.73,3.12,1.49,6.26.85,9.62-.11.61.1,1.64-.65,1.56-.69-.07-.58-.97-.51-1.66.36-3.14.21-6.29.3-9.52Z"/>
    <path class="cls-10" d="M24.56,84.14c-1.33-.25-1.41-1.79-1.71-3.11,1.49.08,1.71,1.48,1.71,3.11Z"/>
    <path class="cls-5" d="M69.61,7.66c1.41.25,2.54,1.31,3.64,2.46-1.43-.21-2.71-.83-3.64-2.46Z"/>
    <path class="cls-12" d="M25.02,73.66c1.19.38,2.31.99,3.29,2.02-1.35.12-2.43-.6-3.29-2.02Z"/>
    <path class="cls-5" d="M65.24,5.29c1.22-.06,2.26.57,3.18,1.63-1.28.26-2.22-.7-3.18-1.63Z"/>
    <path class="cls-1" d="M9.51,55.73c.87.76.95,2.07,1.34,3.6-.79-.66-1.19-1.33-1.49-2.15.23-.45-.17-1.02.15-1.45Z"/>
    <path class="cls-15" d="M76.01,65.84c.16-.04.3-.01.42.08-.03.05-.05.09-.07.13l-.35-.21Z"/>
    <path class="cls-10" d="M32.18,87.65l-.87-.6c.95-.5,1.83-.47,2.61.55l-1.74.05Z"/>
    <polygon class="cls-11" points="66.61 16.12 66.62 16.14 66.6 16.15 66.61 16.12"/>
    <polygon class="cls-4" points="66.61 16.12 66.62 16.14 66.6 16.15 66.61 16.12"/>
  </g>
  <g>
    <path class="cls-9" d="M27.43,59.56h35.79c1.98,0,3.58-1.61,3.58-3.58v-17.89l-17.79,11.87c-2.24,1.49-5.13,1.49-7.37,0l-17.79-11.87v17.89c0,1.98,1.61,3.58,3.58,3.58Z"/>
    <path class="cls-9" d="M63.22,29.09H27.43c-1.98,0-3.58,1.61-3.58,3.58v1.74l19.49,12.99c1.21.81,2.77.81,3.97,0l19.49-12.99v-1.74c0-1.98-1.61-3.59-3.59-3.59Z"/>
  </g>
</svg>