<?xml version="1.0" encoding="UTF-8"?>
<svg id="_2" data-name=" 2" xmlns="http://www.w3.org/2000/svg" viewBox="0 0 400 47.03">
  <defs>
    <style>
      .cls-1 {
        fill: #2f2f2f;
      }

      .cls-2 {
        fill: #292929;
      }

      .cls-3 {
        fill: #272727;
      }

      .cls-4 {
        fill: #242424;
      }

      .cls-5 {
        fill: #2a2a2a;
      }
    </style>
  </defs>
  <path class="cls-4" d="M305.81,12.43l.86-.65c1.95-1.16,3.69-1.7,4.12,1.45-.84,3.57-4.42,4.21-6.69,6.26-1.32,1.19-2.81,2.13-4.35,2.99-.21.18-.55.22-.63.56.18-.29.49-.41.79-.58,1.51-.86,2.91-1.81,4.23-2.9,2.59-1.58,4.95-3.55,7.79-4.74.21-.14.41-.31.63-.43,1.53-.83,3.32-2.28,4.79-.76,1.69,1.74-.37,3.08-1.34,4.47-.72,1.03-1.22,2.21-2.32,2.92-.69.6-1.52,1.01-2.22,1.6-.86.57-1.76,1.08-2.63,1.61-.41.29.11-.1-.31.2.19.01.3-.16.48-.22.84-.51,1.68-1.01,2.51-1.5.77-.62,1.72-.95,2.51-1.53,1.37-1.01,3.01-1.34,4.57-1.86l-.08.05c1.11-1.21,2.74-1.38,4.13-2.04l-.08.04c1.29-1.03,2.82-1.52,4.38-1.95l1.28-.81c4.24-.84,4.7-.42,3.68,3.38-.38.72-1.15,1.13-1.59,1.93.56-.56,1.14-.96,1.67-1.42,1.29-.89,2.6-1.74,4.12-2.19l2.24-1.5c1.27-.57,2.54-1.17,3.9-1.5,1.15-.28,2.44-.39,3.12.69.59.94.66,2.15-.46,3l.07-.1c-.26.8-.71,1.48-1.25,2.12-.69,1-1.65,1.67-2.65,2.21.05-.02-.1.05-.1.05,0,0,.16-.13.2-.16.92-.38,1.69-.9,2.34-1.59.62-.74,1.54-.48,2.33-.68l-.04.02c1.45-.86,2.52-2.34,4.31-2.65l-.08.05c.36-.59.96-.91,1.57-1.03,1.86-.38,3.98-2.76,5.54-.51,1.42,2.06-.28,4.11-1.9,5.71-.91.78-2.06,1.23-2.88,2.05.04-.03-.1.13-.1.13,0,0,.17-.09.21-.12.81-.77,1.83-1.16,2.68-1.78.8-1,1.93-1.27,3.11-1.43l-.04.02c1.26-.96,2.74-1.45,4.24-1.86l-.1.05c2.02-1.14,4.22-1.54,6.5-1.53,1.51,0,2.93.4,2.98,2.24.07,2.96,1.5,3.11,3.69,1.98.7-.36,1.5-.27,2.23-.52l-.09.04c1.94-1.47,4.27-.54,6.37-1.03l-.07.02c2.02-.78,3.99.11,5.99.17.82.02,1.55.57,1.56,1.39.02,1.37-1.3.8-2,1.15-1.5-.34-2.97-.37-4.34.49-2.75.09-5.4.74-8.06,1.38l.08-.03c-.89.98-2.16.97-3.31,1.28l.07-.04c-1.22,1.02-2.77,1.35-4.18,1.95l.08-.04c-2.09,1.11-4.58,3.33-6.47.79-1.83-2.45,1.51-3.48,2.79-5.02.33-.4.68-.77.56-1.89-7.1.89-12,6.34-18.29,8.67l.08-.05c-.3.43-.74.68-1.22.87-1.65.66-3.82,1.82-4.88.17-1.05-1.63-.61-3.96,1.49-5.28.72-.56,1.56-.92,2.34-1.38.67-.48,1.29-1.03,1.95-1.53.44-.38.89-.76,1.33-1.1-.02.01.12-.22.12-.22,0,0-.21.17-.23.19-.46.38-.9.74-1.35,1.09-.61.55-1.27,1.02-1.96,1.48-.92.5-1.84.98-2.67,1.62-2.9,1.07-5.52,2.78-8.46,3.74-1.49.49-3.18,1.87-4.32-.45-.97-1.98-.07-3.47,1.57-4.64.42-.3.85-.59,1.26-.89,1.14-.83,2.27-1.69,3.51-2.37.18-.14.36-.29.53-.45-.18.11-.31.28-.49.41-1.35.69-2.58,1.54-3.78,2.43-1.85,1.19-3.19,3.2-5.57,3.55l.08-.05c-2.99,2.56-6.47,4.23-10.19,5.31-1.99.58-4.32.94-3.83-2.55l-.05.09c.38-1.35.81-2.66,2.06-3.48,1.31-1.08,2.8-1.87,4.27-2.69.96-.82,2.09-1.36,3.1-2.01.47.08,0,.53.16.04.06-.19-.19-.23-.37.02-1.07.65-2.14,1.25-3.1,2.01-1.65.8-3.16,1.85-4.75,2.77-1.43.95-3.1,1.33-4.69,1.92l.08-.05c-1.16,1.15-2.72,1.46-4.18,1.97l.1-.05c-2.4.9-4.98,2.66-6.36-1.33.12-1.56,1.25-2.32,2.4-3.06.63-.33,1.15-.87,1.9-1.1-.68.08-1.08.6-1.62.83-1.22.54-2,1.8-3.37,2.11-.75.27-1.38.87-2.22.94l.09-.05c-1.87,1.57-4.07,2.17-6.35,1.42-2.29-.76-3.78,1.08-5.72,1.31l.08-.05c-.23.32-.51.56-.87.72-1.89.8-4.03,2.02-5.68.15-1.74-1.98.71-3.36,1.45-4.97.65-.65,1.49-1.04,2.18-1.64.81-.78,1.85-1.26,2.71-1.91.15-.04.24-.06.24-.06-.09-.32-.17-.33-.27.02-.96.66-1.95,1.22-2.83,1.96-.92.67-1.9,1.21-2.96,1.63-3.5-.27-6.78.32-9.74,2.35-.73.5-1.67.58-2.58.66-1.1.1-2.11.04-2.66-1.04-.54-1.04-.13-2.05.53-2.87,1.05-1.3,2.55-2.15,3.59-3.47l1.63-1.38c.99-1.6,2.38-2.8,3.84-3.94,1.38-.89,2.49-2.19,4.11-2.73.53-.32.89-.84,1.36-1.15-.04.02.13-.12.13-.12,0,0-.22.07-.24.09-.55.43-.97.98-1.63,1.23-1.62.88-3.02,2.11-4.63,3-5.05,2.79-9.63,6.32-14.65,9.11-1.98,1.1-4.41,3.65-6.84-.28-.79-1.27-2.43,1.8-4.17,1.7l.08-.05c-.7.72-1.52,1.31-2.45,1.69-1.09.45-2.29.63-3.06-.48-.72-1.04-.61-2.12.61-2.86l-.1.09c1.82-1.06,2.14-3.8,4.61-4.13,3.45-1.52,7.36-2.2,10.04-5.15.71-.78,1.42-1.54,2.24-2.21,1.22-.99,2.43-1.99,3.42-3.23.18-.19.36-.38.59-.49,1.54-.72,3.28-2.66,4.77-1.09,1.83,1.93-.21,3.7-1.39,5.31-.22.31-.56.53-.84.78-1.37.97-2.24,2.48-3.59,3.4.04-.03-.12.14-.12.14,0,0,.22-.11.25-.14,1.14-.89,2.12-1.9,3.22-2.79,4.68-2.21,8.76-5.55,13.75-7.17l1.23-.67c.2-.17.41-.34.64-.35,1.54-.11,3.21-1.41,4.55.33,1.25,1.63-.45,2.76-.84,4.11-1.72,1.87-3.41,3.78-5.51,5.25-1.12.92-2.22,1.86-3.32,2.72.04-.03-.09.12-.09.12,0,0,.23-.13.26-.16,1.03-.88,2.07-1.69,3.09-2.52,1.76-1.42,3.51-2.86,5.07-4.52.47-.35,1.01-.52,1.6-.54,1.69.12,2.55.92,2.25,2.7-.28.9-1.01,1.44-1.66,1.99-.18.15-.41.33-.41.33.29.43-.27-.14.27-.11.54-.44,1.06-.86,1.58-1.28.35-.34.7-.66,1.11-.93.94-.37,1.68-1.14,2.72-1.29l-.08.05c1.92-1.12,3.51-3.47,6.22-1.71l-.11-.11c1.39,2.62-.28,4.27-1.89,5.93-1.11,1.15-2.52,1.92-3.73,2.96-.89.76-1.79,1.5-2.71,2.22-.62.56-1.3,1.04-2.05,1.37-.18.13-.47.22-.53.4-.12.36-.11.34.09.02.27-.43-.09.17.29-.21.87-.39,1.59-.96,2.3-1.54.89-.73,1.78-1.47,2.68-2.19,1.09-1.12,2.67-1.58,3.68-2.8.94-1.43,2.44-1.84,3.98-2.16l.89-.68c1.84-.88,3.18-2.5,5-3.41Z"/>
  <path class="cls-3" d="M257.82,16.99c-2.76,3.34-6.84,4.05-10.62,5.35-.65-1.74.97-2.02,1.79-2.81,1.03-.55,1.82-1.42,2.74-2.11.78-.42,1.37-1.12,2.14-1.45-.05.03-.1.05-.14.07-.93.47-1.69,1.11-2.58,1.56-.91.71-1.76,1.47-2.69,2.15-1.93,1.39-3.83,2.84-6.22,3.39l.08-.05c-1.4.94-2.5,2.37-4.27,2.72l.08-.06c-2.41,1.85-4.97,3.45-7.83,4.53-1.43.54-3.07,1.44-4.16-.14-1.13-1.64-.71-3.4.9-4.73,1.67-.72,2.76-2.28,4.37-3.09.71-.42,1.17-1.11,1.79-1.6-.02,0,.22-.25.22-.25,0,0-.3.19-.31.21-.59.55-1.02,1.25-1.72,1.66-1.47.61-2.42,1.98-3.86,2.64-2.76,2.01-5.91,3.31-8.89,4.92-1.4.76-2.89.81-4.34.02-1.21-2.68.54-3.94,2.44-5.14.52-.64,1.26-.99,1.88-1.51-.49.36-1.07.6-1.52,1.03-1.13,1.06-2.59,1.72-3.49,3.04-2.61,1.1-4.67,3.23-7.48,3.94-.51-.15-.96-.11-1.29.38-1.29,1.21-2.51.69-3.7-.17l.1.12c-.86-.97-.38-2-.15-2.99.1-.18.27-.34.47-.45-.36-.42-.5.17-.78.19-2.06,1.11-3.76,2.84-6.14,3.33l.08-.04c-1.18,1.04-2.36.88-3.3-.23-1.32-1.57-.32-3.06.39-4.52,1.57-1.28,3.33-2.31,4.87-3.65.65-.57,1.34-1.1,2-1.65.26-.24.55-.45.78-.73-.28.2-.54.44-.82.66-.67.54-1.31,1.09-1.97,1.61-1.52,1.53-3.5,2.42-5.22,3.69-1.97,1.45-4.11,2.64-6.35,3.6-2.85,1.23-3.63.44-3.15-3l1.79-2.17c.92-.93,1.68-2.01,2.83-2.7l-.06.06c.71-2.1,2.54-3.13,4.1-4.36-.04.03.06-.12.06-.12,0,0-.23.11-.26.14-2.04,1.28-4.23,2.15-6.44,2.96l.08-.05c-.99.91-2.05,1.71-3.37,2.1l.08-.05c-1.43.9-2.51,2.35-4.28,2.7l.08-.05c-1.41.91-2.7,2.28-4.62,1.19l.08.05c-1.15-1.05-2.67-1.27-4.05-1.83-.69-1.34-.42-2.55.48-3.67.17-.18.36-.35.53-.53.34-.39.03.19.24-.28,0-.01-.14.14-.25.18-.62.52-1.17,1.09-1.79,1.57-1.74.62-2.76,2.45-4.67,2.77l.09-.06c-1.73,1.25-3.42,2.36-4.32-.81.04-.36.22-.69.32-1.04.14-.49-.24-.72,0-.26.23.46-.71.38-.26.18-.77.8-1.75,1.07-2.75,1.31l.08-.05c-2,1.35-3.57,3.32-5.92,4.17l.08-.05c-1.35.97-2.86,1.95-4.36.7-1-.84-.9-2.19.23-3.19l-.07.1c.51-1.31,1.68-2.04,2.61-2.99l-.05.06c.49-.91,1.23-1.57,2.12-2.08,1.32-.74,2.32-1.79,2.99-3.16.15-.31.35-.59.55-.87.94-1.32,2.59-1.68,3.66-2.81.19-.15.52-.19.61-.35.26-.44.7.17.27,0-.61-.24-1.06.33-1.46.77-1.12.67-2.36,1.08-3.52,1.65-.73.35-1.43.77-2.18,1.09-.5.15-.99.14-1.47-.07-.3-.2-.44-.49-.46-.84.25-1.07,1.21-1.61,1.77-2.46,1.66-.81,3.03-2.2,4.93-2.55,1.2-.12,2.27-.55,3.24-1.27.62-.46,1.36-.32,2.05-.41,1.34-.03,2.08.66,2.3,1.95-.33,1.98-1.89,3.02-3.23,4.23-.98.89-2.17,1.57-2.98,2.66-.72.85-1.77,1.33-2.48,2.16-.18.18-.31.33-.38.43.16-.09.33-.22.52-.44.82-.89,1.97-1.37,2.65-2.37.71-.73,1.66-1.12,2.42-1.78,1.55-1.12,2.88-2.51,4.52-3.51,1.43-.22,2.51-1.24,3.83-1.69,1-.35,2.13-1.29,2.93.33.63,1.6-.18,2.84-.7,3.54.15-.25.93-.71,1.63-1.25.89-.53,1.65-1.29,2.73-1.44l-.1.05c1.71-.86,3.1-.94,3.5,1.42-.03.37-.11.74-.28,1.08-.17.32-.49.57-.5.97.18-.33.47-.57.76-.82.96-.54,1.96-.7,3-.28,1.09.35.15,2.04,1.48,2.22.69-.22,1.35-.53,2.08-.56,2.06-1.14,4.11-2.29,6.18-3.42,1.34-.73,2.79-1.18,4.2-1.74,1.24-.49,2.68-.77,3.57.16,1.06,1.1.32,2.63-.09,3.92-.28.87-1.04,1.41-1.72,1.97-.71.59-1.42,1.18-2.14,1.74-.83.84-1.99,1.24-2.77,2.09-.16.18-.31.32-.43.42.15-.03.31-.14.51-.37.73-.83,1.76-1.22,2.56-1.93.62-.55,1.29-1.05,1.93-1.58,2.19-1.84,4.4-3.66,7.03-4.85l-.08.05c1.74-1.49,3.62-2.75,5.86-3.38l-.08.05c1.22-1.17,2.55-1.3,3.65,0,1.01,1.18.24,2.47-.39,3.55-1.18,2.04-3.29,3.17-4.94,4.76-1.14,1.1-2.61,1.75-3.83,2.76-.46.68-.89,1.39-1.65,1.75-.19.12-.34.23-.43.32.15-.07.33-.17.56-.3.87-.48,1.25-1.38,1.88-2.04,1.24-.81,2.56-1.49,3.64-2.52,2.15-2.05,4.24-4.24,7.44-4.61l-.07.05c1.35-1.04,3.06-2.15,4.38-.68,1.47,1.63-.08,3.28-1.1,4.7-.82,1.16-2.15,1.76-3.13,2.75-1.15,1.15-2.64,1.84-3.93,2.81-.38.5-.79.97-1.26,1.34.03-.01-.09.25-.09.25,0,0,.18-.23.2-.25.55-.48,1.04-.99,1.49-1.54,1.24-.8,2.56-1.47,3.64-2.49,2.26-1.87,4.74-3.39,7.31-4.78l.82-.63c1.13-.61,2.11-1.47,3.38-1.87.88-.28,1.73-.69,2.49.15.86.94,1.21,1.94.03,2.93l.07-.09c-.41,1.15-1.16,2.07-2.03,2.91-.53.51-.91,1.18-1.53,1.47.54.02.83-.52,1.25-.85.95-.76,1.91-1.49,3.19-1.57l-.05.03c1.48-.92,2.59-2.45,4.46-2.72l4.59-2.81c.35-.17.69-.38,1.05-.49,1.52-.44,3.36-2.08,4.55-.26,1.27,1.93-.38,3.6-1.82,4.95-.85.79-1.93,1.29-2.75,2.13-1.14,1.16-2.65,1.83-3.92,2.82-.5.69-1.12,1.24-1.78,1.72-.22.16-.38.27-.45.32.2-.04.4-.15.61-.35.76-.58,1.41-1.24,2.02-1.95,1.24-.79,2.56-1.46,3.64-2.49,2.07-1.99,4.78-2.76,7.34-3.83l-.08.05c1.01-.88,2.08-1.64,3.35-2.11l-.06.04c1.12-.72,2.06-1.74,3.46-1.95l-.08.05c1.12-1.2,2.72-1.43,4.15-2.01l-.11.05c1.2-.9,2.27-.56,3.28.35.7,1.88-.58,2.94-1.68,4.07-.8,1.02-2.63,1.23-2.43,3.06Z"/>
  <path class="cls-3" d="M91.9,32.39l.14-1.3c.4-1.11.68-2.29,1.88-2.88,1.05-.78,1.84-1.85,2.91-2.55.24-.16.39-.27.41-.33-.2.09-.41.22-.63.41-1.23.94-2.29,2.05-3.54,2.94-1.75.97-3.14,2.52-5.07,3.21-1.31.47-2.62.9-3.79-.32l.1.07c-1.53-2.76.96-4.07,2.13-5.85l-.05.06c1.24-1.24.98-3.43,2.71-4.34.08-.19.63-.07.42-.44-.25-.44.27-.02-.24.17-1.19.77-2.21,1.78-3.7,1.88l.08-.05c-3,2.59-6.39,4.59-9.79,6.58-1.4.82-2.98,1.3-4.32.38-1.59-1.09-.74-2.74-.32-4.19.74-.79,1.47-1.6,2.27-2.32.74-.67,1.51-1.31,2.28-1.94.69-.65,1.68-.88,2.26-1.63.18-.17.32-.32.38-.41-.16.08-.33.22-.53.43-.56.67-1.38.95-1.98,1.5-.73.59-1.48,1.18-2.23,1.77-.62.49-1.18,1.05-1.79,1.55-.89.74-1.9,1.23-3.04,1.44l-.67.41c-1.28,1.24-2.56,2.47-4.33,2.99l-.68.45c-1.33,1.18-2.56,2.5-4.38,2.94-.55-.12-1.07-.12-1.4.45-.73.97-1.68.72-2.2,0-.93-1.28-.62-2.58.57-3.64l-.08.08c.88-2.39,2.63-4.07,4.56-5.6.85-.67,1.73-1.33,2.86-1.45.36,0,.71.06,1.05.19.47.26.77.65.88,1.16.05.22,0,.44-.17.63.64.16.5-.61.91-.76,1.11-.96,2.43-1.63,3.51-2.61.83-.55,1.71-1.01,2.49-1.64,1.22-.99,2.73-1.56,3.8-2.76.82-1.13,2.13-1.04,3.3-1.32l-.07.05c1.41-.92,2.54-2.28,4.26-2.72l-.08.05c1.02-.86,2.06-1.71,3.39-2.07l-.08.05c1.17-.9,2.39-.98,3.11.38.81,1.53-.36,2.51-1.44,3.39l.07-.06c-.79,2.27-2.94,3.24-4.52,4.77-1.05.88-2.2,1.63-3.18,2.5.05-.04-.06.11-.06.11,0,0,.19-.12.23-.16,1.13-1.05,2.63-1.53,3.63-2.68,3.04-2.12,6.51-3.44,9.73-5.22l-.08.05c1.16-1.13,2.77-1.33,4.13-2.02l-.07.04c1.08-.84,2.13-1.4,3.25-.02,1.07,1.32.34,2.4-.45,3.39-1.64,2.05-3.05,4.34-5.3,5.84-1.23,1.21-2.36,2.52-3.75,3.53-.35.36.09-.13-.27.24.15.09.15-.11.25-.14,1.13-.98,2.31-1.88,3.36-2.93,3.21-2.73,7-4.56,10.52-6.79l-.08.06c1.74-1.57,3.66-2.81,5.94-3.43.83-.8,1.85-.51,2.82-.49,2.28,1.56,1.25,3.03-.21,4.34-2.01,1.79-4.14,3.45-6.23,5.14-.99.68-1.69,1.7-2.7,2.35-.88.69-1.53,1.67-2.57,2.12-.06.1-.27.07-.26.27.01,0,.11-.07.32-.2,1.01-.51,1.64-1.44,2.52-2.08,1-.65,1.66-1.68,2.64-2.34,2.7-2.31,5.53-4.45,8.18-6.82,1.85-.64,2.94-2.59,4.99-2.89l1.25-.66c3.4-.25,2.58,1.74,1.93,3.64-.77,1.24-1.8,2.27-2.78,3.34-.94.72-2.1,1.12-2.92,2.02-.49.43-1.02.81-1.55,1.19-.15.31-.65.34-.63.78.15-.16.29-.32.43-.51.75-.65,1.6-1.14,2.29-1.84.57-.44,1.14-.87,1.92-.85,2.91,1.12.35,2.13-.07,3.18-2.14,1.26-3.29,3.82-5.89,4.49l-.63.44c-1.28,1.18-2.46,2.54-4.38,2.68-3.32-.99-3.5-1.86-.63-4.81.92-.94,2.05-1.64,2.94-2.62.8-.89,1.6-1.79,2.34-2.46-.77.45-1.31,1.44-2.12,2.13-.85,1.11-2.04,1.83-3.05,2.76-.98.71-1.76,1.63-2.58,2.51-3.63,2.05-6.3,5.56-10.44,6.84l.11-.05c-1.78.8-3.37.83-4.45-1.13Z"/>
  <path class="cls-5" d="M64.6,24.36l-.96-1.02c-.39-1.12.39-1.57,1.16-2.02.82-.61,1.6-1.27,2.43-1.87.27-.19.59-.32.84-.55-.32.15-.62.33-.93.53-.78.59-1.5,1.23-2.24,1.83-1.01.5-1.9,1.2-2.9,1.73-.41.29-.8.62-1.22.9-2.28,2.03-4.78,3.67-7.69,4.64l.08-.05c-1.69,1.16-3.03,2.84-5.09,3.46l.08-.05c-1.7,1.15-3.04,2.83-5.09,3.46l.08-.05c-1.5,1.18-2.92,2.51-4.94,2.76l.06-.02c-2.2.55-3.66.29-2.75-2.54.23-.1.28-.26.15-.47,1.62-3.07,4.65-4.69,6.2-6.13-2.52,2.78-7.32,4.42-10.91,7.75-.94.78-1.81,1.69-3.1,1.93-1.21.34-2.29,1.66-3.7.5-1.58-1.5-1.15-3.11-.23-4.72.57-.98,1.17-1.94,1.76-2.91,1.19-.98,1.45-2.75,2.93-3.48l-.07.07c1.77-2.79,4.31-4.97,6.05-7.78.87-.63,1.86-1.09,2.63-1.78-.04.03.05-.12.05-.12,0,0-.23.13-.27.15-.97.65-2.03,1.08-2.9,1.81-1.72,1.08-3.59,1.85-5.44,2.67l.08-.05c-1,.91-2.02,1.79-3.4,2.06l.08-.05c-3.95,2.9-7.99,5.63-12.57,7.46l-1.43.34c-1.26,1.47-2.34.6-2.8-.56-.57-1.43.83-1.78,1.86-2.17l2.24-1.42c1.23-.49,2.1-1.67,3.5-1.83l-.08.05c.97-.95,2.04-1.73,3.36-2.11l-.08.05c1.43-.9,2.49-2.37,4.29-2.69l-.08.05c2.93-2.13,5.94-4.13,9.35-5.44l2.1-1.46c1.33-.78,2.81-1.22,4.21-1.84l-.07.04c1.33-.98,2.84-1.53,4.42-1.92l2.87-1.44c2.98-.69,3.04.92,2.29,3-.41,1.13-1.5,1.76-2.42,2.43-4.27,3.11-7.82,7.02-11.77,10.5l.07-.07c-1.78,2.36-3.45,4.81-5.4,6.99-.11.08-.18.14-.18.14.18.27.27.24.29-.12,5.06-3.22,9.39-7.4,14.52-10.45l-.08.06c1.63-1.25,3.04-2.8,5.04-3.52l-.07.05c1.47-.92,2.59-2.43,4.44-2.72l2.13-1.48c.8-.38,1.6-.76,2.44-1.06,1.36-.5,2.96-.96,3.85.31.96,1.37-.16,2.59-1.29,3.53l.04-.05c-.36,1.6-1.77,2.28-2.82,3.29-.63.51-1.31.96-1.92,1.48-.87.75-1.75,1.48-2.68,2.16-.19.12-.38.24-.57.36.32.03.47-.29.74-.39.91-.69,1.77-1.44,2.68-2.12.72-.66,1.68-.97,2.37-1.67,1.17-.97,2.47-1.63,3.99-1.83l-.07.05c2.94-2.12,5.94-4.15,9.37-5.44l1.25-.83c1.03-.39,1.97-1.19,3.18-.64,1.13.77.98,1.88.84,3-.18.95-.95,1.47-1.55,2.11-1.16.96-2.4,1.81-3.55,2.78-.77.86-1.98,1.11-2.71,2-.82.77-1.82,1.32-2.67,2.08-.54.26-.99.96-1.72.4Z"/>
  <path class="cls-2" d="M127.15,27.34l-1.5,1.11c-.38.9-1.29,1.16-2.01,1.61-1.37.85-2.97,1.32-4.07-.18-1.13-1.53-.15-2.79,1.21-3.73l-.07.07c.48-1.45,1.73-2.12,2.9-2.88,1.68-.14,2.33-3.51,4.69-1.5.08.64-.28,1.07-.67,1.45-.47.12-.31-.46-.18.04.05.2.34.11.44-.18.98-1.05,1.92-2.1,3.05-2.96,2.53-2.43,5.8-3.85,8.39-6.21,2.05-1.65,4.41-2.52,7.02-2.69,1.22,1.06.67,2.4.6,3.66-.2.96-.99,1.47-1.56,2.15-.4.47-.99.75-1.45,1.41.66-.56,1.27-.9,1.72-1.45.57-.7,1.28-1.14,2.21-1.12.69.2,1.25.57,1.62,1.21.43,1.83-1.8,1.96-2.13,3.32-1.82,1.61-3.41,3.52-5.83,4.33l.08-.06c-1.72,1.18-3.06,2.94-5.2,3.49l-.64.41c-1.33,1.5-3.05,2.19-4.56.71-1.47-1.44-.36-3.03.73-4.35.84-.77,1.55-1.67,2.4-2.43.92-.82,1.89-1.59,2.83-2.39.38-.45.86-.81,1.18-1.45-.36.51-.74.86-1.07,1.24-.86.8-1.78,1.53-2.7,2.26-.65.52-1.23,1.12-1.86,1.66-1.67,1.42-3.37,2.83-5.55,3.44Z"/>
  <path class="cls-1" d="M127.98,22.13c-2.1-1.03-2.52,2.08-4.33,1.75-.17-.58-.12-1.09.45-1.44l.76-.7c1.67-2.73,3.72-5.05,6.78-6.28.79-.6,1.53-1.26,2.45-1.57.11,0,.19,0,.19,0-.1-.24-.23-.25-.42-.01-.93.41-1.6,1.15-2.41,1.68-3.18,1.41-5.69,4.06-9.1,5.06l-.65.47c-.36.85-.9.65-1.48.25-.39-.83,2.79-1.37.2-2.39-.35-.85.42-1.15.8-1.64.9-.98,1.97-1.75,3.05-2.52,1.43-.42,2.51-1.59,3.99-1.91l-.08.05c1.2-1.17,2.8-1.49,4.29-2.03l1.33-.79c.82-.35,1.71-.5,2.57-.7,3.57-.82,4.56.32,3.59,4.01-2.82,2.77-6.33,4.69-9.24,7.36-.88.52-1.41,1.76-2.75,1.33Z"/>
  <path class="cls-1" d="M117.02,21.57c-.57,1.12-1.81,1.15-2.81,1.67.38-1.35,1.17-2.34,2.32-3.06.34.4.36.92.5,1.4Z"/>
  <path class="cls-1" d="M127.05,23.52c.25.02.5.05.75.09-.47.77-1.05,1.42-2.1,1.7-.26-1.19.58-1.47,1.36-1.79Z"/>
</svg>