<?xml version="1.0" encoding="UTF-8"?>
<svg id="_2" data-name=" 2" xmlns="http://www.w3.org/2000/svg" viewBox="0 0 400 28.28">
  <defs>
    <style>
      .cls-1 {
        fill: #3c3c3c;
      }

      .cls-2 {
        fill: #2a2a2a;
      }

      .cls-3 {
        fill: #353535;
      }

      .cls-4 {
        fill: #222;
      }
    </style>
  </defs>
  <path class="cls-2" d="M160.74,9.02c-3.73,1.62-7.66.3-11.51.69-7.58.77-15.28.82-22.91.53-3.99-.15-8.22.33-11.36,1.65-4.52,1.91-9,1.31-13.42,2.17-4.92.96-10.02.94-15.05,1.34-3.61.29-7.22.48-10.81.87-2.28.25-4.38-.26-6.48-.99,2.15-2,4.98-.74,7.4-1.51.82-.26,1.8.14,2.69-.14,4.15-.26,8.27-.8,12.42-.96.51-.2-.29-.67,0-.23-4.35.9-8.82.63-13.2,1.31-7.54.42-15.03,1.48-22.56,1.9-2.97-.29-5.86.82-8.82.48-3.06,1.02-6.47-.04-9.43,1.56-.72.75-1.69.79-2.55.57-5.61-1.47-11.22.73-16.83-.02-1.08-.15-2.58-.53-2.01,1.57-1.42.41-1.89-.29-1.78-1.58.1-1.22.99-1.27,1.94-1.28,2.92-.02,5.84.67,8.77.11l-.06.03c2.1-1.74,4.77-1.5,7.2-2.05h-.05c4.71-1.05,9.52-1.29,14.31-1.61l-.07.03c1.84-1.05,3.89.28,5.76-.51,7.05-.02,14.04-.82,21.05-1.45,1.37-.61,2.88.21,4.25-.4l2.85-.03c1.37-.6,2.87.22,4.24-.4h3.64c1.34-.6,2.82.27,4.15-.4l3.73.02c1.35-.58,2.83.25,4.17-.4l3.7.02c1.39-.56,2.9.2,4.29-.39l3.59.02c1.65-.65,3.41.29,5.05-.37l4.4.05c1.89-.66,3.87.4,5.75-.33l4.48.07c1.95-.65,4,.36,5.95-.34l6.64.17c1.94-.6,3.97.37,5.91-.31l6.67.16c1.34-.27,2.66-.45,3.9.36Z"/>
  <polygon class="cls-3" points="342.15 13.7 362.2 14.72 362.19 15.02 342.15 14 342.15 13.7"/>
  <path class="cls-2" d="M62.92,15.78c1.48-1.24,3.17-.4,4.76-.48-1.33,2.71-3.09,1.19-4.76.48Z"/>
  <path class="cls-4" d="M377.69,16.06c-2.85-1.35-6.01-1.07-8.97-1.87l.09-.23c-1.36-.69-2.96-.1-4.31-.83l-2.75-.27c-2.92-1.04-6.09-.08-9.01-1.13l-.17.14-.18-.13c-1.26-.96-2.77-.6-4.16-.65-25.65-1-51.25-3.11-76.95-3.31-10.38-.08-20.81.43-31.18-.64-.53-.05-.99.07-1.4.39-4.74.75-9.49-.91-14.24.02l-.25.17-.26-.17c-1.51.55-3.04.05-4.56.1-3.27.11-6.54-.96-9.81.05l.1-.05c-3.45.7-6.94-.73-10.38.18l-.26.17-.26-.16c-3.73.83-7.52-.84-11.25.24l.07-.03c-3.43.8-6.91-.69-10.33.2h-1.13c-3.54.77-7.12-.66-10.67.17l-1.22.02c-1.24.5-2.57-.02-3.82.33-5.83.55-11.68.12-17.51.45-8.39.48-16.82-.02-25.22.98-2.44.29-4.24,2-6.49,2.08-7.24.25-14.4,1.54-21.63,1.78-6.58.22-13.13,1.9-19.74.42-.63-.05-1.26,0-1.87.18-1.81,1.33-3.67.75-5.53.16-2.32-.48-4.6-.06-6.89.24-3.03-.02-6,.69-9.03.66-2.97.51-6.01.49-8.97,1.15-6.3-.6-12.53.92-18.83.63-1.37-.06-3.43-.72-3.12,2.02.34.56.61,1.24,1.49.95l8.17.41c1.42-.58,2.95.1,4.38-.37l9.83.29c1.67-.66,3.45.28,5.12-.38l6.6.98c2.25-.55,4.26.88,6.52.68,13.22-1.15,26.48-1.9,39.71-2.89,15.44-1.16,30.86-2.62,46.35-3.13,1.69-.26,3.41-.09,5.08-.29,5.06-.58,10.2.39,15.21-.91,4.09-.81,8.26-.88,12.38-.77,9.35.24,18.71-.39,28.05.51,1.56.15,4.07.47,3.99-1.76-.01-.32-.1-.55-.22-.72,5.5.63,11.45-.29,17.32.47,1.88.08,53.09,2.71,67.18,3.42,1.43.07,2.88.3,4.3.08,5.09-.81,10.1.03,15.15.46,6.98.6,14,.75,20.99,1.3,10.44.82,20.87,1.51,31.34,1.59l13.32.43c2.84-1.42,2.33-2.62-.19-3.82ZM204.25,11.75s0,.03,0,.04c.07.3-.1.14,0-.04ZM204.54,11.6s-.05,0-.07,0c.12-.04.27-.07.5-.06.25.07.51.12.76.18-.43.02-.85,0-1.19-.1Z"/>
  <path class="cls-1" d="M79.46,14.23l-.7-.79c4.37-.83,8.76-1.22,13.24-.38l-12.54,1.17Z"/>
</svg>