<?xml version="1.0" encoding="UTF-8"?>
<svg id="_2" data-name=" 2" xmlns="http://www.w3.org/2000/svg" viewBox="0 0 90.66 90.66">
  <defs>
    <style>
      .cls-1 {
        fill: #404040;
      }

      .cls-2 {
        fill: #212121;
      }

      .cls-3 {
        fill: #3d3d3d;
      }

      .cls-4 {
        fill: #fff;
      }

      .cls-5 {
        fill: #585858;
      }

      .cls-6 {
        fill: #535353;
      }

      .cls-7 {
        fill: #4c4c4c;
      }
    </style>
  </defs>
  <path class="cls-2" d="M82.12,47.4c0,28.83-16,32.96-35.75,32.96S10.63,65.6,10.63,47.4,26.63,14.44,46.37,14.44s35.75,14.76,35.75,32.96Z"/>
  <g>
    <path class="cls-2" d="M86.54,74.31c.05-.14.09-.28.12-.42.04-.18.07-.36.09-.54h0c0-.14,0-.25,0-.36,0-.08.01-.16.03-.24.08-.46.27-.84.47-1.22.11-.21.22-.41.32-.63.08-.16.15-.32.2-.49.04-.13.08-.26.1-.4.04-.16.07-.32.1-.48,0-.05,0-.1,0-.15.12-2.04.2-4.08.34-6.11.04-.63.09-1.26.15-1.88,0-.01,0-.03,0-.03.06-.71.11-1.42.2-2.12,0-.07.02-.14.03-.21.02-.19.03-.37.04-.56,0-.06,0-.11,0-.17-.26-1.5.37-2.79.59-4.2h0c.04-.26.07-.52.07-.78,0-.06,0-.13,0-.2.29-9.25-1.74-17.52-5.58-24.96,0,0,0-.01,0-.02-.5-.97-1.04-1.92-1.6-2.87-.6-1-1.24-1.96-1.91-2.88h0c-2.19-3.05-4.64-5.74-6.85-8.74-.09-.12-.18-.24-.27-.36-.06-.06-.13-.13-.19-.18-.07-.07-.14-.12-.21-.18-.21-.2-.42-.4-.63-.59-5.08-4.66-10.57-8.17-16.59-10.09-.28-.09-.56-.18-.84-.26h-.02c-.32-.1-.65-.19-.97-.27-.06-.01-.12-.03-.19-.04-.18-.03-.37-.05-.55-.05-.28,0-.56-.04-.84-.06h-.02c-1.32-.12-2.64-.28-3.96-.31-.01,0-.02,0-.04,0-.49,0-.97,0-1.47.04-.19.02-.39.03-.58.06,0,0-.02,0-.03,0-5.33.55-10.51,2.18-15.53,4.5-.06.03-.12.05-.17.08-.31.14-.61.28-.92.43-.72.36-1.42.76-2.12,1.2l-.99.66c-.82.56-1.62,1.16-2.4,1.81-.18.14-.34.29-.52.43,0,0,0,0-.02.01-1.48,1.27-2.91,2.65-4.28,4.09-2.49,2.62-5,5.27-7.5,7.85-3.95,4.09-7.19,8.58-8.73,14.99l-.09.19-.16-.04c-.6.49-.78,1.29-.88,2.14,0,.02,0,.03,0,.05-.04.63-.12,1.26-.19,1.88,0,.02-.01.04-.01.06-.04.29-.07.57-.1.87-.82,8.02.33,15.53,3.6,22.36,1.75,3.67,4.63,6,6.72,9.28.04.06.09.13.13.19.1.12.2.23.3.34.08.09.17.18.26.26.19.18.39.35.58.52.39.35.78.68,1.18,1.02.61.52,1.22,1.04,1.81,1.58.48.43.95.89,1.41,1.37,0,.01.02.01.02.01.16.17.31.35.48.53.26.29.53.55.82.78.17.13,1.73,1.31,1.73,1.31.21.15.43.3.65.44.09.06.18.1.27.15.13.07.26.13.4.18.11.07.23.13.35.19h.02c3.46,1.94,6.99,3.46,10.61,4.52,2.52.75,5.08,1.27,7.7,1.57,4.76.53,9.5.24,14.23-.17.01,0,.02,0,.02,0l3.24-.29c.17-.03.33-.08.49-.16.08-.04.17-.09.25-.14l.05-.04c1.71-1.25,3.58-.19,5.41-.71,3.71-1.06,7.33-2.54,11.01-3.69,2.59-.8,4.94-2.06,7-3.92.14-.12.28-.25.41-.38,1.47-1.43,2.79-3.18,3.91-5.33ZM64.49,12.2c3.27,2.3,6.37,5.01,8.86,8.75,1.64,1.65,3.05,3.59,4.27,5.79,2.32,2.89,4,6.37,5.22,10.29-1.79-3.21-3.78-6.16-5.64-9.26-1.35-1.75-3.02-3.07-4.1-5.2-11.73-10.79-24.72-14.1-38.72-11.4-.1-.14-.23-.17-.36-.14-.42-.16-.85-.33-1.27-.49,10.76-5.09,21.4-5.62,31.76,1.66ZM9.95,40.05c.2-.73.39-1.47.61-2.19.29-.99.64-1.96.94-2.95.56-1.87,1.39-3.5,2.37-5,.53-1.48,1.48-2.46,2.36-3.52.28-.77.77-1.21,1.37-1.6.42,1.18-.36,1.5-.79,2.05l-2.26,3.52-2.38,5.03-1.04,2.94c-.18.74-.35,1.47-.53,2.2-.12.91-.25,1.81-.82,2.58-.5-1.14-.12-2.09.17-3.06ZM39.8,81.41c.18-.07.35-.15.52-.22,1.63.12,3.25.26,4.77,1.12.04.11.08.21.13.32-1.91.35-3.67-.39-5.42-1.23ZM51.51,83.34c-.01-.26-.02-.53-.04-.79l8.5-.63c-2.78,1.3-5.61,1.64-8.46,1.42ZM21.06,66.8c-9.69-8.02-10.39-18.42-5.33-30.37,2.32-5.48,5.54-10.04,9.47-13.65,3.53-3.24,7.49-4.52,11.75-4.3,1.33.07,2.64.28,3.33-1.74.3-.86.96-.75,1.5-.75,12.79.09,23.87,5.6,32.5,18.4,3.71,5.49,5.06,12.43,5.68,19.55.44,5.09-1.11,9.47-3.72,13.15-3.2,4.49-7.01,7.6-11.65,8.99-15.34,3.93-30.01,1.91-43.52-9.27ZM77.73,73.14c-1.49,2.07-3.27,3.55-5.31,4.49-.67,1.13-1.73,1.23-2.65,1.68-1.91,1.73-4.14,1.92-6.25,2.68-.08-.33-.17-.66-.26-.99l5.93-2.15c1.03-.6,2.06-1.21,3.1-1.81l4.67-4.37c2.99-3.84,5.45-8.11,6.3-13.67.02-.67.03-1.35.04-2.03v-2.72c.71,1.16,1.15,2.35.83,3.79-.04.54-.14,1.93-.15,2.09-.87,5.36-2.95,9.69-6.24,13.02Z"/>
    <path class="cls-5" d="M39.8,81.41c.08-.21.18-.32.31-.31.03,0,.06,0,.08.01.08.01.12.04.13.08-.17.07-.34.14-.52.22Z"/>
    <path class="cls-6" d="M16.89,73l-1.91-1.99c.03-.32.14-.58.33-.79.8.73,1.63,1.42,2.11,2.61-.08.22-.19.32-.31.3-.12-.03-.19-.07-.21-.14Z"/>
    <path class="cls-1" d="M39.8,81.41c-.85.13-1.66.1-2.59-1.06,1.21.01,2.13.18,2.97.76.05.02.09.05.13.08-.17.07-.34.14-.52.22Z"/>
    <path class="cls-3" d="M16.89,73l.52-.16c.66.26,1.33.51,1.68,1.81-.97-.31-1.65-.83-2.2-1.65Z"/>
    <path class="cls-7" d="M6.67,38.48c.06-.47.12-.95.21-1.41,0-.05.33-.06.34-.02.19.82-.01,1.55-.36,2.23-.29-.17-.35-.44-.19-.8Z"/>
  </g>
  <g id="_10.Linkedin" data-name="10.Linkedin">
    <path class="cls-4" d="M69.64,66.39v-15.67c0-7.7-1.66-13.59-10.64-13.59-4.33,0-7.22,2.35-8.4,4.6h-.11v-3.9h-8.5v28.56h8.88v-14.17c0-3.74.7-7.33,5.3-7.33s4.6,4.23,4.6,7.54v13.91h8.88v.05Z"/>
    <path class="cls-4" d="M27.54,37.83h8.88v28.56h-8.88v-28.56Z"/>
    <path class="cls-4" d="M31.98,23.6c-2.83,0-5.13,2.3-5.13,5.13s2.3,5.19,5.13,5.19,5.13-2.35,5.13-5.19-2.3-5.13-5.13-5.13Z"/>
  </g>
</svg>