<?xml version="1.0" encoding="UTF-8"?>
<svg id="_2" data-name=" 2" xmlns="http://www.w3.org/2000/svg" viewBox="0 0 400 200">
  <path d="M396.19,88.48c-2.36-2.62-4.93,2.59-14.1,8.58-1.2.78-2.08,3.21-3.63,2.25-1.63-1-.39-3.15-.32-4.8.98-.98,1.96-1.96,2.94-2.94,1.2-.57,2.35-1.17,2.35-2.76.15-.16.19-.34.12-.54,2.28-2.26,5.22-3.96,6.31-7.25,3.18-.24,3.58-3.18,4.9-5.18.26-.39-.36-1.32-.97-1.27-2.12.19-3.99.89-4.68,3.22-2.74-.03-4.25,2.11-6.16,3.52-2.02.5-3.08,2.22-4.45,3.55-2.05,1.38-2.49-.12-2.93-1.63-.25-2.47.46-3.33-.51-4.45-.96-4.16-.83-8.16-5.34-11.4-.66-.99-1.47-.67-2.29-.27-3.06-.13-3.4,2.77-5.58,7.01-.96,1.12-.99,2.59-1.46,3.9-.21.16-.27.37-.18.62,0,0-2.52,2.05-3.77,3.08-2.06.76-3.55,2.19-4.7,4.01-1.79-.36-.94-2.26-1.83-3.14.05-2.51-.54-5.07.7-7.5.24-.47.14-1.68-.03-1.72-3.11-.83-2.81-4.59-5.2-5.98-.83-1.72-1.92-2.03-3.39-.68-2.76,2.53-3.69,5.82-3.92,9.4-5.61,5.8-3.83,4.08-7.91,7.72-.82.58-1.74,1.04-2.16,2.05-1.63,1.05-2.88,1.33-2.98-1.28-.04-1.07-.3-2.13-.45-3.2,4.26-3.7,7.86-8.02,11.45-12.35.64-.77,1.2-1.71.3-2.63-.75-.77-1.75-.44-2.36.1-3.17,2.83-7.44,4.35-9.79,8.15-1.13-.1-1.2-1-1.46-1.83-1.23-3.91-1.94-8-3.75-11.73-.4-2.1-1.13-3.95-3.5-4.54-1.07-.14-2.39-.7-2.22,1.29-.96-.47-1.72-.21-2.33.63-.47.47-.53,1.16-.34,1.54-.39.3-.46.75-.52,1.21-.31-.1-.54,0-.66.34-1.43,6.8-.99,7.29-6.73,12.69-1.22.2-2.08.82-2.44,2.04-1.2.47-2.29,1.09-3.07,2.16-.62.21-1.24.42-1.85.62-.02-.24-.09-.46-.23-.67.4-1.41.32-2.77-.4-4.07-2.02-3.16-.62-5.52,1.77-7.65,1.64-1.14,2.38-3.01,3.53-4.53.67-.89.63-2.11-.16-3.1-.94-1.18-2-.6-2.97-.1-.98.5-1.98,1.03-2.42,2.15-.96.46-1.89,1.55-2.92.11-.57-4.88-2.31-6.32-5.62-4.65-2.18.45-3.63,2.07-5.29,3.35-.32.42-.63.84-.95,1.27-1.27-.18-1.72.77-2.24,1.61-1.25.67-2.34,1.53-3.19,2.68-5.57,3.7-9.63,9.04-14.57,13.42-.76,1.09-2.38,1.69-2.01,3.41-.08-.02-.03.03-.24-.31-1.19.46-2.65.46-2.67,2.26-2.54.1-.59-2.49-1.88-3.14.03-2.11-1.22-4.14-.43-6.31,1.87-1.77,1.19-.99,3.06-3.56,3.43-3,6.06-6.61,8.06-10.69,1.5-.73,2.56-1.74,2.27-3.6-2.41-.14-2.36,2.14-3.36,3.4-3.47,2.79-5.68,6.64-8.39,10.07-.6.17-.77.67-.91,1.2-1.11.61-2.23,1.25-2.56-.77-.64-.85-1.41-1.48-.07-2.62,2.18-1.85,4.09-4.02,6.11-6.05,4.37-4.06,4.55-3.89,4.77-5.06-.92.43-2.05.51-2.57,1.58-.89.74-2.44.67-2.7,2.18-1.84,1.12-3.49,2.48-4.95,4.06-.98,1.07-1.89,1.24-2.69-.19-.35-.63-.96-1.24-1.02-1.9-.37-4.18-2.43-2.49-4.18-1.17-1.64,1.23-3.53,2.21-4.63,4.07-1.48.51-2.17,1.97-3.35,2.82-2.04,1.46-3,4.21-5.75,4.8.08-2.49-.65-4.84-1.25-7.21.23-3.74-.54-7.41-1.87-10.77-.61-1.55-.29-5.18-4.02-4.18-1.25.9-.83,2.26-.94,3.47-1.44,3.52-.69,7.35-1.57,10.95-1.64,1.2-3.35,2.33-4.44,4.12-2.76,2.01-5.01,4.5-7.04,7.22-1.71,1.18-2.45,3.38-4.49,4.2-.7-1.7-1.39-3.39-2.09-5.09-.77-1.56.81-1.46,8.38-11.5.64-.85,1.73-2.16.76-3.3-2.21-2.58-6.04,3.94-10.5,6.5-5.88,3.38-5.1,9.9-10.51,10.37-.83-3.36-.75-6.46,1.7-9.31.55-.64,1.16-2.29-.23-3.25-1.39-.97-2.52-.11-3.65.61-1.59-1.59-.11-7.84-5.52-12.72-1.45-.07-1.71.87-1.72,2.02-1.05,3.1-.71,6.35-1,9.53.44.42.63.06.49.42.19,1.49.17.83.06,3.24-.97.57-.07,2.11-.95,3.16-1.47,2.22-4.4,2.96-5.53,5.51-.5.25-.99.5-1.49.75-1.02.34-1.54,1.79-2.92,1.31-.91-1.08-1.34-2.36-1.53-3.75.2-.61.23-1.17-.4-1.57-1.6-4.75-2.33-12.71-4.48-16.46-.98-1.08-1.06-4.01-3.66-1.78-1.52,3.09-.56,6.39-.78,9.59-.53.34-.54.65.05.93.11,2.67.21,5.33.32,8-2.28,1.36-3.65,3.58-5.28,5.56-3.21-.87-1.32-4.49-3.24-6.05-.38-1.17-.64-2.35.37-3.35,1.09-1.08,1.22-2.41.61-3.65-.85-1.75-2.34-.33-3.53-.47-1.13-1-1.45-3.82-3.95-1.75-1.29,1.62-.82,3.48-.74,5.29-.27,2.44-3.21,3.2-3.55,5.6-1.66.55-2.53,1.79-2.98,3.4-2.28-.22-.87-2.61-2.04-3.48.29-.89-.37-1.52-.63-2.26-.12-1.38-.33-2.73-1.09-3.92-.02-.86.17-1.76-.61-2.43.16-.28.16-.17-.02-.43-.78-3.97-1-7.11-2.84-6.65-1.63.41.14,4.11-.85,6-.35.33-.69.71-1.03,1.08-2.4,1.67-2.49,1.61-2.3,1.99-.04-.02-.08-.04-.12-.05-4.39.54-4.59,5.36-13.37,10.59-1.18-3.58-.72-2.12-2.11-6.67.04-.86.17-1.79-1.2-1.58-1.05-2.22,2.48-4.44,0-6.66.06-2.33-2.79-1.12-3.33-2.73-3.69-.73-1.79,2.56-2.73,3.8.59-.46.14-.08,0,0-1.22.72-2.25,1.64-2.87,2.94-2.26.79-3.31,3.12-5.34,4.19-.33.25-.47.6-.32,1.06-.53.64-1.09,1.22-2.08,1.13-1.41-1.13-1.37-1.08-1.3-1.05-.09-.04.18-.14.09-.62-.21-2.29-.28-4.6-1.31-6.73.38-4,.38-3.63.31-3.58.47-1.53,2.9-2.67.91-4.68-1.62-2.22-3.43-1.12-5.08-.17-2.34,1.35-4.09,3.43-6.03,5.28-4.08,3.88-4.11,3.85-6.93-.73.67-1.42-.39-2.55-.67-3.8-.33-1.47-.78-3.05-2.85-1.66-1.11,2.07-.78,4.22-.35,6.37-.04.96-.49,2.01.54,2.76.44,1.27-.35,2.72.58,3.92.1.47.18.94.29,1.41.56,2.41-.75,4.55-2.6,4.9-2.18.41-1.49-2.36-2.11-3.71-.24-.53-.44-1.08-.66-1.63-.66-1.47.26-3.36-1.21-4.63-.09-1.13-.49-2.12-1.28-2.95.13-1.66-.52-3.09-1.34-4.47.36-1.84-1.14-2.68-2.06-3.83-2.45.52-1.51,2.23-.28,4.46,1.06,2.42-1.49,3.74-1.75,5.76-6.5,8.53-6.66,9.67-7.14,7.22-.09-1.46-.26-2.87-1.85-3.53,1.25-.87.21-1.66-.12-2.48-.29-1.45-.63-2.88-1.76-3.96.35-2.13,1.83-3.76,2.58-5.71,6.08-9.67,2.73-4.11,6.69-13.06-3.17,2.09-4.86,5.34-6.7,8.47-3.2,4.49-1.95,1.74-3.96,5.7-1.17.67-2.29,1.37-2.34,2.92-.62.94-1.24,1.87-1.85,2.81-1.25.59-1.99,1.54-2.08,2.95,1.64.85,2.16-1.8,3.72-1.19.07-.09.49-.98-3.35,7.04-1.32,2.54-2.45,5.18-4.43,7.32-1.29,1.46-1.16,3.46-1.97,5.11-.7,1.7-1.87,3.15-2.78,4.72-2.99,5.09-4.78,10.87-8.69,15.43-.51,1.51-1.65,2.75-1.9,4.38l.27-.05c-1.82,3.05-4.1,5.86-4.98,9.41-2.31,3.13-4.68,6.23-5.82,10.04-1.86,2.4-3.1,5.12-4.13,7.96-1.02,2.81.07,3.94,2.89,3.78,1.64-.21,2.79-.99,3.07-2.73.56-.66,1.13-1.31,1.69-1.97,5.92-4.94,9.1-11.94,13.57-17.97.87-.63,1.71-1.29,1.88-2.46-.02-.4-.14-.14,2.76-3.27.5-.72,1.02-1.42,1.59-2.09,0,.36.04.7.21,1.01-1.4.36-1.83,1.45-2.08,2.86-.5,3.52-2.91,4.13-2.48,5.49-.24.45-.48.9-.71,1.35-.83.17-.75.85-.81,1.45-1.37-.16-1.6,1.08-1.85,2.41-1.2.64-.8,2.53-2.18,3.2-3.82,8.43-5.17,10.08-2.91,11.84,1.86,1.45,3.52.05,4.97-.95,3.37-2.32,5.6-5.75,8.24-8.77,2.34-3.37,5.89-5.82,7.47-9.77,1.78-1.27,2.93-3.07,4.12-4.86,1.27-1.92,2.67-2.15,4.01,0,.84-2.77.61-6.05,3.47-7.87.39,1.63,1.15,3.2,1.2,4.89-.3.39-.59.78-.9,1.16-1.2,1.77-4.22,2.47-3.21,5.52-.77,2.03-2.86,3.23-3.35,5.43-1.23.98-.99,2.68-1.88,3.82-1.03,1.24-3.06,2.17-3.06,5.05-1.19,1.06-1.68,2.57-2.15,3.97-.48,1.47-1.27,3.37,1.16,4.17h.02c1.25,1.52,2.18.62,3.09-.38,1.54-.45,2.74-1.24,3-2.99.25-.24.5-.48.75-.72,2.46-.31,2.26-3.23,4.08-4.16.22-2.01,2.36-2.66,3.05-4.33.25.25-.06-.04.64-.3-.18.13-.36.27-.54.4,1.14-.16,1.57.67,2.05,1.44.89.92.61,2.62,2.1,3.13-.03-1.19-.05-2.38-1.29-3.05-.68-2.7-.67-2.45-.52-2.73,1.91-1.27,1.54,1.86,2.94,1.58,1.24,3.49.85,2.26,1.82,5.76.45.03.9.07,1.35.1-3.17-9.06-4.07-10.28-2.86-13.39.99-1.26,1.98-2.52,2.97-3.78.74.04,1.6-.73,2.2.31.46,1.62.11,3.59,1.96,4.62.34,2.35-.84,4.22-1.94,6.12-1.01,1.75-1.07,4.04,1.28,3.66,3.47-.56,4.05,1.7,5.26,3.66-.37,1.55.04,2.87,1.14,3.99.17,1.48.73,2.75,1.9,3.72.39,1.69,1.52,2.94,3.17,2.82,1.99-.15,1.36-2.12,1.63-3.41,1.45-.18,2.9-.37,4.35-.55.27,1.33,1.04,2.33,2.03,3.19.02.57-.12,1.21.67,1.41.83.65,1.3,2.51,2.81.81.97-.89,1.18-.99,1.17-1.36,1.22-2.64,1.07-4.84.29-7.59.08-1.19-.08-2.45.83-3.45,3.42.36,3.1,3.43,3.3,5.43.35,3.59,1.63,6.84,2.69,10.17,1.39,4.37,3.93,5.05,6.46,2.01.86-1.57,1.03-4.82,1.07-6.6.13-.29.16-.09-.03-.75.11-1.47.22-2.95.32-4.42.16-.21.28-.41.36-.62,1.05-.07,6.72,6.15,8.16.85.37-1.35.32-2.81.47-4.22.36-1.48.5-2.97.17-4.48,1.94-6.46.6-2.47,5.07-7.56-2.44,4.56,1.4,8.51,3.77,6.08,2.04-2.09,5.1-2.92,6.56-5.6,1.64-.34,1.74-1.95,2.52-3.01.94-.75,1.89-1.51,2.83-2.26,1.43-.28,1.98-1.44,2.58-2.56,1.47-1.28,3.14-2.39,3.7-4.43.87-1.01,1.7-2.37,2.5.1.36,1.11,1,2.12,1.51,3.18.45,2.27.24,4.42-1.06,6.4-2.89,2.5-5.27,5.31-6.48,9.06-.62,1.91-.98,3.56.65,5.04,1.77,1.6,3.32.6,4.97-.4,2.62-1.61,3.95-5.38,5.64-4.66,1.41.6.37,4.79,3.25,8.6,1.65,4.45,1.26,3.7,2.13,4.51.91,1.45,2.01,2.16,3.58.86.16-.17.24-.38.25-.61,1.72-1.04.82-2.8.91-4.16.12-1.82-.89-3.7.28-5.5,1.58.15,2.82-.26,3.2-2.02.22-.24.44-.48.66-.73,1.58-.35,2.83-1.07,3.11-2.84.74-1.25,2.5-1.77,2.53-3.52,2.68-2.49,5.78-4.62,7.04-8.32,1.79-1.17.98-.96,3.63-.81,1.9,4.44-2.99,4.72-5.53,11.44-.43,1.15-.59,2.1.35,3.01,1.02.98,2.12,1.13,3.32.29,4.1-2.86,9.5-4.22,11.25-9.78,2.07-1.16,3.45-3,4.85-4.82,1.11-.32,1.53-1.37,2.23-2.12.77.47.88,1.29,1.12,2.05-.48.53-1.18.99-1.39,1.62-.55,1.66-1.63,3.47.1,5.04,1.9,1.72,2.86-.35,4.29-1.02,1.49-.7,2.05-1.98,2.98-3.03,4.19-3.24,6.91-8.61,8.51-8.5,1.86-1.03,1.67.85,2.27,1.6,1.18,1.57,1.35,3.32.89,5.18-1.9,2.22-2.57,4.46-.08,6.74.69,1.06,1.99.41,2.84,1.02-.09.61-.13,1.19.62,1.43.11,2.73-.11,1.44,1.05,5.81.03.18.07.36.14.52.93,5.28,1.04,10.05,4.27,5.81,1.37-3.6.92-7.4,1.18-11.11-.03-3.32.94-5.32-.14-7.66.62-1.66-.59-3.9,1.6-5.07,1.59-1.05,3.27-2.01,3.76-4.07,3.92-3.56,2.69-2.7,5.49-4,.19,2.89,1.25,5.77.15,8.68-1.52,1.96-.55,3.07,1.31,3.89.51,1.18-.25,2.61.73,3.69.14,1.26-.91,2.63.35,3.79.06,1.51.13,3.02.18,4.53.04,1.26,1.02,1.96,1.9,2.24,1.06.35.7-1.38,1.57-1.64,1.17-.89.71-2.19.79-3.33.32-4.47.58-8.95.86-13.43,1.66-1.54,3.78-2.66,4.56-5,4.07-3.43,5.55-6.04,6.51-7.51.79.56,1.35-1.25,2.18-.21-.09,1.09-.38,2.2.41,3.17-.1.21-.07.4.08.57-.1,1.22-.19,2.44-.29,3.66-3.89,4.02-7.33,8.4-10.24,13.17-.8,1.31-1.69,2.99.33,4.15,3.51,2,5.52-1.61,9.43-6.13,3.84-.45,1.02,2.65,2.65,5.37-.09.67-.18,1.34-.28,2.02-.57,1.46.8,2.94-.06,4.4-2.26,4.65-6.41,7.96-8.82,12.51-.89,1.67-2.69,3.08,0,4.89,2.61,1.76,4.24.29,5.54-1.5,2.43-3.34.44-.51,41.79-44.36,1.1.61.6,1.21.17,2.06-2.8,5.58-7.41,9.87-10.72,15.08-1.3.32-2.41,1.32-2.73,2.32-1.64,5.01-6.47,7.38-9.16,11.62-4.75,7.49-11.33,13.75-15.1,21.97-.98,2.14-2.48,4.7-.38,6.3,1.87,1.42,3.73-.9,5.17-2.3,4.28-4.14,8.24-8.56,11.77-13.37,2.15-2.93,5.16-5.21,6.65-8.67,1.8-.54,2.32-2.16,3.04-3.61.23-.26,2.32-1.01,4.24-4.8,1.23-1.03,2.42-2.09,2.95-3.68.52-.5,1.05-1.01,1.57-1.51,1.81-.45,1.68-2.27,2.44-3.46l-.02.03c1.16-.33,2.17-.88,2.05,1.31-.16,3.12.15,6.26.26,9.39.07,1.92-1.1,2.52.48,5.19-.04.57-.14,1.22.65,1.35,1.11.17.95-1.17,1.67-1.49,2.17-2.73,2.61-5.68,1.18-8.89,2.85-.14,1.04-2.37,1.59-3.55.35-.81-1.03-1.38-.31-2.24-.51-1.57.7-2.82.78-4.28,1.13-2.37.51-5.01,1.11-7.46h-.04c1.74-.55,2.22-2.25,3.2-3.5,1.07-.74,2.51-1.18,2.36-2.92.5-.48,1-.96,1.5-1.44,2.71-1.44,4.08-4.24,6.28-6.2.13,0,.88-1.37,3.92-5.16,2.58-1.9,1.84,1.17,2.73,1.81-.22,1.41.16,2.74.45,4.08-.22.31-.45.62-.72.89-19.35,19.2-22.08,21.18-19.38,24.2,2.66,2.27,3.92.1,17.56-12.96,1.42.19,3-3.98,4.27.11.27,2.03-.72,4.16.45,6.12-.04,1.31.35.47-2.58,4.76-2.11.94-2.13,3.55-3.82,4.82-3.25,3.62-7.1,6.78-8.84,11.55l.07-.07c-1.29,1.36-3.33,2.72-1.37,4.76,2.22,2.31,4.58-.3,6.68-2.73,1.5-.41,2.27-1.66,3.16-2.77,1.62-.83,2.8-2.12,3.81-3.59,1.02-.94,2.03-1.88,3.05-2.82.87-.57,1.68-1.19,2.12-2.18,1.1-.91,2.19-1.82,3.29-2.73,1.84-1.63,4.49-2.37,5.44-4.98,1.3-1.19,5.49-4.88,7.51-6.54,1.36-1.12,2.83-3.78,4.01-3.07,1.85,1.11.57,3.71.27,5.68-.97.97-.88,2.02-.23,3.11.73,4.77.44,4.21.73,4.78-1.47,2.52-1.25,3.95,2.14,3.36,1.78-.82.33-2.45.89-3.58.1-1.13.2-2.26.3-3.39,2.52-3.61,7.16-3.78,8.59-7.2,1.46-.7,2.92-1.39,4.38-2.09-.08.47-.16.94-.25,1.41-.74.36-1.66.95-.96,1.72.54.59,1.5.16,1.85-.79.52-.16,1.2-.04,1.36-.8,1.58-1.22,6.34-4.88,7.14-5.49.02-.35-.02-.31.18-.4,1.98.37,2.44-1.02,2.85-2.47,5.23-5.06,10.47-10.11,15.69-15.18.97-.94,2.13-2.16.97-3.45ZM365.69,108.96s-.02-.02.22-.22c.72-.59.29-.28-.22.22ZM357.77,109.07c.33-2.04,1.67-3.05,2.55-4.36,1.58-2.33,4.48-3.57,5.28-6.5-.09-.69,5.98-2.66,7.5-7.36.59.42,1.48.61,2.2.64.02.11.04.23.05.34-.41.88-.4,1.96-1.28,2.61-6.35,4.01-5.57,6.69-16.31,14.63ZM380.09,85.72v-.02c2.07.12,3.07-1.66,4.54-2.61.07,0,.14-.35.07-.59.45,0,.81-.15,1.14-.37-1.95,2.42-3.39,2.65-2.95,4.26-.8.06-1.33.64-1.88,1.18-1.88,2.47-1.78,1.93-3.08,2.89-.16.11-.09.11-.5-.15,0-.02.01-.04.02-.06.03-2.01,2.18-2.78,2.65-4.54ZM369.56,69.08c-.31.95-.07,1.63.83,1.95-1,.62-1.9,1.16-2.04,2.32-.9.39-1.82.77-2.45,1.56-.37-.3-.89-.43-1.36-.49,2.09-2.38.3-3.31.85-3.27,1.55-.39,2.86-1.22,4.17-2.07ZM363.69,78.33c.02-.36-.13-.21,1.55-.97-.76.83-1.35,1.88-2.3,2.47.33-.45.63-.92.76-1.5ZM362.76,85.84c.02-.2,0-.41-.04-.61,2.52-2.4,5.02-4.82,6.45-8.1.62.29,2.42-.9,2.83,1.55.25,1.49.49,3.11,2.07,3.85-.88,1.14-1.25,2.23-.34,3.19-.2,1.49-1.25,3.08-1.16,4.07-2.95,2.05-6.17,3.77-8.39,6.72-.08-.02-.16-.04-.25-.06-2.99.94-4.4,3.65-4.86,3.68-.1,0-.29-.06-.31-.13-.47-1.81.27-3.48.44-4.46,1.98-1.19,1.2-3.19,1.05-5.01-.15-.23-.35-.59-.56-.76,1.73-.75,2.45-2.3,3.05-3.94ZM357.46,83.36c0-.09.1.09.48.08-.22,2.14-1.77,3.86-1.97,6.01-1.44-.26-2.15,2.27-3.26,1.33-1.54-1.31.75-2.52.8-4.1,2.31.17,3.14-1.56,3.94-3.33ZM330.75,101.96c.99-1.11,1.27-1.04,2.66-3.69.07-.14,0-.1.61-.09-.26.92-.53,1.84-.79,2.76-1.63-.78-2.84,2.17-2.48,1.03ZM335.88,110.02c-.08-1.68.4-3.19-.6-4.46.54-.49.6-1.12.46-1.81-.15-.31-.33-.59-.54-.85.09-1.7,2.12-2.19,2.61-3.64,9.85-7.82,8.22-6.68,10.21-7.74,1.9,1.61.99,3.67.04,5.91-4.64,3.53-7.79,8.55-12.17,12.6ZM347.7,85.96c-.26,1.2-1.36,2.81-1.16,3.91-3.64,2.01-6.27,5.25-9.47,7.8-.36-.12-.57-.29-.68-.49,1.79-4.29,4.33-5.47,4.27-8.64,3.1-.63,3.61-4.09,6.06-5.64.78.81.39,2.22.98,3.07ZM345.91,77.22c.22,1.12-.38,1.83-1.25,2.39-2.34,2.28-5.08,4.26-5.75,7.77-.45.12-.43.21-.57.18-1.42-.91-.06-2.69-.62-3.87,1.28-.56.68-3.4,3.66-5.16.78-.53,1.61-1,1.9-1.98h0c.73.76,1.92-.24,2.62.68ZM344.21,68.54c0,1.57.72,3.2-.37,4.7.02.32-.49-.95-2.71.85.89-1.93,1.54-3.99,3.08-5.55ZM330.76,86.84c.51-.15.82-.51,1.05-.94.87-.81,2.8-2.05,4.09-2.12-1.08,6.15-.75,5.17-3.24,10.85-2.17-.23-3.31,1.38-4.41,3.44-1.76-1.45-.29-4.21-1.92-5.71.02-2.24-.12-.08,3.15-4.96.73-.09.87-.23,1.28-.56ZM323.85,130.62c1.19-1.51.97-1.7,3.53-3.27.11-.07.23-.11.35-.15.2.17.35.39.46.65-.12.12-.45.36-.42,1.14-2.5.09-3.69,3.52-3.92,1.64ZM326.62,99.27c.08.05.1.02,0,.07,0-.02,0-.05,0-.07ZM329.67,126.78h-.01s.01,0,.01,0ZM313.47,58.29c-.62-1.04.17.56,1.49-.1.72,1.33,1.09,2.96,2.74,3.49-.62,1.18.3,2.76.24,4.1.76,3.49.99,7.17,3.51,10.01-3.2,2.72-12.09,9.65-13.18,13.7-.41.45-.83.9-1.55.96-.8-3.64,1.07-7.07.81-10.65,1.68-2.9,4.52-5.06,5.53-8.39.19.02.38.04.57.08,2.37-1.11,3.58-3.09,4.12-5.56-1.7-2.6-3.2-2.69-6.88-.29.6-1.39.67-1.88.04-3.26.02-.04.65-1.44.68-1.42,1.51-.27,1.91-1.31,1.87-2.67ZM308.68,93.85c-.51.71-1.18,1.3-1.69,2.01.88-1.26.33-1.67,2.07-2.83.03-.16.05-.32.07-.48,1.5.75-.59.81-.45,1.3ZM298.7,93.95c.55-5.37,3.84-4.95,4.98-9.45.86.67.28,1.82.33,2.75.11,1.7-.53,3.48.25,5.11-.46.26-2.55,2.39-3.57,4.19-1.33-.05-2.21-.5-2-2.59ZM306.73,96.27c.04-.07.09-.15.13-.22-.05.07-.09.14-.13.22ZM301.21,119.62c.93,1.68.16,3.42.12,5.15-.24.23-.31.96-.17-.69-.03-1.37.36-2.8-.31-4.08.09-.14.21-.26.35-.37ZM302.52,111.48c-.05.15-.11.29-.14.46-.05.09-.1.18-.15.28-.97-.09-1.34-.9-1.73-1.7.15-.37.24-.53.46-1.02.89.07,1.44-.91,2.36-1.65-1.1,1.36-1.19,2.49-.8,3.62ZM306.48,74.86c-.22,1.63-1.98,3.42-1.81,4.04-.06-.07-.13-.14-.21-.21-3.47.78-3.86,5.29-7.46,6.15-.43-1.35.56-2.04,1.15-2.89.36-.56.77-1.07,1.21-1.56,1.1-.79.65-.89,2.18-1.96,1.14-.91,2.37-1.75,2.72-3.28.8.43,1.5-.05,2.22-.29ZM287.18,98.57c.18.21.28.2.21.21-2.96,3.71-6.29,7.12-8.81,11.17-.62.09-1.46.77-1.07-.8.44-1.77,1.59-3.5.81-5.44.79-.57.56-1.53,2.54-5.13.51-.52.22-.76,1.22-1.6.78-.69,1.88-2.15,2.87-3.04.43-.42.78-.81,1.05-1.31.78-.16,1.04-.89,1.39-1.53.13,0,.26-.03.39-.06,3.67-1.5,3.62-4.32,5.08-3.82,1.43,2-.02,3.37-1.07,4.87-1.52,2.17-4.11,3.58-4.61,6.48ZM256.74,104.68c.62-2.54,1.7-4.81,3.81-6.47.14-.3.34-.62.53-.93.82-.7,1.32-1.68,1.9-2.59.07-.01.14-.03.21-.04,1.22,2.31.42,4.71.28,7.08-2.06,2.12-2.6,2.12-3.43,3.15-1.15,1.44-2.29,1.21-3.5.58.3-.21.34-.5.2-.78ZM272.19,77.04c.67-1.22.97-.44,1.83-2.13.9-.89,1.86-2.1,1.98-3.55-.01-.39,3.38-1.94,4.16-4.73,2.12-1.01,1.93-3.12,2.75-2.87-.08.37-.32.56.23,1.5-.37,1.86-.74,3.73-1.12,5.59-2.93,3.45-2.48,3.07-3.17,3.21-2.9,1.9-5.53,4.07-7.33,7.1-.68-.84-.57-.55-.38-.98.35-1.04.47-2.17,1.05-3.14ZM294.44,63.96c.12.2.23.41.3.63-.2.03-.4.07-.59.14.19-.2.32-.44.29-.77ZM290.46,66.87c.38.18.61.39.76.6-.24.65-.44,1.33-.91,1.86-1.89,1.85-3.17,4.49-3.42,5.91-.92,1.05-.5.7-1.15.79-.79.32-1.59.52-2.42.57-.48-5.38,4.1-7.03,7.15-9.73ZM259.04,114.87c-.72-1.09,1.38-2.92,2.22-3.89.18.1.37.13.57.1-.47.75-.72,1.56-.45,2.49-1.34-.1-1.45,1.51-2.34,1.3ZM268.91,90.23c.91,1.11.58,2.57.99,3.78-.57.96-3.25,2.31-4.5,4.65-.37-1.62.11-3.29.03-4.92,2.01-1.13,1.98-2.68,3.48-3.5ZM280.95,76.96c-.07,1.12-.06,2.92-.86,3.81-1.02,1.99-3.52,4.52-3.92,6.22-1.34.12-1.79,2.07-3.16,2.2-1.38-4.04,2.11-4.97,7.94-12.23ZM265.01,108.55c-.99-1.23-.2-2.26.69-3.5.77-.98.61-.98,1.31-1.71,1.15-.86.78-.77,1.72-1.34.64-.45,1-.93,1.43-1.51.37.29.54.67.62,1.09-.91,2.21-3.71,4.73-5.77,6.96ZM275.58,104.74c.05.73.31,1.21.39,1.59-.58.7-1.01,1.46-.87,2.44-.11.15-.22.3-.33.45-.2-.26-.31-.46-.42-.68.08-2.14-.18-2.91,1.23-3.79ZM273.58,99.83c-.34-.22-.57-.7-.75-1.25.21-.17,4.58-6.33,5.45-7.73.15-.07.27-.11.37-.12.47,1.04-.01,3.22-.15,4.08-2,.81-3.08,4.71-4.91,5.02ZM282.81,63.38s-.01-.02-.01-.02c0,0,0,.01.01.02ZM268.42,82.38c.26.15.38.42.45.73-.37.37-2.48,3.02-2.86,3.62-.2-.4-.01-.92-.1-1.35.81-.63,1.74-2.26,2.5-3ZM263.26,87.95c.08-.14.17-.28.26-.41.27.2.47.47.63.78-1.14.63-2.9,2.81-3.06,4.65-.57-.04-1.2-.4-1.69.95.06.09.11.17.17.26-.37.23-.67.54-1.05.74-.34.18-.36.68-.8.73.31-.35.59-.72.97-1.01,1.03-2.49,2.2-2.45,4.58-6.69ZM260.02,126.57c-.7-2.36.12-4.65-.88-5.96.06-.07,2.44-2.88,2.68-3.28,1.78.39.32,2.08.67,3.05-1.49,2.62-.43,5.63-1.21,8.37-.46.23-.99.81-1.88.87.79-.84.69-1.94.61-3.04ZM263.73,127.12c-.72-.03-.87-.6-.85-1.33,1.75-.9,1.04-3.72,1.68-5.81.35-1.65,1.11-3.33,0-4.89,1.19-1.12,2.05-2.53,3.3-3.59.19-.17.35-.37.51-.57.61-.21.95-.73,1.27-1.28,1-.54,1.55.61,2.11,1.14-1.16,2.19,1.75,4.89-.61,7.16-1.26.91-1.58,1.47-1.88,2.22-.6.56-.85,1.37-1.21,2.09-2.67,1.22-2.57,3.1-3.75,4.25-.2.2-.4.4-.59.6ZM293.5,79.16c-4.64,8.32-7.58,6.06-8.15,10.38.03.18.08.34.15.49-.44.43-1.48.13-1.46,1.11-2.56,2.65-1.88,1.99-3.09,2.99-1.01-.49-.52-1.45-.7-2.2.17-.04.33-.11.48-.22,3.32-3.16,1.3-8.15,5.46-11.19.08-.08.14-.16.21-.25.55.06.91-.32,1.26-.73,1-1.22,1.03-3.53,2.63-3.82,2.35-.42.9,3.54,3.22,3.44ZM287.95,60.19c1.06.86,1.17,2.32,2.07,2.51-.35.68-.37,1.41-.36,2.14-1.52.1-2.64.72-3.27,1.95-.17-2.28.07-4.5,1.56-6.6ZM275.26,66.37c1.83.3,2.65-.8,3.05-2.47-.01-.14-.04-.26-.08-.37,1.02.16,1.5-.41,1.74-1.29.54.1.99-.18,1.42-.54.23.26.2.17.1.34-.2.5-.27,1.25.13,1.62-.94.04-1.69.44-2.18,1.29-1.85,1.28-3.53,2.7-4.42,4.83-1.04-.32-4.3,3.11-4.5,3.29,1.22-2.47,3.77-4.07,4.73-6.71ZM267.95,76.26c-.1.08-.2.15-.3.22.26-.5.25-.4.3-.22ZM218.42,112.09c-.99.28-1.61,1.53-2.75,1.47-.87-2.04-1.36-3.9.2-5.66,1.71-1.93,3-4.2,4.92-5.95.15.54.31,1.08.46,1.62.12,6.79-1.73,5.77-2.82,8.51ZM128.48,114c-.22.23-.11.22-.67-.13,0-.25,0-.5-.23-.92,1.54.38,2.4-.68,3.29-1.69-.13.13-.85,1.38-2.38,2.74ZM134.66,115.35s.02,0-.05.12c.02-.04.03-.08.05-.12ZM135.96,105.45c.59-.84.98-1.74.24-2.91.55.2,1.34-.13,1.7.62-.6.85-1.2,1.64-1.94,2.29ZM135.46,101.24s-.08.1-.11.15c-1.8-1.08-1.31.73-1.74,1.38-.18,0-.35.03-.52.09-2.6,2.77-5.22,5.52-6.79,9.06-1.61-.56-1.98.1-2.08-.19-.83-1.41-.64-3.14-1.41-4.57.04-.08.1-.15.14-.22,0,0,.02,0,.02,0,4.79-3.63,8.48-9.85,10.08-11.89.64.62-.03,1.89.46,2.58-.08.72-.16,1.44-.23,2.15,2.5-.14,1.35-1.35.93-2.35,0-.1-.03-.23-.12-.42,0,0,.02-1.97.03-2.96,1.59-1.26,1.61-2.11,2.13-2.84,1.53.1.48,2.49,1.53,3.01.13.07.26.17,0,0-.23.9.1,1.66.48,2.41-1.51,1.29-3.04,2.74-2.79,4.6ZM111.84,126.64c-1.36.71-3.27,6.25-6.35,5.14,0-.15.01-.3.03-.45,2.6-2.02,4.47-6.47,4.48-6.54.26.16.52.22.78.14.22.39.53.67,1.01.71.07-.03.02-.15.05,1ZM83.3,117.35c1.38-1.09,2.43-5.07,4.39-.98-.72,1.41-.07,3.61-.21,5.8,0,.09.02.18.03.27-1.16,1.44.09,2.2-2.22,1.58.13-1.42-.6-2.56-1.21-3.75.45-1.16-1.11-1.79-.77-2.92ZM70.54,66.82h.01s-.02,0-.02,0h0ZM76.88,85.03c1.44,1.64,1.14,4.08,2.77,5.39-.49.27-.73.38-.89,1.39-.37.42-.74.84-1.12,1.25-.47-.46-.99-.8-1.67-.79,2.36-2.05-.21-4.78.9-7.25ZM83.24,75.53c1.13-1.36,1.66-3.19,1.82-5.04.47.32.69.39,1,.49.78,1.86-.46,4.49.79,5.87.07.01.13.01.2.02-.19,1.66.91,3.42-.38,4.99-1.26,1.42-2.62,2.77-3.76,4.29-.56.75-1.02.91-1.46.72,0-1.67-2.51-6.16,1.78-11.34ZM108.93,87.62c-.16.09-.3.2-.45.31.13-.11.28-.22.45-.31ZM128.46,75.34c.57-.1,1.06-.64,1.63-.73-.18,1.04-.2,2.06.35,3.02.04,1.28-.23,2.61.67,3.73-.07.75-.14,1.49-.21,2.23-6.34,5.69-7.47,9.07-11.66,13.17-2.26-2.91-1.5-5.53.64-8.28,2.03-2.61,3.89-5.37,5.95-7.97,1.22-1.55,2.42-3.13,2.63-5.17ZM88.85,115.27c.01-.05.02-.11.03-.16.97-.98.43-2.32.82-3.44.94-2.72,2.43-3.27,5-1.82-.35.3-1.35,2.68-.89,5.63-.47.29-1.29.35-1.47,1.56-.6.65-1.13.51-1.66.25-.47-.58-.77-2.1-1.83-2.01ZM89.22,131.93c-.57.42-.04.08-1.66.34-.34-.29-.32-.82-.26-1.37.22-.24.43-.48.6-.76.67-.6,1.09-1.3,1.2-2.11,1.13,1.08.09,2.6.12,3.91ZM79.13,114.24c.57.86.26,1.88.17,2.86-.44-.87-.44-1.83-.17-2.86ZM73.85,75.74c.42,1.56,1.23,3.07.6,4.79-.38.7-.32.03-.73-.51.37-.92-.09-2.7.14-4.28ZM74.82,92.96c-.45.53-1.22,3.56-1.36,4.24-.4-2.36-1.59-4.83-1.61-5.52,1.15-.45,2.09.3,2.98,1.28ZM76.84,99.87c.11.78.14.58-.11.75-1.29,2.8,1.32,5.56.03,9.18-.07-4.35-3.8-8.57.08-9.93ZM78.44,98.29c.22-.63.3-1.34.28-1.97-.01-1.38-.39-.47.96-2.73,2.74-.1.55,3.13,3.64,6.12-.05.23,0,.43.17.6.1,1.98-1.29,3.26-2.22,4.76-1.61-1.09-1.13-3.61-2.91-4.58.07-.74.16-1.48.08-2.2ZM88.56,84.78c-.47.88-.8,1.74.23,2.31.03.17.06.34.11.51.85,2.2,1.06,5.83.85,6.34-1.51.61-1.94,1.94-2.35,3.3-.46,0-.85.19-1.18.53-.29.53-.28-.13-1.39.63,0-.39-.25-1.13-.5-1.88.01-1.64-.42-1.06-.65-2.28-.57-1.6-.4-3.29-.65-4.93,2.46-.74,3.71-3,5.52-4.54ZM87.5,107.9c-.27-.7-.86-.95-1.07-.93.18-.44.17-.85-.14-1.22.52-1.65,2.57-6.69,2.28-7.53l1.06-.71c.72-.04,1.35-.85,2.15-.27-.17,1.37.45,2.69.65,4.04-.79,2.11-.53,1.33-4.92,6.62ZM96.74,108.4h-.01s.01,0,.01,0ZM103.09,109.98c.65-2.54,1.32-2.79,2.31-4.18.46-.64,1.14-.76,1.6-2,.06-.16.03-.1.51-.67.33-.03.64.62.97.72-.42,1.3-.15,2.48.56,3.59-.13.09-.25.2-.36.35-.57,4.41-5.04,6.59-6.18,10.35-1.04-.23-.61-1.69-.59-2.45-.64-2.12.36-3.89,1.18-5.7ZM103.81,121.72c.38-.33.66-.74.89-1.19,1.58-.21,3.06-1.85,4.03-2.81.54-.61.81-.26,1.07.08-.14.06-1.03-.37-1.24,1.71-.05.79-.04.62-2.17,3.15-.11.11-.22.22-.33.33-1.21.13-.98,1.78-2.08,2.05-1.2-.85-.52-1.53-.19-3.32ZM126.57,97.04c-.06-.09-.1-.17-.11-.26.03.09.07.17.11.26ZM121.98,101.62c.02-.21.08-.37.18-.48-.08.15-.14.31-.18.48ZM130.54,91.44s-.03.04-.05.06c.02-.02.03-.04.05-.06ZM111.09,106.61c-.15.13-.49.38-.76.44-.22-1.11-.2-2.3-1.06-3.2-.6-3.48,3.43-6.41,4.68-9.23,3.09,4.88,1.06,8.64-2.86,11.99ZM101.92,104.59c-.37,1.2-1.24,1.77-2.22,2.23-1.43-.41-.31-2.19-.89-3.22-.11-.2-.31-.36-.47-.53-1.21-1.29-.62-2.55-.66-2.72,2.91-.22,3.15-4.39,7.1-6.77.24-.22.47-.45.67-.71.72-.34.66,1.26.91,1.71-.28.58-1.1,4.09-.99,5.79-.29.52-2.12,1.34-3.44,4.22ZM105.08,69.5c.28-1.97-.68-1.59.03-1.97,1.05.36.34,1,.25,1.56-.08.15-.19.28-.28.42ZM104.28,81.61c-.61,1.01-.86,1.96.36,2.64-.4.92-.48,2.13.2,2.87-.69.62-.8,1.84-2.24,2.95-2.29,1.85-3.84,4.31-5.49,6.68.09-1.53-.46-2.98-.65-4.47-.97-3.38.79-3.54.92-5.56.82-.55.98-1.52,1.19-2.46,1.9-1.13,2.4-3.25,3.52-4.94.91,1.32,1.41,2.13,2.19,2.28ZM71.99,124.59c0,.13-.46.4-.13.93-.32-.1-.64,0-.95.11.15-.55.75-.66,1.08-1.03ZM75.76,126.85c.86.15,1.29,1.89,2.38,2.64-.49,1.28.89,2.01.54,4.49-.32.41-.12.35-1.92.05-.08-2.4-1.9-4.72-1-7.17ZM83.05,106.68c.69-.26.55.06,1.64-.17.24.1.48.28.71.58-.43,1.13-.03,2.08.63,2.98-.78,1.05-1.56,2.1-2.34,3.14-.35-1.07-.88-2.04-1.63-2.88,1.08-.76,1.42-2.47.99-3.66ZM86.2,140.87c1.03-.03.29.73.49,1.07.02.68.13,1.33.7,1.75-.07.56-.15,1.12-.22,1.68-.68-.61-1.12-1.36-1.23-2.3-.08-.74-.31-1.51.26-2.21ZM165.33,84.57c-4.89-1.93-.16-7.71-1.31-11.49.52,1.13,1.16,2.22,1.98,3.23-.12.21-.22.43-.27.68.64,2.57-.11,5.07-.4,7.58ZM185.47,70.12c.68.34,1.92.55.05,1.6-.79.44-1.28,1.63-1.02,2.81-2.63-.57.18-2.36.98-4.41ZM188.07,100.19c-.08.97.35.42-.92,1.52-.95.22-1.5.49-2.14,1.35-.35-.85-.05-1.86-.08-2.79.31-.31.5-.75.43-1.44.08-2.78,3.22-3.92,3.53-6.59-.14-.21-.19-.43-.21-.65.49.18.99.87,2.47-.11-.43.76-.59,1.49-.02,2.1-.07,2.64-2.65,4.12-3.05,6.61ZM172.51,107.45c-2.34,1.28-3.65,3.48-4.98,5.67-.71,2.06-1.09,2.98-2.29.91.2-1.14.06-2.44,1.47-2.98.78-.16.71-.77.72-1.34.72-.92,1.12-.64,1.05-2.17,2.09.34,3.02-1.35,4.24-2.52-.39.73-.59,1.51-.21,2.45ZM159.95,123.19c-.88.86-1.35,1.97-1.71,3.14-.9,1.28-.59.66-1.61,2.35-.1-.21-.2-.42-.31-.64,0-.67.03-1.03-.17-1.82-.99-2.81,1.73-3.07,1.92-5.78.69-.19,1.38-.38,2.07-.58.86,2.15.75.91-.19,3.34ZM152.9,109.71c-.12.32-.3.55-.5.72-.21-.1-.4-.26-.57-.45.15-.77-.68-3.76.44-6.78.27-1.91.96-1.83,1.6-3.01,2.21,3.38,1.83,6.55-.98,9.52ZM154.47,115.18c1.18-.01,1.54-1.74,2.82-1.49.81.89.78,2.16,1.55,2.99-1.5,2.04-1.46,1.94-1.45,2.07-.43-.12-.97.07-1.28.68-2.16-.42-.97-2.8-1.77-4.02.04-.08.09-.15.13-.24ZM162.38,105.42c.87.72.48,1.76.73,2.61-.06,1.44-.13,2.88-.19,4.32-.54.77-1.07.86-1.58.5.89-2.24-1.13-4-.43-6.15.59-.58,1-1.26,1.47-1.29ZM185.5,91.37s0,.04-.02.02c0,0,.01-.02.02-.02ZM186.73,89.07c.22-.41.44-.91.72.02-.23-.09-.47-.1-.72-.02ZM181.36,84.66c.85,5.62-3.36,9.4-6.99,12.98-.37-1.8-1.06-3.25-1.2-4.77.17-.27.35-.52.59-.73,7.36-6.9,5.33-8.28,7.6-7.48ZM171.43,95.41c.59,2.6,2.06,5.25-.67,7.65-.9.91-2.15,1.53-2.43,2.95.41-.14-1.1.24-1.44,1.43-.49.43-.98.87-1.47,1.3-.6-1.68-.56-3.4-.46-5.11.28-.48.52-.99.8-1.47,2.05-2.11,3.63-4.62,5.66-6.75ZM161.32,100.48c-1.04.93-1.84,1.23-2.8-.31-1.82-2.95.94-4.55,1.39-5.83.82-.17,1.61-.19,1.65,1.07.04,1.27.47,2.52.52,3.79-.3.39-.56.81-.77,1.29ZM162.26,71.42c-1.23-1-.3-2.29-.67-5.04-.23-1.01-.17-.93-.06-1.1-.11-.37-.09-.72-.02-1.05,0,.59,1.23,5.79,2.24,8.24-.4-.48-.95-.75-1.49-1.04ZM153.68,94.85c-.7.77-1.1,1.73-1.02,2.81-.26.3-.51.61-.77.92-.33.1-.67.21-1.01.17-1.02-.46-.99-1.53-1.31-2.41.04-.06.08-.13.13-.19,1.37-1.06,1.73-3.53,4.02-3.32.57,2,.56,1.41-.04,2.02ZM143.19,94.6c.45-.06.9-.28,1.37-.18.38.32.23.68.05,1.04-.49.39-.93.9-1.48,1.2.26-.52.3-1.2.06-2.07ZM146.8,108.68c2.07-.58,1,1.64,1.62,2.44.24.31.63.96,1.06,1.01.04.18.07.36.09.54-.4,2.35.05,2.13-2.49,4.38-.63-.24-1.27-.13-1.92.37,1.26-1.64.13-3.4-.04-5.11-.16-1.58.19-3.2,1.69-3.62ZM149.13,126.38c-.2-.24-.34-.62-.5-.99.1-.11.19-.22.26-.36.4-1.65,1.29-3.09,1.91-4.64.08-.28.19-.55.32-.8.35.2.55.76.83,1.12-.14.3-.22.61-.22.93.23.83.06,1.67-.02,2.51-.18.48-.45.96-.84,1.44-.81,1-.84.9-1.74.78ZM179.32,109.22c-1.1-3.23,1.33-4.65,2.78-7.23,1.57.58,1.15,1.94.98,3.2-2.15,1.95-2.22,3.19-3.76,4.03ZM185.36,109.67c.77-.83,1.38-2.66,2.36-3.88.83-1.04,1.97-2.05,1.16-3.58.11.06.22.12.34.16,2.71-1.66,2.85.78,3.69,2.09-.79,1.24-1.95,2.43-2.48,3.47-2.28.39-2.82,2.32-3.26,4.34-.04.02,0,0-.22.1-.38-1.01-.02-2.61-1.59-2.69ZM203.62,87.58c.65.92,1.09,1.91,1.15,3.02-.92,1.86-1.32.98-3.14,4.29-1.01,1.76-2.6,1.71-2.23-1.37.03-.26.05-.52.08-.77.26-.49.5-.99.88-1.39,1.46-1.32,2.75-3.59,3.26-3.76ZM207.27,97.86c-.18.14-.36.29-.52.46-1.38,1.73-3.41,3.01-4.49,4.83-1.21,2.04-1.54.35-2.1-.12,3.36-1.81,3.51-6.09,5.79-8.2.97.72,1.02,1.94,1.32,3.03ZM192.72,113.09c-.3,1.06-.56,1.85-1.72,2.15-.61.15-1.29.29-1.59.64.53-1.12,1.06-2.23,2.16-2.96.31-.38.5-.78.26-1.23h.01c.72.21,1.09.43.88,1.4ZM198.35,106.2c-.08.18-.05.85.17,1.3-.79-.49-.78-1.34-.85-2.16.23.28.4.72.68.85ZM206.46,104.98h.02s-.02,0-.02,0ZM207.78,91.08s-.01-.04.02-.02l-.02.02ZM204.63,113.71s0,.03,0,.04h0s0-.03,0-.04ZM217.79,92.2s-.09,0-.17.05c-.68.76-1.48,1.45-2.19,2.23.64-.77,1.42-1.42,2.1-2.19,0-.28.17-.45.26-.09ZM209.18,95.3c-.3-.17-.6-.33-.9-.5-.97-1.14-.65-2.45-.48-3.74,1.94,1.17,4.36-3.39,12.07-13.5-.65,1.94-1.25,4-.18,6.12-.54.44-10.02,10.46-10.51,11.62ZM223.52,104.72c-.74-1.21.52-2.97-.68-4.06.02-.25-.01-.46-.14-.61.59-.7.92-1.55,1.19-2.42.6-1.92,4.05-3.47,6.29-7.3,2.48,7.13-3.52,7.83-3.37,11.06-1.05.66-1.98.99-3.28,3.33ZM238.91,81.07c1.01-.68,1.04.13,1.89,1.43-.21,1.9.02,1.17-.78,1.98-1.79,2.41-3.72,4.71-5.4,7.2-.99-4.25.54-8.1,4.29-10.6ZM248.42,79.78c2.02.28,1.73,3,3.18,3.36-.83,1.21-1.24,2.52-1.08,3.94-1.65,1.85-4.83,3.83-6.1,7.19-.12-.02-.05-.04-1.41,1.15-.21-.7-.34-1.39-.42-2.08.48-2.37-.18-4.94,1.41-6.28,1.64-2.33,3.8-4.33,4.43-7.27ZM236.62,101.99c-.01-.24-1.4-.42-1.63-3.5.25-.3.47-.62.66-.96,1.31-1.21,2.34-2.71,3.65-4.05.46.83.76,1.64,1.49,1.74-.07.37-.13.74-.2,1.11-.79.54-.56,1.39-.67,2.14-1.1,1.17-2.21,2.35-3.31,3.52ZM240.69,67.17c.07.08.13.19.18.36-.11-.01-.04.02-.18-.36ZM252.85,93.01c-.85,1.13-1.96,2.17-1.09,3.79-.44.23-2.43,1.82-3.33,3.28-.33.31-.7.64-1.08,1.21-.73,1.1-.97.83-1.93,2.33-.85.64-1.69.63-2.5,1.9-1.48-2.48.58-5.83.05-5.94,1.21-1.05,2.61-1.93,3.16-3.56.03.01.05.03.08.04,2.93-.6,3.22-4.17,5.8-5.15.23-.1.44-.2.65-.32.56.45.39,1.37.5,2.11-.1.09-.2.19-.3.3ZM248.9,71.89c.17.77.34,1.54.51,2.32-.64.55-.71,1.47-.37,1.96-1.62,1.81-3.12,2.25-2.97,3.13-1.18.53-2.04,1.48-2.96,2.36.41-2.32-.05-4.08.78-5.88.63-1.19,1.96-1.97,2.16-3,.89-.4,1.44-2.08,1.68-1.71.3.4.67.7,1.16.82ZM247.55,66.36c-.61,1.09-.47,1.58-.51,2.87.05.3-1.16.46-2.46,2.16-.22.05-.45.12-.67.18-.86-1.23-.24-2.62-.2-3.94.55-.35,1.58-2.88,3.84-1.27ZM233.25,77.93c.06-.21.04-.41-.02-.6.7-.83,1.39-1.67,2.09-2.5,1.9-.76,2.19-3.4,4.42-3.76.47-.1.92-.23,1.28-.48-.2.62-.16,1.24.19,1.88-.6.78-.06,1.74-.73,2.54-1.78,3.1-4.99,4.81-7.25,7.42-.9,1.04-1.59.29-2.32.1,1.27-1.28,1.61-3.04,2.34-4.6ZM230.33,82.94c-.28,1.53-.34,5.01-2.1,5.57-.73.36-.86.66-1.4,1.28-1.01.82-.88,1.02-1.74,1.43-.68.39-1.1.75-1.59,1.47-.15-.22-.31-.43-.51-.6.59-.5,1.13-1.03,1.52-1.71,1.29-3.15.55-1.74,2.21-4.19,1.43-1.04.83-1.41,1.91-2.36.51-.39,1.12-.6,1.69-.9ZM227.37,67.75c-2.36,3.83.91,6.4.53,6.76-1.57,1.83-3.14,3.66-4.66,5.53.27-3.47-.04-6.99,1.03-10.38,0-.29-.1-.61-.2-.94,1.55-2.23,1.34-2.08,1.34-1.85.99-.47,1.12,1.01,1.95.87ZM224.88,60.67c.39.9.43,1.85.49,2.8-.54-.35-1.15-.45-1.79-.46-.35-.16-.11,0-.08-.92.12-2.7.16-3.14-.28-4.89.27-.37.38-.79.41-1.23.52,1.53.59,3.21,1.25,4.7ZM207.97,82.21c1.1-1.54,3-2.55,3.22-4.68,2.76-1.29,5.09-2.98,5.81-6.2,1.49-.79,1.87-1.92,2.46-1.08.67.95-.18,1.79-1.02,2.38-4.03,4.16-7.04,9.13-10.87,13.46-.74.84-1.18,1.84-1.02,2.98-.34-.83-.68-1.65-1.02-2.48.19-.24.34-.53.4-.93.34-1.35,1.27-2.34,2.05-3.44ZM199.9,78.63c.69,1.31,1.04,2.8,1.87,4.04-.84.91-1.71,2.01-2.07,2.81.02-1.24-.25-2.15-1.26-2.65.02-.63.05-1.27.07-1.9.58-.75.45-1.1,1.39-2.3ZM193.87,86.09c.82-1.3,2.2-2.86,2.84-3.45.29.4.25.27.06.43-1.67,2.47.35,8.12-3.79,7.78.03-.38.01-.36.05-.39.82-1.11-.41-2.68.83-4.37ZM188.3,80.34c-.64.66-3.08,2.39-4.22,5.29-.11-1.73.21-3.53-.39-5.19.38-.64,1.75-2.21,2.24-3.87,1.91.45,1.74,2.39,2.36,3.77ZM181.56,61.65c.16-.01.34-.08.57-.23.88-1,.69-2.13.54-3.25.86,2.58,1.19,5.37,3.19,7.47.66-.28-.64.21-.31,1.5-.37.44-.43.75-.43,1.14-1.16-.53-2.01.67-3.22.47-.29-.61-.35-1.34-.5-2.03.89-1.66-.18-3.4.16-5.08ZM173.01,81.52c1.28-1.19.67-2.02.66-2.36,2.11,1.45,3.52-1.37,5.87-1.53-1.64,3.99-4.87,6.2-6.94,9.26-.05.04-.1.07-.15.1-1.31-1.8-1.46-3.59.55-5.46ZM169.14,89.51c-.08,1.52-1.56,3.14-2.29,4.49-.45.93-1.12,1.67-1.86,2.36-.57.16-1.54-.19-1.47-1.36.7-.72.18-2.23.56-3.21.49-1.29,2.51-2.8,2.86-5.2,1.37.3,1.31,2.11,2.2,2.92ZM159.33,90.73c-.34.32-.69.63-1.03.95-1.22,0-1.98.99-2.69,1.62-.8-.45.35-2.14-.24-2.73.27-3.41,2.74-3.81,3.65-6.64.63,2.21.59,4.52.32,6.8ZM147.27,76.14c.49-.74,1.15-.49,1.78-.39-.75,2.23-.23,4.05,1.48,5.49-.55.76-.86,1.74-.61,2.64-.38.34-.75.69-1.13,1.03-.82-.16-1.23.4-1.66.54-.76-.45-.35-1.59-.6-2.34-.23-2.42-.89-4.85.72-6.97ZM143.25,82.99c.21.14.37.35.52.57.17,1.06.42,2.12.55,3.18-.49,1.41-.16,3.19-1.63,4.16-.65.72-1,1.53-.84,2.48-1.5,1.68-2.5,1.2-3.35-1.4-.49-1.49-.49-2.85-.14-4.16.38-.58.78-1.15,1.25-1.67,1.44-.77,2.12-2.44,3.64-3.16ZM132.86,74.9c-.53.95-.92,1.85-.06,2.44-.29,2.69.95,3.68.89,3.75-1.33-.84-.88-1.9-1.78-2.16.07-.71.23-1.44.01-2.12.19-.56.29-1.1-.15-1.91.15-.05.28-.13.39-.24.66.49.83-.02.69.24ZM125.43,70.84c1.18-.99,1.01-.92,1.27-.84,1.15,1.04-.45,2.25.1,3.33-1.53.2-2.17,1.62-3.01,2.69-5.7,7.16-7.2,10.69-10.41,9.9,3.43-6.64,11.18-11.77,12.05-15.08ZM112.15,86.29c-.49.81-.37,1.62.04,2.43.54.76.61,1.63.65,2.49,0,1.17.24.71-1.2,2.08-.07.06-2.49,2.13-3.15,2.81-1.77-7.12-1.03-6.45,1.51-9.97.71.19,1.41.36,2.15.16ZM108.06,73.55c-.33,1.73-.13,3.3,1.34,4.51.19,0,.33-.02.45-.06-.6.88-.79,1.65.11,2.15-.36,1.06-2,4.05-1.45,5.02-.62-.12-1.17-.11-1.29.71-1.57-.59-.34-2.27-1.21-3.13-.22-1.05.18-2.21-.57-3.16.11-1.03.08-2.04-.28-2.99.69-1.22,1.2-2.53,1.94-3.72.22.33.51.58.95.67ZM94.59,75.24c-.02-.19-.05-.13.14-.06,3.16-.94,4.46-2.82,4.49-5.02,1.14.72,2.06-.06,3.49-1.05.34.79-.18,1.87.5,2.55-.74,1-.78,2.59-.86,3.75-.43.7-.85,1.4-1.28,2.09-2.02,1.43-2.56,3.91-4.03,5.72-.52.72-1.04,1.43-1.56,2.15-.19.1-.25.24-.18.45-2.49.3-.5-2.36-1.86-2.81-.32-1.78-2.49-3.36-.6-5.39,1.04-.45,1.12-1.61,1.75-2.37ZM82.04,65.58c.59-.54,1.55-2.26,2.33-.02.06,1.55-.52,1.65-.89,3.27-2.59.6-3.1,3.47-4.98,4.74-1.08-.29-.81-1.19-1.48-2.41.02-.06.05-.12.07-.18,1.83-1.64,3.15-3.76,4.96-5.41ZM69.48,80.6c1.14-.89,1.51.55,2.46.77-.67,1.76-1.42,3.51-1.08,5.46-.27-.09-.52-.15-.8-.09-.66-2.95-2.2-4.87-.58-6.15ZM63.31,76.63c0-.18-.06-.4.13.51-.06-.17-.1-.34-.13-.51ZM66.44,88.34c.05-.08-.04-.03.28,1.13-.45-.74-.42-.35-.28-1.13ZM66.37,87.14c-.34-.48-.46-.52-.72-.56.09-.29.15-.59.25-.88.47.75.45.21.47,1.45ZM62.51,72.65c-.12-.46-.24-.91-.34-1.37.18.01.35-.03.52-.14.16,0-.28.35-.18,1.51ZM53.4,79.67c.21-.43,3.99-7.96,4.4-8.61.32-.34.71-.55,1.36-.34.19.39.38.79.58,1.18-.46,2.9,2.36,7.7,2.48,10.6-1.02,2.06-4.38,3.88-4.02,6.95-1.25.2-2.46.08-3.65-.4-.11-2.61-1.7-4.93-1.95-7.51.3-.61.58-1.23.81-1.87ZM51.39,83.86c.26.27.07.08,1.97,5.71-.07.13-.14.26-.19.41.79,5.79-2.68,8.49-3.05,9.24-.44-.7-.88-1.41-1.32-2.11.17-1.65-.06-3.2-1.15-4.53,0-3.42-.24-2.31.94-4.1,2.15-2.49,2.39-3.83,2.79-4.61ZM24.64,114.58c-3.1,2.47-5.06,5.77-6.74,9.28-.23,1.33-.76.43-1.55,2.43-.23.19-.48.37-.73.55-2.06,2.66-4.97,4.71-5.86,8.21.01.02.02.04.04.06-3.1-.28.03-2.91.31-4.69,3.63-2.44,4.79-6.26,5.44-10.37-.05-.11-.11-.22-.17-.32,1.98-.91,2.31-3.08,3.43-4.65.93-2.44,2.22-3.3,1.41-4.41,2.14.16,3.13-5.12,9.81-15.08,1.76-2.62,3.79-5.63,3.07-9.27.33.05.77-.02,1.01-.24.85.51.36,1.77,1.17,2.31.76.08.47,1.51,2.15,1.06-1.6-1.36-.56-3.45-2.03-4.82,0-.3.01-.6.02-.89,2.19-4.41,4.17-7.14,3.79-9.25.67-1.26.87-2.78,2.07-3.74.68-1.65,2.6-2.89,1.67-5.08.55-.49,1.1-.97,1.66-1.46,1.43.6,1.2,2.24,2.01,3.22.09.67.12,1.37.74,1.82.27,1.28-.02,2.74.97,3.79-.13.14-.24.32-.34.51-.37,2.17-2.03,5.38-1.86,6.68-.44.21-.77.05-1.02-.9-.36-1.37.12-2.99-1.12-4.12.28-1.46.48-2.91-.89-4.42-.32,1.48-1.05,3.89.38,4.53-.6,2.27.19,4.34.92,6.41-.29.19-4.16,5.41-3.29,7.07-.52.86-1.04,1.72-1.55,2.58-.54.95-2.23.69-2.28,2.15.1.04.21.05.31.07-.24.33-1.87,1.23-2.06,3.77-2.24,1.45-3.27,3.75-4.03,6.24-.02.29-.02.57,0,.84-6.52,10.36-5.98,9.81-6.86,10.14ZM43.35,90.11c.02-.07,0-.04.05-.1.31.15.15.08-.05.1ZM37.6,118.82c-3.63,2.19-5.95,5.45-7.64,9.24-1.99.45-4.35,4.13-7.24,6.29,3.04-3.6,1.76-3.91,3.24-6.66.44-.64.94-1.69,1.19-2.72.75-.33,1.05-.88,1.16-1.52,2.38-4.07,4.92-7.58,5.44-9.61.97-1.07,1.54-2.38,1.85-3.86,1.25-.17,1.51-3.12,2.89-4.48.62-1.07.35-.82,1.84-3.56.65.3.96,1,1.41,1.54-.25,2.12,1.74,3.5,2.18,5.4-2,2.89-5.74,5.79-6.31,9.96ZM44.78,107.39c-.94-1.19-.85-3.01-2.18-3.96-1.27-4.02-1.23-3.44-.86-4.11,1.12-1.42.59-1.34,1.91-3.05.9-1.21,1.51-3.21,2.37-4.27.32.18.97.54.97.54-.3,1.67.22,3.13,1.1,4.51-.3,1.59.71,3.13.79,4.71-1.29,2.19-1.11.41-4.1,5.64ZM51.8,106.6c1.44-2.31,1.43-5.57,4.72-6.09,0,0,0,.01-.01.02.84,3.99-1.63,6.92-3.24,10.12-.02.04-.05.07-.07.11-1.31-.96-.79-2.85-1.4-4.16ZM41.61,141.31c-.06,0-.13.02-.19.03.06-.01.13-.02.19-.03ZM47.76,132.29s-.04-.02-.07-.02c-2.07.79-4.46,1.27-4.35,4.13-.57.19-1.04.55-1.5.96-.51.02.06.51-.27.15-.37-.39.49-.8,1.15-2.81.18-.39.36-.79.54-1.19,1.02-1.16.5-1.47,1.79-3.5,3.59-2.45,4.54-5.85,5.14-6.92,1,.16.83,1.78,1.6,2.23-.2,1.06-1.02,1.93-.91,3.08-1.73.72-3.12,1.71-3.11,3.88ZM52.55,124.5c-1.1-3.27-1.59-2.58-1.17-3.25.82-1.17,1.19-2.72,2.6-3.39.15,1.11.37,2.2,1.05,3.15-1.06.99-1.13,2.73-2.48,3.49ZM56.79,120.37c-1.59-.13-.99-2.32-2.09-2.91.81-.65.97-2.79,2.56-5.08.47-.68.78-1.83,1.78-1.62,1.17.25,1.04,1.52,1.17,2.45.34,2.45-2.89,4.39-3.42,7.16ZM57.78,99.52c1.39-1.51.8-3.6,1.51-5.31.35-1.67.78-1.86,1.03-3.16,1.64-.53,2.39-1.86,3.68-2.71-.27,1.1.45,1.94.82,2.87-.09,1.13-.28,2.97-1.09,3.76-2.02,1.46-2.63,4.84-5.96,4.54ZM66.6,112.52c.46-.54.73-1.41,1.6-1.31.87.1.91,1.01,1.27,1.61,1.43,2.38.13,4.94.51,7.39-.86.17-1.85.17-1.54,1.31-.69.1-1.25.55-1.9.76.86-3.64-2.8-6.39.06-9.76ZM74.41,142.72c-.41-4.15-5.41-9.85-1.58-14.65,0-.06,0-.11,0-.17,1.22-.12,1.79.61,1.71,1.79-.14,2.03.74,3.78,1.31,5.61-.33.26-.58.58-.74.96-.43,2.25-1.08,4.52.09,6.66-.03,0-.63-.18-.78-.2ZM79.96,128.08c2.09-2.48.39-5.5,1.03-8.19-.01-.14-.04-.28-.07-.42,1.78-.54,1.3,1.86,2.32,2.31-.37,1.26.2,2.46.48,3.68-.82,2.53-2.02,3.05-3.76,2.62ZM92.23,126.94c-.47-1.35-.18-2.77-.19-4.17.72-1.71,2.87-2.16,3.25-4.47.47.45.55.38,1.6,1.04.3.88.6,1.76.9,2.64-.9.98-1.37,1.84-.93,3.13-.73.9-.6.67-.56,1-1.57-.66-2.33,1.55-4.09.83ZM96.34,139.16c-.77-3.56-.66-7.05.98-10.39-.22-.11-.37-.24-.47-.39.17.04.07.09.89-.67,1.51.59,1.45,1.97,1.73,3.18-1.5,1.19-1.8,3.31-2.78,5.13-1.68,4.18,1.87,6.09,3.8,8.7.9,1.59.15,3.45.6,5.12-.02.41-.04.81-.05,1.22-.12.02-.24.04-.36.04-2.69-3.51-2.9-7.95-4.34-11.94ZM110.89,138.68c-.59,1.18-1.48,2.19-1.85,3.49-.15-1.25-1.73-2.2.53-7.16.51.18.89-.08,1.27-.37-.42,1.28-.74,2.56.25,3.84-.07.06-.14.13-.2.2ZM115.06,124.43c-.33,1.03-1.1,1.39-1.92,1.69-.29-.26-.48-.88-.5-2.07-.78,1.47.89-.89-.3-2.15.58-.53.62-1.16,1.05-2.03,2.6-2.97,4.18-6.76,7.25-9.51.68,1.58,1.35,3.13,2.01,4.67-.66,1.07-.65,2.17-.24,2.85-3.85.57-5.07,4.18-7.35,6.56ZM139.89,108.82c-1.02,1.41-1.74,3.03-3,4.27-.03.06-.06.12-.09.18-1.12-.73-1.12-.71-1.1-.75.33-.69,1.44-.77,1.55-1.61,2.14-1.25,2.95-4.25,3.35-3.01-.19.35-.4.69-.71.93ZM142.5,105.92c.14-.1.27-.21.39-.33.93-1.67,2.2-3.09,3.29-4.63.12-.19.11-.14.27-.03-.63,2.24-1.4,4.36-3.95,5ZM142.71,132.29c.04-.75-.08-.19.69-1.33.73-1.01,1.05-2.12,1.05-2.33.53-.2.96-.6,1.45-.9-.57,1.84-1.39,3.51-3.19,4.56ZM153.28,140.39c.11-1.26-.31-1.36-.9-2.14.15-.85,1.14-1.95-.36-4.6-1.03-1.82-.8-3.48.55-5.03.06-.19.12-.39.17-.58.82.25.57,1.35,1.22,1.74-.01.23-.01.45-.01.68.75,1.39-.17,2.93.33,4.34.01,1.01.01,2.18.84,2.68,0,1.38-.5,1.08-.18,3.3.2.65.29,1.33.52,1.96-.05.1-.12.18-.21.26-.39-.39-1.14-1.31-1.96-2.62ZM172.5,118.47c-.96,2.35-2.66,1.75-4.04,4.39-.88,2.16-2.67,2.45-2.59,3.55-.19.02-.37.04-.56.09-.64-.21-.74-.72-.77-1.28.58-.69,1.13-1.78,1.46-2.62.45-1.25.78-.74,1.11-2.41,1.79-2.85,3.07-3.42,3.88-5.65.4-.49.55-.72.58-.76,1.52-.01,2.04-1.82,3.32-2.25,1.03,1.56-.69,2.86-.26,4.27-.12.08-.25.14-.38.2-.24.42-.38.86-.43,1.33-.59.15-.98.61-1.34,1.15ZM181.06,115.8c-.33-1-.16-2.18-.78-3.07.25.11.52.14.79.04,2.09-1.01.76-.54,2.29-1.68.54.95.55,1.93.43,2.92-.34.61-.56,1.3-1.06,1.81-.56.48-1.13,1.62-1.67-.02ZM214.17,102.6c.95-1.78.38-2.73.69-2.61.94.21,1.73-.1,2.44-.69,1.78-1.65,1.12-3.7,3.36-5.56.32.62.32,1.27.22,1.93-1.11.9-2.01,1.53-2.42,2.9-.13.61-.12.51-.51.56.05.31,0,.57-.1.8-.42.57-.99,1.01-1.67,1.37-.74.31-1.18,1.08-2.01,1.31ZM218.48,128.67c1.27-2.07-.03-5.09,2.4-6.76.11-.08.23-.18.32-.16.64.1.33,4.68.3,5.35-.73,1.64-.3,3.52-.46,5.28.04.28.08.55.09.83-.18,0-.12.04-.19-.23-.6-1.57-.59-3.5-2.47-4.31ZM226.78,111.75c-1.56.1-2.41,1.19-2.82,1.51-.45-.48.18-.63.45-1.19,1.91-2.58,4.44-4.71,5.65-7.8.1-.38.25-.72.41-1.04.77-.79,1.31-1.86,2.37-2.54.06,1.51,1.29,2.67.62,4.18-.7.91-1.39,1.81-2.09,2.72-.12-.08-.25-.15-.41-.2-2.33.6-3.83,1.96-4.19,4.36ZM237.55,111.56c0-1.04.55-2.22-.78-2.92-.06,0-.12,0-.18,0-.57-3.42.68-4.24,1.64-4.97,1.33-.27,2.19.1,2.23,1.61-.03.33-.06.66-.09.99-.2.16-.37.34-.53.57-.5,1.72-1.22,3.32-2.3,4.73ZM251.33,102.25c.07-.41.06-.33.94-.87.05-.62-.05-.28.52-.82,2.11-1.62-.32.02-.45,2.15-.34-.14-.72-.22-1.02-.46ZM255.09,91.26c-.73-.61-.68-1.44-.58-2.29.25-.35.48-.73.65-1.16.85-1.84,3.36-2.59,3.47-4.92,2.86-.76,4.5-3.3,6.86-4.79-1.41,2.11-.73,3.75-2.98,4.85-4.8,4.87-7.12,7.98-7.43,8.31ZM268.17,130.48c-1.31,1.82-2.45,2.27-4.99,5.3,3.66-6.02,2.33-4.57,4.07-6.26.15-.27.18-.47,1.11-1,1.1-.89,1.28-1.77,1.83-2.87,1.09-1.14,2.18-2.27,2.6-3.89,4.58-5.06,11.46-13.4,15.16-19.14,1.43-.4,2.61-1.03,2.49-2.76,1.78.63,2.63-1.69,4.2-2.21,1.46,2.03-.29,3.9-.16,5.8-2.38-.56-8.02,8.15-26.32,27.03ZM275.25,143.63c-3.82,3.39-2.83,3.48-4.08,4.36.98-.77,1.28-2.06,2.27-2.82,3.84-3.42-.17-.24,7.28-8.36.53-1.09,1.18-3.09,1.45-4.79,1.99-1.27,3.8-2.69,4.78-4.84.97-1.24,4.29-3.74,5.3-6.58.04-.39.15-.74.3-1.08,1.41-1.65,2.49-3.7,4.91-4.48-.12,2.35.08,2.45-1.93,5.24-3.88,4.34-6.89,9.45-11.49,13.15-.17.23-.27.47-.31.73-.57.54-.97.99-1.11,1.84-.1.05,0,0-1.49,1.06-.21.95,0,.63-.74.98-2.12,1.49-3.33,3.82-5.15,5.58ZM317.14,95.96c-1.7.35-1.92,1.41-4.19,4.4-2.42,2.62-4.85,5.26-7.36,7.98-.2-1.11-.36-2.05-.52-2.96.09-.03.18-.07.27-.1,1.42-1.19,3.08-2.28,2.03-4.58.04-.25,0-.15.17.04,1.52,0,2.56-1,3.38-2.02,3.65-4.59,7.99-8.59,11.22-13.53,1.02,1.79-.56,4.01.48,5.79-1.91,2-4.54,4.93-5.47,4.98ZM330.57,116.16c-.79.4-.45-.54-.97-1.32-.14-.09-.18.04-.19-.52,1.34-2.93-1.12-5.06,1.71-7.12.92-.67,1.71-1.66,1.72-2.66.97-.25.65.55.82.91-.37.06-.73.19-1.08.42-1.02,2.71-1.47,5.45-.59,8.21-.2.33-.94,1.46-1.42,2.09ZM338.5,119.22c-1.52-.18-3.33,2.21-4.17,2.97-1.38-1.05.64-2.38,1.21-4.65,1.81-.35.22-.64,13.27-14.23.68,1.83.41,3.58,1.36,4.95-.03.06-.17.3-.2.36-1.54.08-2.21.94-1.86,2.73-.06-.06-.12-.12-.19-.18-4.53,1.1-7,4.55-9.42,8.05ZM355.5,97.87c-1.07,1.51-.94,3.35-1.42,5.31-.6-2.87-1.24-5.75,1.5-8.27.04-.1.07-.16.1-.23.1.2.04.42,0,.67-.36,1.89.24,2.03-.17,2.51ZM366.94,107.88c1.9-1.58,6.95-6.13,7.86-8.43.25-.1.46-.21.56-.15.65.37.12,1.02,0,1.51-.5,2.15-5.35,4.64-8.42,7.08Z"/>
  <path d="M65.66,149.02c-.38-1.63-.26-3.45-1.85-4.59-1.12.52.39,3.28,2.99,9.82.37-2.6-.23-3.95-1.13-5.23Z"/>
  <path d="M265.13,55.86c.24.16.47.32.71.47,3.27.1,1.21-4.87-1.42-1.7-1.26.25-2.33.74-2.72,2.11,1.29.26,2.28-.63,3.43-.89Z"/>
  <path d="M63.8,144.43c.14-1.31-.08-2.55-.84-3.65.05-1.3-.57-2.37-1.23-3.41-1.6,1.26.09,2.74-.28,4.08.42.11.26.09.71.09.3,1.08-.16,2.48,1.33,3.04.14-.2.06-.16.3-.14Z"/>
</svg>